M48
INCH,TZ
T01C.013
T02C.028
T03C.03
T04C.042
T05C.04331
T06C.15
T07C.02047
;LEADER: 12 
;HEADER: 
;CODE  : ASCII 
;FILE  : ftf_pcb-1-4.drl for board C:/USERS/VHHASSMA/BOX/SENIOR DESIGN - FAN TEST FIXTURE/REWORKED PCB (DEC. 10)/allegro/#Taaaarv00840.tmp ... layers TOP and BOTTOM
;T01 Holesize 1. = 13.000000 Tolerance = +0.000000/-0.000000 PLATED MILS Quantity = 113
;T02 Holesize 2. = 28.000000 Tolerance = +0.000000/-0.000000 PLATED MILS Quantity = 6
;T03 Holesize 3. = 30.000000 Tolerance = +0.000000/-0.000000 PLATED MILS Quantity = 14
;T04 Holesize 4. = 42.000000 Tolerance = +0.000000/-0.000000 PLATED MILS Quantity = 2
;T05 Holesize 5. = 43.310000 Tolerance = +0.000000/-0.000000 PLATED MILS Quantity = 24
;T06 Holesize 6. = 150.000000 Tolerance = +0.000000/-0.000000 PLATED MILS Quantity = 4
;T07 Holesize 7. = 20.470000 Tolerance = +0.000000/-0.000000 NON_PLATED MILS Quantity = 2
%
G90
T01
X-16750Y-10520
X-16445Y-5225
X-14690Y-5920
X-14690Y-5040
X-14640Y-7510
X-14315Y-9285
X-13680Y-6590
X-6700Y-5800
X-3530Y-7570
X-2610Y-9370
X-370Y-7260
X-110Y-6710
X730Y-7590
X1450Y-6910
X1952Y-5388
X2730Y-7200
X2740Y-6730
X2950Y-6229
X4069Y-7720
X4069Y-6140
X4751Y-7710
X4751Y-6130
X5310Y-6730
X5785Y-7225
X7080Y-7230
X4600Y-1900
X4310Y-4950
X4075Y-1760
X2030Y-2150
X1660Y-890
X1420Y-4530
X-4980Y-4660
X-6665Y-60
X-7130Y-4060
X-7345Y-4595
X-9100Y-1510
X-17140Y-4030
X-17490Y-2580
X-15030Y4980
X-14280Y4940
X-10830Y2920
X-10025Y985
X-9295Y1035
X-8550Y2574
X-7550Y3848
X-4605Y3155
X-4605Y3745
X-3425Y735
X-3415Y1465
X-1540Y3500
X1655Y365
X3400Y980
X4260Y1280
X4410Y4630
X5115Y4015
X5155Y955
X7760Y8370
X7550Y8920
X6295Y8145
X5820Y8050
X5330Y7300
X5050Y9180
X4355Y7325
X3960Y8806
X2340Y5090
X1352Y5232
X225Y7615
X-350Y8860
X-1050Y9010
X-1500Y6010
X-1640Y6880
X-2110Y8370
X-2610Y8050
X-3100Y5260
X-4230Y5880
X-7305Y7860
X-7835Y7805
X-7930Y7230
X-8520Y7180
X-11215Y6005
X-11225Y6735
X-11730Y9770
X-11925Y9175
X-12520Y7900
X-16585Y6385
X-15065Y10875
X-14580Y14210
X-13460Y14970
X-11650Y13340
X-11320Y12620
X-7500Y14400
X-5450Y14550
X2705Y11995
X3250Y13450
X5040Y13450
X5800Y12290
X5845Y11135
X7860Y10000
X8350Y12900
X8985Y12795
X9490Y14530
X5020Y15170
X3170Y16600
X-3670Y16370
X-4430Y17700
X-6150Y16360
X-7470Y16400
X-9690Y16550
X-10222Y15672
X-10470Y16600
X-11060Y16540
X-12165Y16585
X-15095Y16415
T02
X-18330Y3360
R05Y1000
T03
X-18610Y-1500
R09Y-1000
X-6610Y-10500
X-6610Y-9500
X-6610Y-2500
X-6610Y-1500
T04
X-17250Y11210
X-18628Y13257
T05
X8640Y-2549
R07Y1000
X5281Y18260
R07X-1000
X-6309Y18200
R07X-1000
T06
X-4370Y-10240
X8930Y-10180
X9000Y18570
X-18950Y18520
T07
X4410Y-8406
X4410Y-5454
M30
