G04 ================== begin FILE IDENTIFICATION RECORD ==================*
G04 Layout Name:  ftf_pcb.brd*
G04 Film Name:    PCB12.12_LAYER3*
G04 File Format:  Gerber RS274X*
G04 File Origin:  Cadence Allegro 22.1-P001*
G04 Origin Date:  Thu Dec 12 21:13:42 2024*
G04 *
G04 Layer:  ETCH/LAYER3*
G04 Layer:  PIN/LAYER3*
G04 Layer:  VIA CLASS/LAYER3*
G04 *
G04 Offset:    (0.00 0.00)*
G04 Mirror:    No*
G04 Mode:      Positive*
G04 Rotation:  0*
G04 FullContactRelief:  No*
G04 UndefLineWidth:     5.00*
G04 ================== end FILE IDENTIFICATION RECORD ====================*
%FSLAX25Y25*MOIN*%
%IR0*IPPOS*OFA0.00000B0.00000*MIA0B0*SFA1.00000B1.00000*%
%ADD12C,.05*%
%ADD13C,.024*%
%ADD11C,.063*%
%ADD17C,.0345*%
%ADD15R,.05X.05*%
%ADD14C,.06496*%
%ADD10C,.15*%
%ADD16O,.04331X.08661*%
%ADD18C,.005*%
%ADD23C,.06004*%
%ADD19C,.03404*%
%ADD20C,.075*%
%ADD22C,.07304*%
%ADD24C,.04454*%
%ADD21C,.16604*%
%ADD25O,.05334X.09664*%
G75*
%LPD*%
G75*
G36*
G01X-66844Y182005D02*
G03X-66228Y179946I3749J0D01*
G01X-66123Y179786D01*
X-139492Y126662D01*
X-139448Y80186D01*
X-127149D01*
G02X-126779Y79636I-1J-400D01*
G03X-126902Y79001I1579J-635D01*
G01Y79000D01*
G03X-123498I1702J0D01*
G01Y79001D01*
G03X-123621Y79636I-1702J0D01*
G02X-123251Y80186I371J150D01*
G01X-74785D01*
G02X-74455Y79560I0J-400D01*
G03X-74752Y78600I1405J-961D01*
G03X-71348I1702J0D01*
G03X-71645Y79560I-1702J-1D01*
G02X-71315Y80186I330J226D01*
G01X-27779Y80185D01*
X-27738Y80039D01*
G03X-24462I1638J461D01*
G01X-24421Y80185D01*
X8163D01*
X8120Y26662D01*
X-46130Y-23061D01*
X-45636Y-94325D01*
X-45787Y-94365D01*
G03X-52002Y-102400I2086J-8035D01*
G03X-45675Y-110464I8302J0D01*
G01X-45524Y-110501D01*
X-45500Y-114000D01*
X-201400Y-114100D01*
X-201685Y197414D01*
X-42893Y197500D01*
G02X-42659Y196776I0J-400D01*
G01X-60041Y184191D01*
X-60160Y184340D01*
G03X-63094Y185755I-2934J-2334D01*
G03X-66844Y182005I0J-3750D01*
G37*
G36*
G01X-43700Y-110702D02*
G03Y-94098I0J8302D01*
G03X-43838Y-94099I-9J-8302D01*
G02X-44245Y-93700I-7J400D01*
G01X-44400Y-23400D01*
X9800Y26300D01*
X9700Y81800D01*
X-19669Y81760D01*
G02X-19941Y82453I0J400D01*
G03X-19398Y83700I-1160J1247D01*
G03X-22802I-1702J0D01*
G03X-22255Y82450I1702J0D01*
G02X-22526Y81756I-272J-294D01*
G01X-24943Y81753D01*
X-25000Y81800D01*
G03X-26100Y82204I-1102J-1300D01*
G03X-27204Y81798I0J-1704D01*
G01X-27260Y81750D01*
X-137900Y81600D01*
Y126200D01*
X-65261Y178941D01*
X-65145Y178866D01*
G03X-63094Y178255I2052J3139D01*
G03X-59344Y182005I0J3750D01*
G03X-59474Y182984I-3751J0D01*
G01X-59510Y183117D01*
X-39700Y197500D01*
X101511D01*
X101700Y-113900D01*
X-44200Y-114000D01*
X-44206Y-111102D01*
Y-111101D01*
G02X-43825Y-110701I400J0D01*
G03X-43700Y-110702I129J8301D01*
G37*
%LPC*%
G75*
G36*
G01X-69102Y-17500D02*
Y-12500D01*
G02X-68600Y-11998I502J0D01*
G01X-63600D01*
G02X-63098Y-12500I0J-502D01*
G01Y-17500D01*
G02X-63600Y-18002I-502J0D01*
G01X-68600D01*
G02X-69102Y-17500I0J502D01*
G37*
G36*
G01X-12722Y49250D02*
Y18928D01*
X-44746Y18926D01*
X-54329Y33493D01*
X-60866Y33461D01*
X-60863Y37515D01*
X-54350Y37581D01*
X-43327Y49165D01*
X-12722Y49250D01*
G37*
G54D23*
X-183300Y83600D03*
Y73600D03*
Y63600D03*
Y53600D03*
Y43600D03*
Y33600D03*
X-186100Y-15000D03*
X-66100Y-25000D03*
X-186100D03*
Y-35000D03*
Y-45000D03*
Y-55000D03*
Y-65000D03*
Y-75000D03*
Y-85000D03*
X-66100Y-95000D03*
X-186100D03*
X-66100Y-105000D03*
X-186100D03*
G54D19*
X-16400Y68800D03*
X-96900Y165500D03*
X-104700Y166000D03*
X-110600Y165400D03*
X-121650Y165850D03*
X-150950Y164150D03*
X-102225Y156725D03*
X-134600Y149700D03*
X-145800Y142100D03*
X-150653Y108747D03*
X-78350Y78050D03*
X-79300Y72300D03*
X-85200Y71800D03*
X-112253Y67353D03*
X-165853Y63847D03*
X-142800Y49400D03*
X-75500Y38484D03*
X-108300Y29200D03*
X-85500Y25744D03*
X-100253Y9853D03*
X-34253Y7347D03*
X-66650Y-600D03*
X-174900Y-25800D03*
X-71300Y-40600D03*
X-171400Y-40300D03*
X-49800Y-46600D03*
X-146900Y-50400D03*
X-164450Y-52250D03*
X-67000Y-58000D03*
X-146900Y-59200D03*
X-136800Y-65900D03*
X-146400Y-75100D03*
X-143147Y-92853D03*
X-167500Y-105200D03*
X-31000Y52600D03*
X-15000Y60100D03*
X23400Y50900D03*
X-44300Y177000D03*
X31700Y166000D03*
X-36700Y163700D03*
X-61500Y163600D03*
X-74700Y164000D03*
X50200Y151700D03*
X94900Y145300D03*
X-54500Y145500D03*
X-75000Y144000D03*
X50400Y134500D03*
X-116500Y133400D03*
X89853Y127947D03*
X-113200Y126200D03*
X58000Y122900D03*
X27050Y119950D03*
X58450Y111350D03*
X78600Y100000D03*
X50500Y91800D03*
X-10500Y90100D03*
X75500Y89200D03*
X77600Y83700D03*
X58200Y80500D03*
X53300Y73000D03*
X43550Y73250D03*
X44100Y46300D03*
X51150Y40150D03*
X42600Y12800D03*
X51550Y9550D03*
X34000Y9800D03*
X16550Y3650D03*
X16600Y-8900D03*
X40750Y-17600D03*
X46000Y-19000D03*
X20300Y-21500D03*
X14200Y-45300D03*
X43100Y-49500D03*
X19524Y-53876D03*
X40694Y-61400D03*
X29500Y-62294D03*
X53100Y-67300D03*
X27400D03*
X-1100Y-67100D03*
X70800Y-72300D03*
X57853Y-72253D03*
X27300Y-72000D03*
X-3700Y-72600D03*
X47506Y-77100D03*
X7300Y-75900D03*
X-26100Y-93700D03*
X13525Y52325D03*
X-3500Y88600D03*
G54D20*
X-73094Y182005D03*
X-83094D03*
X-93094D03*
X-103094D03*
X-113094D03*
X-123094D03*
X-133094D03*
X52806Y182605D03*
X42806D03*
X32806D03*
X22806D03*
X12806D03*
X2806D03*
X-7194D03*
X-17194D03*
X86395Y44506D03*
Y34506D03*
Y24506D03*
Y14506D03*
Y4506D03*
Y-5494D03*
Y-15494D03*
Y-25494D03*
G54D22*
X-186280Y132572D03*
X-172500Y112100D03*
G54D24*
X44100Y-54536D03*
Y-84064D03*
G54D21*
X-189500Y185200D03*
X90000Y185700D03*
X89300Y-101800D03*
G54D25*
X35635Y-78749D03*
X52565D03*
X35635Y-59851D03*
X52565D03*
%LPD*%
G75*
G54D10*
X-189500Y185200D03*
X-43700Y-102400D03*
X89300Y-101800D03*
X90000Y185700D03*
G54D11*
X-186280Y132572D03*
X-172500Y112100D03*
G54D12*
X-186100Y-105000D03*
Y-95000D03*
Y-85000D03*
Y-75000D03*
Y-65000D03*
Y-55000D03*
Y-45000D03*
Y-35000D03*
Y-25000D03*
Y-15000D03*
X-183300Y33600D03*
Y43600D03*
Y53600D03*
Y63600D03*
Y73600D03*
Y83600D03*
X-66100Y-105000D03*
Y-95000D03*
Y-25000D03*
G54D13*
X-174900Y-25800D03*
X-171400Y-40300D03*
X-167500Y-105200D03*
X-165853Y63847D03*
X-164450Y-52250D03*
X-150300Y49800D03*
X-150653Y108747D03*
X-150950Y164150D03*
X-146400Y-75100D03*
X-146900Y-59200D03*
Y-50400D03*
X-145800Y142100D03*
X-143147Y-92853D03*
X-142800Y49400D03*
X-136800Y-65900D03*
X-134600Y149700D03*
X-125200Y79000D03*
X-121650Y165850D03*
X-119247Y91753D03*
X-117300Y97700D03*
X-116500Y133400D03*
X-112253Y67353D03*
X-113200Y126200D03*
X-112147Y60047D03*
X-110600Y165400D03*
X-108300Y29200D03*
X-104700Y166000D03*
X-102225Y156725D03*
X-100253Y9853D03*
X-96900Y165500D03*
X-92947Y10353D03*
X-91000Y-15100D03*
X-85500Y25744D03*
X-85200Y71800D03*
X-79300Y72300D03*
X-78350Y78050D03*
X-75500Y38484D03*
X-75000Y144000D03*
X-73447Y-45947D03*
X-73050Y78600D03*
X-74700Y164000D03*
X-71300Y-40600D03*
X-67000Y-58000D03*
X-66650Y-600D03*
X-61500Y163600D03*
X-54500Y145500D03*
X-49800Y-46600D03*
X-46047Y31553D03*
Y37447D03*
X-44300Y177000D03*
X-42300Y58800D03*
X-35300Y-75700D03*
X-36700Y163700D03*
X-34253Y7347D03*
X-34153Y14653D03*
X-31000Y52600D03*
X-26100Y-93700D03*
Y80500D03*
X-21100Y83700D03*
X-16400Y68800D03*
X-15400Y35000D03*
X-15000Y60100D03*
X-10500Y90100D03*
X-3700Y-72600D03*
X-3500Y88600D03*
X-1100Y-67100D03*
X2253Y76153D03*
X7300Y-75900D03*
X14500Y-69100D03*
X14200Y-45300D03*
X13525Y52325D03*
X16600Y-8900D03*
X16550Y3650D03*
X19524Y-53876D03*
X20300Y-21500D03*
X23400Y50900D03*
X27300Y-72000D03*
X27400Y-67300D03*
X27050Y119950D03*
X29500Y-62294D03*
X32500Y134500D03*
X31700Y166000D03*
X34000Y9800D03*
X40694Y-77200D03*
Y-61400D03*
X40750Y-17600D03*
X39600Y88060D03*
X43100Y-49500D03*
X42600Y12800D03*
X43550Y73250D03*
X46000Y-19000D03*
X44100Y46300D03*
X47506Y-77100D03*
Y-61300D03*
X50500Y91800D03*
X50400Y134500D03*
X50200Y151700D03*
X51550Y9550D03*
X51150Y40150D03*
X53100Y-67300D03*
X53300Y73000D03*
X57853Y-72253D03*
X58200Y80500D03*
X58450Y111350D03*
X58000Y122900D03*
X62947Y81453D03*
X70800Y-72300D03*
X75500Y89200D03*
X77600Y83700D03*
X78600Y100000D03*
X83500Y129000D03*
X89853Y127947D03*
X94900Y145300D03*
G54D14*
X-133094Y182005D03*
X-123094D03*
X-113094D03*
X-103094D03*
X-93094D03*
X-83094D03*
X-73094D03*
X-63094D03*
X-17194Y182605D03*
X-7194D03*
X2806D03*
X12806D03*
X22806D03*
X32806D03*
X42806D03*
X52806D03*
X86395Y-25494D03*
Y-15494D03*
Y-5494D03*
Y4506D03*
Y14506D03*
Y24506D03*
Y34506D03*
Y44506D03*
G54D15*
X-66100Y-15000D03*
G54D16*
X35635Y-78749D03*
Y-59851D03*
X52565Y-78749D03*
Y-59851D03*
G54D17*
X44100Y-84064D03*
Y-54536D03*
G54D18*
G01X-189302Y-95000D02*
X-186100D01*
G01X-189302Y-85000D02*
X-186100D01*
G01Y-98202D02*
Y-95000D01*
G01D02*
Y-91798D01*
G01Y-95000D02*
X-182898D01*
G01X-186100Y-88202D02*
Y-85000D01*
G01D02*
Y-81798D01*
G01Y-85000D02*
X-182898D01*
G01X-186502Y33600D02*
X-183300D01*
G01Y30398D02*
Y33600D01*
G01D02*
Y36802D01*
G01Y33600D02*
X-180098D01*
G01X-127044Y182005D02*
X-123094D01*
G01Y178055D02*
Y182005D01*
G01D02*
Y185955D01*
G01Y182005D02*
X-119144D01*
G01X-107044D02*
X-103094D01*
G01Y178055D02*
Y182005D01*
G01D02*
Y185955D01*
G01Y182005D02*
X-99144D01*
G01X-87044D02*
X-83094D01*
G01Y178055D02*
Y182005D01*
G01D02*
Y185955D01*
G01Y182005D02*
X-79144D01*
G01X-67044D02*
X-63094D01*
G01D02*
Y185955D01*
G01X82445Y-25494D02*
X86395D01*
G01X82445Y-5494D02*
X86395D01*
G01X82445Y14506D02*
X86395D01*
G01X82445Y34506D02*
X86395D01*
G01Y-29444D02*
Y-25494D01*
G01D02*
Y-21544D01*
G01Y-25494D02*
X90345D01*
G01X86395Y-9444D02*
Y-5494D01*
G01D02*
Y-1544D01*
G01Y-5494D02*
X90345D01*
G01X86395Y10556D02*
Y14506D01*
G01D02*
Y18456D01*
G01Y14506D02*
X90345D01*
G01X86395Y30556D02*
Y34506D01*
G01D02*
Y38456D01*
G01Y34506D02*
X90345D01*
M02*
