G04 ================== begin FILE IDENTIFICATION RECORD ==================*
G04 Layout Name:  ftf_pcb.brd*
G04 Film Name:    PCB12.12_MASK_TOP*
G04 File Format:  Gerber RS274X*
G04 File Origin:  Cadence Allegro 22.1-P001*
G04 Origin Date:  Thu Dec 12 21:13:42 2024*
G04 *
G04 Layer:  VIA CLASS/SOLDERMASK_TOP*
G04 Layer:  PIN/SOLDERMASK_TOP*
G04 Layer:  DRC ERROR CLASS/SOLDERMASK_TOP*
G04 *
G04 Offset:    (0.00 0.00)*
G04 Mirror:    No*
G04 Mode:      Positive*
G04 Rotation:  0*
G04 FullContactRelief:  No*
G04 UndefLineWidth:     5.00*
G04 ================== end FILE IDENTIFICATION RECORD ====================*
%FSLAX25Y25*MOIN*%
%IR0*IPPOS*OFA0.00000B0.00000*MIA0B0*SFA1.00000B1.00000*%
%ADD35R,.106X.04*%
%ADD24R,.12X.063*%
%ADD19R,.063X.12*%
%ADD12C,.05*%
%ADD14C,.044*%
%ADD11C,.063*%
%ADD40R,.031X.031*%
%ADD31R,.154X.059*%
%ADD46C,.0345*%
%ADD32R,.05X.05*%
%ADD28R,.059X.138*%
%ADD26C,.07283*%
%ADD25R,.07283X.07283*%
%ADD15R,.014X.016*%
%ADD21R,.016X.014*%
%ADD43R,.027X.013*%
%ADD30R,.012X.047*%
%ADD17R,.032X.063*%
%ADD39R,.063X.032*%
%ADD29R,.047X.012*%
%ADD22R,.033X.063*%
%ADD37R,.428X.412*%
%ADD23R,.063X.033*%
%ADD10C,.17*%
%ADD47R,.018X.044*%
%ADD34R,.063X.017*%
%ADD41R,.028X.026*%
%ADD16R,.055X.028*%
%ADD42R,.0575X.021*%
%ADD27R,.094X.071*%
%ADD20R,.028X.055*%
%ADD38R,.083X.074*%
%ADD33R,.065X.067*%
%ADD36R,.02975X.0315*%
%ADD48R,.04337X.02762*%
%ADD18R,.04921X.03368*%
%ADD13R,.03368X.04921*%
%ADD45O,.05118X.09449*%
%ADD44R,.02581X.01968*%
%LPD*%
G75*
G54D10*
X-189500Y185200D03*
X-43700Y-102400D03*
X89300Y-101800D03*
X90000Y185700D03*
G54D20*
X-150950Y171600D03*
X-143450D03*
X-132350Y138700D03*
X-124850D03*
X-122450Y154700D03*
X-114950D03*
X-88450Y164000D03*
X-85850Y-23700D03*
Y-15100D03*
X-80950Y164000D03*
X-78350Y-23700D03*
Y-15100D03*
X-71150Y115900D03*
X-63650D03*
X-48950Y163700D03*
X-41450D03*
X2450Y-53400D03*
Y-45300D03*
X9950Y-53400D03*
Y-45300D03*
X9350Y82700D03*
X16850D03*
X21350Y74200D03*
X28850D03*
X41250Y103800D03*
X48750D03*
X72350Y118600D03*
X79850D03*
G54D11*
X-186280Y132572D03*
X-172500Y112100D03*
G54D30*
X-85427Y20768D03*
Y54232D03*
X-83458Y20768D03*
Y54232D03*
X-81490Y20768D03*
Y54232D03*
X-79521Y20768D03*
Y54232D03*
X-77553Y20768D03*
Y54232D03*
X-75584Y20768D03*
Y54232D03*
X-73616Y20768D03*
Y54232D03*
X-71647Y20768D03*
Y54232D03*
X-67710Y20768D03*
X-69679D03*
Y54232D03*
X-67710D03*
X-65742Y20768D03*
Y54232D03*
X-63773Y20768D03*
Y54232D03*
G54D21*
X-150450Y181800D03*
X-143750D03*
X-121650Y161900D03*
X-114950D03*
X-105650Y161700D03*
X-98950D03*
X-49050Y170700D03*
X-42350D03*
G54D12*
X-186100Y-105000D03*
Y-95000D03*
Y-85000D03*
Y-75000D03*
Y-65000D03*
Y-55000D03*
Y-45000D03*
Y-35000D03*
Y-25000D03*
Y-15000D03*
X-183300Y33600D03*
Y43600D03*
Y53600D03*
Y63600D03*
Y73600D03*
Y83600D03*
X-66100Y-105000D03*
Y-95000D03*
Y-25000D03*
G54D13*
X-179053Y-105200D03*
X-171747D03*
X-150653Y103200D03*
X-143347D03*
X-140253Y156500D03*
X-132947D03*
X-100253Y17100D03*
X-92947D03*
X-44553Y52600D03*
X-37247D03*
X-5053Y82500D03*
X2253D03*
X37547Y134500D03*
X41147Y111800D03*
X44747Y80900D03*
X44853Y134500D03*
X48453Y111800D03*
X52053Y80900D03*
X62947Y89200D03*
X70253D03*
X72447Y111000D03*
X79753D03*
X82547Y134300D03*
X89853D03*
G54D22*
X-140255Y129000D03*
X-131200D03*
X-122145D03*
G54D31*
X-70050Y89200D03*
X-37350D03*
G54D40*
X-11050Y-53300D03*
X-5150D03*
G54D41*
X-10950Y-47000D03*
X-5050D03*
G54D23*
X-134600Y73745D03*
Y82800D03*
Y91855D03*
G54D32*
X-66100Y-15000D03*
G54D14*
X-174900Y-25800D03*
X-171400Y-40300D03*
X-167500Y-105200D03*
X-165853Y63847D03*
X-164450Y-52250D03*
X-150300Y49800D03*
X-150653Y108747D03*
X-150950Y164150D03*
X-146400Y-75100D03*
X-146900Y-59200D03*
Y-50400D03*
X-145800Y142100D03*
X-143147Y-92853D03*
X-142800Y49400D03*
X-136800Y-65900D03*
X-134600Y149700D03*
X-125200Y79000D03*
X-121650Y165850D03*
X-119247Y91753D03*
X-117300Y97700D03*
X-116500Y133400D03*
X-112253Y67353D03*
X-113200Y126200D03*
X-112147Y60047D03*
X-110600Y165400D03*
X-108300Y29200D03*
X-104700Y166000D03*
X-102225Y156725D03*
X-100253Y9853D03*
X-96900Y165500D03*
X-92947Y10353D03*
X-91000Y-15100D03*
X-85500Y25744D03*
X-85200Y71800D03*
X-79300Y72300D03*
X-78350Y78050D03*
X-75500Y38484D03*
X-75000Y144000D03*
X-73447Y-45947D03*
X-73050Y78600D03*
X-74700Y164000D03*
X-71300Y-40600D03*
X-67000Y-58000D03*
X-66650Y-600D03*
X-61500Y163600D03*
X-54500Y145500D03*
X-49800Y-46600D03*
X-46047Y31553D03*
Y37447D03*
X-44300Y177000D03*
X-42300Y58800D03*
X-35300Y-75700D03*
X-36700Y163700D03*
X-34253Y7347D03*
X-34153Y14653D03*
X-31000Y52600D03*
X-26100Y-93700D03*
Y80500D03*
X-21100Y83700D03*
X-16400Y68800D03*
X-15400Y35000D03*
X-15000Y60100D03*
X-10500Y90100D03*
X-3700Y-72600D03*
X-3500Y88600D03*
X-1100Y-67100D03*
X2253Y76153D03*
X7300Y-75900D03*
X14500Y-69100D03*
X14200Y-45300D03*
X13525Y52325D03*
X16600Y-8900D03*
X16550Y3650D03*
X19524Y-53876D03*
X20300Y-21500D03*
X23400Y50900D03*
X27300Y-72000D03*
X27400Y-67300D03*
X27050Y119950D03*
X29500Y-62294D03*
X32500Y134500D03*
X31700Y166000D03*
X34000Y9800D03*
X40694Y-77200D03*
Y-61400D03*
X40750Y-17600D03*
X39600Y88060D03*
X43100Y-49500D03*
X42600Y12800D03*
X43550Y73250D03*
X46000Y-19000D03*
X44100Y46300D03*
X47506Y-77100D03*
Y-61300D03*
X50500Y91800D03*
X50400Y134500D03*
X50200Y151700D03*
X51550Y9550D03*
X51150Y40150D03*
X53100Y-67300D03*
X53300Y73000D03*
X57853Y-72253D03*
X58200Y80500D03*
X58450Y111350D03*
X58000Y122900D03*
X62947Y81453D03*
X70800Y-72300D03*
X75500Y89200D03*
X77600Y83700D03*
X78600Y100000D03*
X83500Y129000D03*
X89853Y127947D03*
X94900Y145300D03*
G54D33*
X-64100Y136150D03*
Y153050D03*
G54D42*
X-7925Y58900D03*
Y63900D03*
Y68900D03*
Y73900D03*
X13525Y58900D03*
Y63900D03*
Y68900D03*
Y73900D03*
G54D15*
X-174900Y-21950D03*
Y-15250D03*
X-165600Y-42150D03*
Y-35450D03*
X-157200Y-52250D03*
Y-45550D03*
X-146400Y-71850D03*
Y-65150D03*
X-136800Y-62050D03*
Y-55350D03*
G54D24*
X-131200Y103800D03*
G54D16*
X-169700Y-92650D03*
Y-85150D03*
X-159700Y-92750D03*
Y-85250D03*
X-150300Y57150D03*
Y64650D03*
X-141700Y57150D03*
Y64650D03*
X-117000Y138850D03*
Y146350D03*
X-69700Y4850D03*
Y12350D03*
X24400Y56350D03*
Y63850D03*
X33100Y104250D03*
Y111750D03*
Y119950D03*
Y127450D03*
X34800Y-45350D03*
Y-37850D03*
X34300Y-13250D03*
Y-5750D03*
X34000Y18050D03*
Y25550D03*
X35600Y51450D03*
Y58950D03*
X38000Y141850D03*
Y149350D03*
X43100Y-45350D03*
Y-37850D03*
X42700Y-13250D03*
Y-5750D03*
X42600Y18050D03*
Y25550D03*
X44100Y51350D03*
Y58850D03*
X51000Y-13250D03*
Y-5750D03*
Y18050D03*
Y25550D03*
X51700Y-45350D03*
Y-37850D03*
X52500Y51350D03*
Y58850D03*
X58000Y127450D03*
Y134950D03*
X62600Y141850D03*
Y149350D03*
X64700Y111350D03*
Y118850D03*
X72300Y141850D03*
Y149350D03*
X83600Y156250D03*
Y163750D03*
G54D34*
X-56300Y-71334D03*
Y-68775D03*
Y-66216D03*
Y-63657D03*
Y-61098D03*
Y-58539D03*
Y-55980D03*
Y-53420D03*
Y-50861D03*
Y-48302D03*
Y-45743D03*
Y-43184D03*
Y-40625D03*
Y-38066D03*
X-28300Y-71334D03*
Y-68775D03*
Y-66216D03*
Y-63657D03*
Y-61098D03*
Y-58539D03*
Y-55980D03*
Y-53420D03*
Y-50861D03*
Y-48302D03*
Y-45743D03*
Y-43184D03*
Y-40625D03*
Y-38066D03*
G54D43*
X4500Y-71068D03*
Y-69100D03*
Y-67132D03*
X10100Y-71068D03*
Y-69100D03*
Y-67132D03*
G54D25*
X-133094Y182005D03*
X-17194Y182605D03*
X86395Y-25494D03*
G54D44*
X19524Y-57900D03*
X23876D03*
X62524Y-72300D03*
X66876D03*
G54D17*
X-161300Y-300D03*
X-155200Y-100D03*
X-149000Y0D03*
X-142900Y100D03*
X-137000Y300D03*
X-129400Y500D03*
X-123700D03*
X-117900D03*
X-112200D03*
X17000Y104400D03*
X23200Y104300D03*
G54D26*
X-123094Y182005D03*
X-113094D03*
X-103094D03*
X-93094D03*
X-83094D03*
X-73094D03*
X-63094D03*
X-7194Y182605D03*
X2806D03*
X12806D03*
X22806D03*
X32806D03*
X42806D03*
X52806D03*
X86395Y-15494D03*
Y-5494D03*
Y4506D03*
Y14506D03*
Y24506D03*
Y34506D03*
Y44506D03*
G54D35*
X-45000Y119900D03*
Y126600D03*
Y133300D03*
Y140000D03*
Y146700D03*
G54D45*
X35635Y-78749D03*
Y-59851D03*
X52565Y-78749D03*
Y-59851D03*
G54D18*
X-160400Y63847D03*
Y71153D03*
X-150500Y-92853D03*
Y-85547D03*
X-125200Y84447D03*
Y91753D03*
X-106700Y60047D03*
Y67353D03*
X-99000Y60047D03*
Y67353D03*
X-91300Y60047D03*
Y67353D03*
X-67000Y-53253D03*
Y-45947D03*
X-57100Y-88453D03*
Y-81147D03*
X-56900Y7347D03*
Y14653D03*
X-56500Y119247D03*
Y126553D03*
X-49300Y-88453D03*
Y-81147D03*
X-49000Y7347D03*
Y14653D03*
X-41500Y-88453D03*
Y-81147D03*
X-41100Y7347D03*
Y14653D03*
X-40200Y24247D03*
Y31553D03*
X-40300Y37447D03*
Y44753D03*
X-33800Y-88453D03*
Y-81147D03*
X-26100Y-88453D03*
Y-81147D03*
X41400Y119847D03*
Y127153D03*
X49400Y119847D03*
Y127153D03*
X66600Y127347D03*
Y134653D03*
X74700Y127347D03*
Y134653D03*
G54D36*
X-42962Y183500D03*
Y189700D03*
X-36838Y183500D03*
Y189700D03*
X20538Y166000D03*
X26662D03*
G54D27*
X-100400Y86700D03*
Y110300D03*
G54D37*
X-12400Y133300D03*
G54D28*
X-92800Y123600D03*
Y150400D03*
G54D46*
X44100Y-84064D03*
Y-54536D03*
G54D19*
X-159800Y82800D03*
G54D38*
X-27600Y25850D03*
Y42550D03*
G54D47*
X43441Y-30750D03*
X44441Y33050D03*
X46000Y-23650D03*
X45141Y2450D03*
X47000Y40150D03*
X45641Y66150D03*
X48559Y-30750D03*
X47700Y9550D03*
X48200Y73250D03*
X50259Y2450D03*
X49559Y33050D03*
X50759Y66150D03*
G54D29*
X-91332Y26673D03*
Y28642D03*
Y30610D03*
Y32579D03*
Y34547D03*
Y36516D03*
Y38484D03*
Y40453D03*
Y42421D03*
Y44390D03*
Y46358D03*
Y48327D03*
X-57868Y28642D03*
Y26673D03*
Y30610D03*
Y32579D03*
Y34547D03*
Y36516D03*
Y38484D03*
Y40453D03*
Y42421D03*
Y46358D03*
Y44390D03*
Y48327D03*
G54D48*
X44387Y88060D03*
Y95540D03*
X44987Y141660D03*
Y149140D03*
X55213Y88060D03*
Y91800D03*
Y95540D03*
X55813Y141660D03*
Y145400D03*
Y149140D03*
X62387Y96260D03*
Y103740D03*
X73213Y96260D03*
Y100000D03*
Y103740D03*
X79387Y141560D03*
Y149040D03*
X90213Y141560D03*
Y145300D03*
Y149040D03*
G54D39*
X-22500Y57600D03*
Y63200D03*
Y68800D03*
Y74400D03*
X-9500Y-72600D03*
Y-66500D03*
X18700Y-74700D03*
X18800Y-63500D03*
M02*
