G04 ================== begin FILE IDENTIFICATION RECORD ==================*
G04 Layout Name:  ftf_pcb.brd*
G04 Film Name:    PCB12.12_TOP*
G04 File Format:  Gerber RS274X*
G04 File Origin:  Cadence Allegro 22.1-P001*
G04 Origin Date:  Thu Dec 12 21:13:42 2024*
G04 *
G04 Layer:  ETCH/TOP*
G04 Layer:  PIN/TOP*
G04 Layer:  VIA CLASS/TOP*
G04 *
G04 Offset:    (0.00 0.00)*
G04 Mirror:    No*
G04 Mode:      Positive*
G04 Rotation:  0*
G04 FullContactRelief:  No*
G04 UndefLineWidth:     5.00*
G04 ================== end FILE IDENTIFICATION RECORD ====================*
%FSLAX25Y25*MOIN*%
%IR0*IPPOS*OFA0.00000B0.00000*MIA0B0*SFA1.00000B1.00000*%
%ADD35R,.106X.04*%
%ADD24R,.12X.063*%
%ADD19R,.063X.12*%
%ADD12C,.05*%
%ADD14C,.024*%
%ADD11C,.063*%
%ADD40R,.031X.031*%
%ADD31R,.154X.059*%
%ADD46C,.0345*%
%ADD32R,.05X.05*%
%ADD28R,.059X.138*%
%ADD26C,.06496*%
%ADD25R,.06496X.06496*%
%ADD15R,.014X.016*%
%ADD21R,.016X.014*%
%ADD43R,.027X.013*%
%ADD30R,.012X.047*%
%ADD17R,.032X.063*%
%ADD39R,.063X.032*%
%ADD29R,.047X.012*%
%ADD22R,.033X.063*%
%ADD37R,.428X.412*%
%ADD23R,.063X.033*%
%ADD10C,.16*%
%ADD47R,.018X.044*%
%ADD34R,.063X.017*%
%ADD41R,.028X.026*%
%ADD16R,.055X.028*%
%ADD42R,.0575X.021*%
%ADD27R,.094X.071*%
%ADD20R,.028X.055*%
%ADD38R,.083X.074*%
%ADD33R,.065X.067*%
%ADD45O,.04331X.08661*%
%ADD36R,.02975X.0315*%
%ADD48R,.03937X.02362*%
%ADD18R,.04921X.03368*%
%ADD13R,.03368X.04921*%
%ADD44R,.02581X.01968*%
%ADD49C,.01*%
%ADD50C,.02*%
%ADD51C,.03*%
%ADD52C,.015*%
%ADD53C,.035*%
%ADD54C,.007*%
G75*
%LPD*%
G75*
G36*
G01X-74500Y111500D02*
X-53300D01*
Y92352D01*
X-62952D01*
Y86048D01*
X-53300D01*
Y82200D01*
X-113700D01*
Y101400D01*
X-74500D01*
Y111500D01*
G37*
G36*
G01X-58498Y142900D02*
X-38500D01*
Y136700D01*
X-52500D01*
X-58700Y130500D01*
X-65400D01*
X-75600Y120300D01*
Y102500D01*
X-113700D01*
Y114875D01*
X-87300Y114800D01*
X-71815Y142130D01*
X-71384Y142900D01*
X-69702D01*
Y139698D01*
X-58498D01*
Y142900D01*
G37*
G36*
G01X-87000Y147000D02*
X-69702D01*
Y144700D01*
X-71788D01*
X-87933Y115700D01*
X-108500D01*
Y139300D01*
X-95952D01*
Y130698D01*
X-89648D01*
Y139300D01*
X-87000D01*
Y147000D01*
G37*
G36*
G01X-99100Y158434D02*
X-99034Y158500D01*
X12200D01*
X12100Y110200D01*
X-28200Y85000D01*
X-52200D01*
X-52195Y86048D01*
X-44448D01*
Y92352D01*
X-52161D01*
X-52000Y123100D01*
X-37000D01*
X-37100Y150700D01*
X-54100D01*
Y148316D01*
X-58498Y148290D01*
Y149502D01*
X-69702D01*
Y148223D01*
X-87900Y148114D01*
Y140300D01*
X-89648D01*
Y143302D01*
X-95952D01*
Y140300D01*
X-99100D01*
Y158434D01*
G37*
G36*
G01X-53200Y149700D02*
X-38500D01*
Y144700D01*
X-58498D01*
Y147000D01*
X-53200D01*
Y149700D01*
G37*
G36*
G01X-36100Y48200D02*
X-18900D01*
Y20300D01*
X-36100D01*
Y23246D01*
X-35053D01*
G03X-34345Y23539I0J1002D01*
G01X-33035Y24848D01*
X-32252D01*
Y22150D01*
G03X-31750Y21648I502J0D01*
G01X-23450D01*
G03X-22948Y22150I0J502D01*
G01Y29550D01*
G03X-23450Y30052I-502J0D01*
G01X-31750D01*
G03X-32252Y29550I0J-502D01*
G01Y26852D01*
X-33450D01*
G03X-34158Y26558I1J-1002D01*
G01X-35468Y25248D01*
X-36100D01*
Y43752D01*
X-35368D01*
X-33458Y41842D01*
G03X-32750Y41548I709J708D01*
G01X-32252D01*
Y38850D01*
G03X-31750Y38348I502J0D01*
G01X-23450D01*
G03X-22948Y38850I0J502D01*
G01Y46250D01*
G03X-23450Y46752I-502J0D01*
G01X-31750D01*
G03X-32252Y46250I0J-502D01*
G01Y44433D01*
G02X-32934Y44151I-400J1D01*
G01X-34245Y45461D01*
G03X-34953Y45754I-708J-709D01*
G01X-36100D01*
Y48200D01*
G37*
G54D10*
X-189500Y185200D03*
X-43700Y-102400D03*
X89300Y-101800D03*
X90000Y185700D03*
G54D20*
X-150950Y171600D03*
X-143450D03*
X-132350Y138700D03*
X-124850D03*
X-122450Y154700D03*
X-114950D03*
X-88450Y164000D03*
X-85850Y-23700D03*
Y-15100D03*
X-80950Y164000D03*
X-78350Y-23700D03*
Y-15100D03*
X-71150Y115900D03*
X-63650D03*
X-48950Y163700D03*
X-41450D03*
X2450Y-53400D03*
Y-45300D03*
X9950Y-53400D03*
Y-45300D03*
X9350Y82700D03*
X16850D03*
X21350Y74200D03*
X28850D03*
X41250Y103800D03*
X48750D03*
X72350Y118600D03*
X79850D03*
G54D11*
X-186280Y132572D03*
X-172500Y112100D03*
G54D30*
X-85427Y20768D03*
Y54232D03*
X-83458Y20768D03*
Y54232D03*
X-81490Y20768D03*
Y54232D03*
X-79521Y20768D03*
Y54232D03*
X-77553Y20768D03*
Y54232D03*
X-75584Y20768D03*
Y54232D03*
X-73616Y20768D03*
Y54232D03*
X-71647Y20768D03*
Y54232D03*
X-67710Y20768D03*
X-69679D03*
Y54232D03*
X-67710D03*
X-65742Y20768D03*
Y54232D03*
X-63773Y20768D03*
Y54232D03*
G54D21*
X-150450Y181800D03*
X-143750D03*
X-121650Y161900D03*
X-114950D03*
X-105650Y161700D03*
X-98950D03*
X-49050Y170700D03*
X-42350D03*
G54D12*
X-186100Y-105000D03*
Y-95000D03*
Y-85000D03*
Y-75000D03*
Y-65000D03*
Y-55000D03*
Y-45000D03*
Y-35000D03*
Y-25000D03*
Y-15000D03*
X-183300Y33600D03*
Y43600D03*
Y53600D03*
Y63600D03*
Y73600D03*
Y83600D03*
X-66100Y-105000D03*
Y-95000D03*
Y-25000D03*
G54D13*
X-179053Y-105200D03*
X-171747D03*
X-150653Y103200D03*
X-143347D03*
X-140253Y156500D03*
X-132947D03*
X-100253Y17100D03*
X-92947D03*
X-44553Y52600D03*
X-37247D03*
X-5053Y82500D03*
X2253D03*
X37547Y134500D03*
X41147Y111800D03*
X44747Y80900D03*
X44853Y134500D03*
X48453Y111800D03*
X52053Y80900D03*
X62947Y89200D03*
X70253D03*
X72447Y111000D03*
X79753D03*
X82547Y134300D03*
X89853D03*
G54D22*
X-140255Y129000D03*
X-131200D03*
X-122145D03*
G54D31*
X-70050Y89200D03*
X-37350D03*
G54D40*
X-11050Y-53300D03*
X-5150D03*
G54D50*
G01X-140255Y129000D02*
X-182708D01*
X-186280Y132572D01*
G01X-160400Y63847D02*
X-165853D01*
G01X-159800Y82800D02*
Y74437D01*
X-160400Y73837D01*
Y71153D01*
G01X-134600Y82800D02*
X-159800D01*
G01X-150300Y57150D02*
Y49800D01*
G01Y64650D02*
X-141700D01*
G01X-150653Y103200D02*
Y108747D01*
G01X-134600Y73745D02*
X-140055D01*
X-141700Y72100D01*
Y64650D01*
G01X-131200Y103800D02*
X-140063D01*
X-140663Y103200D01*
X-143347D01*
G01X-140255Y129000D02*
Y133150D01*
X-140253Y133152D01*
Y156500D01*
G01D02*
Y161347D01*
X-126000Y175600D01*
X-56975D01*
X-42962Y189613D01*
Y189700D01*
G01X-134600Y91855D02*
X-128763D01*
X-128661Y91753D01*
X-125200D01*
G01X-131200Y103800D02*
Y129000D01*
G01X-132350Y138700D02*
Y134300D01*
X-131200Y133150D01*
Y129000D01*
G01X-103700Y119800D02*
X-123700D01*
X-127000Y123100D01*
Y128100D01*
X-127900Y129000D01*
X-131200D01*
G01X-42962Y183500D02*
Y183413D01*
X-54675Y171700D01*
X-123000D01*
X-127300Y167400D01*
Y149200D01*
X-132350Y144150D01*
Y138700D01*
G01X-125200Y84447D02*
Y79000D01*
G01Y91753D02*
X-119247D01*
G01X-124850Y138700D02*
Y133205D01*
X-122145Y130500D01*
Y129000D01*
G01X-124850Y138700D02*
Y142450D01*
X-120950Y146350D01*
X-117000D01*
G01Y138850D02*
Y133900D01*
X-116500Y133400D01*
G01X-71150Y109050D02*
Y115900D01*
G01D02*
Y119650D01*
X-64247Y126553D01*
X-56500D01*
G01Y119247D02*
X-57277D01*
X-60624Y115900D01*
X-63650D01*
G01X-45000Y126600D02*
X-52992D01*
X-53039Y126553D01*
X-56500D01*
G01X-36838Y189700D02*
Y183500D01*
G01Y189700D02*
X-33700D01*
X-33400Y190000D01*
X-4589D01*
X2806Y182605D01*
G54D41*
X-10950Y-47000D03*
X-5050D03*
G54D23*
X-134600Y73745D03*
Y82800D03*
Y91855D03*
G54D32*
X-66100Y-15000D03*
G54D14*
X-174900Y-25800D03*
X-171400Y-40300D03*
X-167500Y-105200D03*
X-165853Y63847D03*
X-164450Y-52250D03*
X-150300Y49800D03*
X-150653Y108747D03*
X-150950Y164150D03*
X-146400Y-75100D03*
X-146900Y-59200D03*
Y-50400D03*
X-145800Y142100D03*
X-143147Y-92853D03*
X-142800Y49400D03*
X-136800Y-65900D03*
X-134600Y149700D03*
X-125200Y79000D03*
X-121650Y165850D03*
X-119247Y91753D03*
X-117300Y97700D03*
X-116500Y133400D03*
X-112253Y67353D03*
X-113200Y126200D03*
X-112147Y60047D03*
X-110600Y165400D03*
X-108300Y29200D03*
X-104700Y166000D03*
X-102225Y156725D03*
X-100253Y9853D03*
X-96900Y165500D03*
X-92947Y10353D03*
X-91000Y-15100D03*
X-85500Y25744D03*
X-85200Y71800D03*
X-79300Y72300D03*
X-78350Y78050D03*
X-75500Y38484D03*
X-75000Y144000D03*
X-73447Y-45947D03*
X-73050Y78600D03*
X-74700Y164000D03*
X-71300Y-40600D03*
X-67000Y-58000D03*
X-66650Y-600D03*
X-61500Y163600D03*
X-54500Y145500D03*
X-49800Y-46600D03*
X-46047Y31553D03*
Y37447D03*
X-44300Y177000D03*
X-42300Y58800D03*
X-35300Y-75700D03*
X-36700Y163700D03*
X-34253Y7347D03*
X-34153Y14653D03*
X-31000Y52600D03*
X-26100Y-93700D03*
Y80500D03*
X-21100Y83700D03*
X-16400Y68800D03*
X-15400Y35000D03*
X-15000Y60100D03*
X-10500Y90100D03*
X-3700Y-72600D03*
X-3500Y88600D03*
X-1100Y-67100D03*
X2253Y76153D03*
X7300Y-75900D03*
X14500Y-69100D03*
X14200Y-45300D03*
X13525Y52325D03*
X16600Y-8900D03*
X16550Y3650D03*
X19524Y-53876D03*
X20300Y-21500D03*
X23400Y50900D03*
X27300Y-72000D03*
X27400Y-67300D03*
X27050Y119950D03*
X29500Y-62294D03*
X32500Y134500D03*
X31700Y166000D03*
X34000Y9800D03*
X40694Y-77200D03*
Y-61400D03*
X40750Y-17600D03*
X39600Y88060D03*
X43100Y-49500D03*
X42600Y12800D03*
X43550Y73250D03*
X46000Y-19000D03*
X44100Y46300D03*
X47506Y-77100D03*
Y-61300D03*
X50500Y91800D03*
X50400Y134500D03*
X50200Y151700D03*
X51550Y9550D03*
X51150Y40150D03*
X53100Y-67300D03*
X53300Y73000D03*
X57853Y-72253D03*
X58200Y80500D03*
X58450Y111350D03*
X58000Y122900D03*
X62947Y81453D03*
X70800Y-72300D03*
X75500Y89200D03*
X77600Y83700D03*
X78600Y100000D03*
X83500Y129000D03*
X89853Y127947D03*
X94900Y145300D03*
G54D51*
G01X-45000Y133300D02*
X-34800D01*
G01X-20700Y35000D02*
X-15400D01*
G01X-10500Y103600D02*
Y90100D01*
G54D33*
X-64100Y136150D03*
Y153050D03*
G54D42*
X-7925Y58900D03*
Y63900D03*
Y68900D03*
Y73900D03*
X13525Y58900D03*
Y63900D03*
Y68900D03*
Y73900D03*
G54D15*
X-174900Y-21950D03*
Y-15250D03*
X-165600Y-42150D03*
Y-35450D03*
X-157200Y-52250D03*
Y-45550D03*
X-146400Y-71850D03*
Y-65150D03*
X-136800Y-62050D03*
Y-55350D03*
G54D24*
X-131200Y103800D03*
G54D52*
G01X-150300Y57150D02*
X-154050D01*
X-155900Y59000D01*
Y70114D01*
X-156939Y71153D01*
X-160400D01*
G54D16*
X-169700Y-92650D03*
Y-85150D03*
X-159700Y-92750D03*
Y-85250D03*
X-150300Y57150D03*
Y64650D03*
X-141700Y57150D03*
Y64650D03*
X-117000Y138850D03*
Y146350D03*
X-69700Y4850D03*
Y12350D03*
X24400Y56350D03*
Y63850D03*
X33100Y104250D03*
Y111750D03*
Y119950D03*
Y127450D03*
X34800Y-45350D03*
Y-37850D03*
X34300Y-13250D03*
Y-5750D03*
X34000Y18050D03*
Y25550D03*
X35600Y51450D03*
Y58950D03*
X38000Y141850D03*
Y149350D03*
X43100Y-45350D03*
Y-37850D03*
X42700Y-13250D03*
Y-5750D03*
X42600Y18050D03*
Y25550D03*
X44100Y51350D03*
Y58850D03*
X51000Y-13250D03*
Y-5750D03*
Y18050D03*
Y25550D03*
X51700Y-45350D03*
Y-37850D03*
X52500Y51350D03*
Y58850D03*
X58000Y127450D03*
Y134950D03*
X62600Y141850D03*
Y149350D03*
X64700Y111350D03*
Y118850D03*
X72300Y141850D03*
Y149350D03*
X83600Y156250D03*
Y163750D03*
G54D34*
X-56300Y-71334D03*
Y-68775D03*
Y-66216D03*
Y-63657D03*
Y-61098D03*
Y-58539D03*
Y-55980D03*
Y-53420D03*
Y-50861D03*
Y-48302D03*
Y-45743D03*
Y-43184D03*
Y-40625D03*
Y-38066D03*
X-28300Y-71334D03*
Y-68775D03*
Y-66216D03*
Y-63657D03*
Y-61098D03*
Y-58539D03*
Y-55980D03*
Y-53420D03*
Y-50861D03*
Y-48302D03*
Y-45743D03*
Y-43184D03*
Y-40625D03*
Y-38066D03*
G54D43*
X4500Y-71068D03*
Y-69100D03*
Y-67132D03*
X10100Y-71068D03*
Y-69100D03*
Y-67132D03*
G54D25*
X-133094Y182005D03*
X-17194Y182605D03*
X86395Y-25494D03*
G54D53*
G01X-110300Y97700D02*
X-117300D01*
G54D44*
X19524Y-57900D03*
X23876D03*
X62524Y-72300D03*
X66876D03*
G54D17*
X-161300Y-300D03*
X-155200Y-100D03*
X-149000Y0D03*
X-142900Y100D03*
X-137000Y300D03*
X-129400Y500D03*
X-123700D03*
X-117900D03*
X-112200D03*
X17000Y104400D03*
X23200Y104300D03*
G54D26*
X-123094Y182005D03*
X-113094D03*
X-103094D03*
X-93094D03*
X-83094D03*
X-73094D03*
X-63094D03*
X-7194Y182605D03*
X2806D03*
X12806D03*
X22806D03*
X32806D03*
X42806D03*
X52806D03*
X86395Y-15494D03*
Y-5494D03*
Y4506D03*
Y14506D03*
Y24506D03*
Y34506D03*
Y44506D03*
G54D35*
X-45000Y119900D03*
Y126600D03*
Y133300D03*
Y140000D03*
Y146700D03*
G54D54*
G01X7300Y-75900D02*
Y-70600D01*
X5800Y-69100D01*
X4500D01*
G01X23876Y-57900D02*
X28300D01*
X29500Y-59100D01*
Y-62294D01*
G01X27400Y-67300D02*
X53100D01*
G54D18*
X-160400Y63847D03*
Y71153D03*
X-150500Y-92853D03*
Y-85547D03*
X-125200Y84447D03*
Y91753D03*
X-106700Y60047D03*
Y67353D03*
X-99000Y60047D03*
Y67353D03*
X-91300Y60047D03*
Y67353D03*
X-67000Y-53253D03*
Y-45947D03*
X-57100Y-88453D03*
Y-81147D03*
X-56900Y7347D03*
Y14653D03*
X-56500Y119247D03*
Y126553D03*
X-49300Y-88453D03*
Y-81147D03*
X-49000Y7347D03*
Y14653D03*
X-41500Y-88453D03*
Y-81147D03*
X-41100Y7347D03*
Y14653D03*
X-40200Y24247D03*
Y31553D03*
X-40300Y37447D03*
Y44753D03*
X-33800Y-88453D03*
Y-81147D03*
X-26100Y-88453D03*
Y-81147D03*
X41400Y119847D03*
Y127153D03*
X49400Y119847D03*
Y127153D03*
X66600Y127347D03*
Y134653D03*
X74700Y127347D03*
Y134653D03*
G54D36*
X-42962Y183500D03*
Y189700D03*
X-36838Y183500D03*
Y189700D03*
X20538Y166000D03*
X26662D03*
G54D45*
X35635Y-78749D03*
Y-59851D03*
X52565Y-78749D03*
Y-59851D03*
G54D27*
X-100400Y86700D03*
Y110300D03*
G54D37*
X-12400Y133300D03*
G54D28*
X-92800Y123600D03*
Y150400D03*
G54D46*
X44100Y-84064D03*
Y-54536D03*
G54D19*
X-159800Y82800D03*
G54D38*
X-27600Y25850D03*
Y42550D03*
G54D47*
X43441Y-30750D03*
X44441Y33050D03*
X46000Y-23650D03*
X45141Y2450D03*
X47000Y40150D03*
X45641Y66150D03*
X48559Y-30750D03*
X47700Y9550D03*
X48200Y73250D03*
X50259Y2450D03*
X49559Y33050D03*
X50759Y66150D03*
G54D29*
X-91332Y26673D03*
Y28642D03*
Y30610D03*
Y32579D03*
Y34547D03*
Y36516D03*
Y38484D03*
Y40453D03*
Y42421D03*
Y44390D03*
Y46358D03*
Y48327D03*
X-57868Y28642D03*
Y26673D03*
Y30610D03*
Y32579D03*
Y34547D03*
Y36516D03*
Y38484D03*
Y40453D03*
Y42421D03*
Y46358D03*
Y44390D03*
Y48327D03*
G54D48*
X44387Y88060D03*
Y95540D03*
X44987Y141660D03*
Y149140D03*
X55213Y88060D03*
Y91800D03*
Y95540D03*
X55813Y141660D03*
Y145400D03*
Y149140D03*
X62387Y96260D03*
Y103740D03*
X73213Y96260D03*
Y100000D03*
Y103740D03*
X79387Y141560D03*
Y149040D03*
X90213Y141560D03*
Y145300D03*
Y149040D03*
G54D39*
X-22500Y57600D03*
Y63200D03*
Y68800D03*
Y74400D03*
X-9500Y-72600D03*
Y-66500D03*
X18700Y-74700D03*
X18800Y-63500D03*
G54D49*
G01X-179053Y-105200D02*
X-182400D01*
X-182600Y-105000D01*
X-186100D01*
G01X-169700Y-85150D02*
X-182450D01*
X-182600Y-85000D01*
X-186100D01*
G01Y-65000D02*
X-148250D01*
X-148100Y-65150D01*
X-146400D01*
G01X-186100Y-55000D02*
X-138850D01*
X-138500Y-55350D01*
X-136800D01*
G01X-157200Y-45550D02*
X-182050D01*
X-182600Y-45000D01*
X-186100D01*
G01X-165600Y-35450D02*
X-182150D01*
X-182600Y-35000D01*
X-186100D01*
G01X-174900Y-15250D02*
X-182350D01*
X-182600Y-15000D01*
X-186100D01*
G01X-174900Y-21950D02*
Y-25800D01*
G01X-161300Y-300D02*
Y-9600D01*
X-166950Y-15250D01*
X-174900D01*
G01X-171747Y-105200D02*
X-167500D01*
G01X-165600Y-42150D02*
X-169550D01*
X-171400Y-40300D01*
G01X-66100Y-105000D02*
X-162000D01*
X-169700Y-97300D01*
Y-92650D01*
G01Y-85150D02*
X-163550D01*
X-163450Y-85250D01*
X-159700D01*
G01X-155200Y-100D02*
Y-28500D01*
X-162150Y-35450D01*
X-165600D01*
G01X-157200Y-52250D02*
X-164450D01*
G01X-161300Y-300D02*
Y19800D01*
X-130900Y50200D01*
X-82491D01*
X-81490Y51201D01*
Y54232D01*
G01X-159700Y-92750D02*
Y-97500D01*
X-155000Y-102200D01*
X-73300D01*
X-66100Y-95000D01*
G01X-159700Y-85250D02*
X-154258D01*
X-153961Y-85547D01*
X-150500D01*
G01X-149000Y0D02*
Y-33500D01*
X-157200Y-41700D01*
Y-45550D01*
G01X-91332Y48327D02*
X-128973D01*
X-155200Y22100D01*
Y-100D01*
G01X-150500Y-92853D02*
X-143147D01*
G01X-91332Y46358D02*
X-126742D01*
X-149000Y24100D01*
Y0D01*
G01X-150950Y171600D02*
Y164150D01*
G01X-150450Y181800D02*
Y175850D01*
X-150950Y175350D01*
Y171600D01*
G01X-146900Y-59200D02*
Y-63100D01*
X-146400Y-63600D01*
Y-65150D01*
G01X-146900Y-50400D02*
X-142900Y-46400D01*
Y100D01*
G01X-146400Y-71850D02*
Y-75100D01*
G01X-145800Y142100D02*
Y159500D01*
X-143450Y161850D01*
Y171600D01*
G01X-91332Y44390D02*
X-124610D01*
X-142900Y26100D01*
Y100D01*
G01X-141700Y57150D02*
Y50500D01*
X-142800Y49400D01*
G01X-143750Y181800D02*
Y175650D01*
X-143450Y175350D01*
Y171600D01*
G01X-133094Y182005D02*
X-141745D01*
X-141950Y181800D01*
X-143750D01*
G01X-136800Y-62050D02*
Y-65900D01*
G01Y-55350D02*
Y-4050D01*
X-137000Y-3850D01*
Y300D01*
G01X-91332Y42421D02*
X-122779D01*
X-137000Y28200D01*
Y300D01*
G01X-132947Y156500D02*
Y151353D01*
X-134600Y149700D01*
G01X-71300Y-40600D02*
X-105100D01*
X-129400Y-16300D01*
Y500D01*
G01X-91332Y38484D02*
X-115916D01*
X-129400Y25000D01*
Y500D01*
G01X-56300Y-38066D02*
X-101034D01*
X-123700Y-15400D01*
Y500D01*
G01D02*
Y27000D01*
X-114184Y36516D01*
X-91332D01*
G01X-122450Y154700D02*
Y159400D01*
X-121650Y160200D01*
Y161900D01*
G01D02*
Y165850D01*
G01X-56300Y-43184D02*
X-52442D01*
X-50400Y-41142D01*
Y-37600D01*
X-52800Y-35200D01*
X-97800D01*
X-117900Y-15100D01*
Y500D01*
G01D02*
Y28701D01*
X-112054Y34547D01*
X-91332D01*
G01X-113200Y126200D02*
Y129400D01*
X-111350Y131250D01*
Y147350D01*
X-114950Y150950D01*
Y154700D01*
G01D02*
Y161900D01*
G01D02*
X-113150D01*
X-110600Y164450D01*
Y165400D01*
G01X-112200Y500D02*
Y-14900D01*
X-94700Y-32400D01*
X-50700D01*
X-46800Y-36300D01*
Y-58057D01*
X-52400Y-63657D01*
X-56300D01*
G01X-112200Y500D02*
Y30199D01*
X-109820Y32579D01*
X-91332D01*
G01X-106700Y60047D02*
X-112147D01*
G01X-106700Y67353D02*
X-112253D01*
G01X-108300Y29200D02*
X-97500D01*
X-96090Y30610D01*
X-91332D01*
G01X-99000Y60047D02*
X-106700D01*
G01X-99000Y67353D02*
X-106700D01*
G01X-105650Y161700D02*
Y165050D01*
X-104700Y166000D01*
G01X-103600Y119700D02*
X-103700Y119800D01*
G01X-102225Y156725D02*
X-98950Y160000D01*
Y161700D01*
G01X-100253Y17100D02*
Y9853D01*
G01Y17100D02*
Y23071D01*
X-94682Y28642D01*
X-91332D01*
G01X-91300Y60047D02*
X-99000D01*
G01X-91300Y67353D02*
X-99000D01*
G01X-98950Y161700D02*
X-94500D01*
X-92200Y164000D01*
X-88450D01*
G01X-98950Y161700D02*
Y163450D01*
X-96900Y165500D01*
G01X-92947Y17100D02*
Y10353D01*
G01X-91332Y26673D02*
Y22176D01*
X-92947Y20561D01*
Y17100D01*
G01X-85850Y-15100D02*
X-91000D01*
G01X-91300Y60047D02*
X-86847D01*
X-85427Y58627D01*
Y54232D01*
G01X-83458D02*
Y62972D01*
X-87839Y67353D01*
X-91300D01*
G01X-85850Y-15100D02*
Y-23700D01*
G01X-85500Y25744D02*
X-85427Y25671D01*
Y20768D01*
G01X-75584Y54232D02*
Y62184D01*
X-85200Y71800D01*
G01X34300Y-13250D02*
X11450D01*
X9000Y-10800D01*
X-72200D01*
X-81490Y-1510D01*
Y20768D01*
G01X-80950Y164000D02*
X-74700D01*
G01X16600Y-8900D02*
X-70800D01*
X-79521Y-179D01*
Y20768D01*
G01X-73616Y54232D02*
Y66616D01*
X-79300Y72300D01*
G01X-66100Y-25000D02*
X-74650D01*
X-75950Y-23700D01*
X-78350D01*
G01Y-15100D02*
X-69700D01*
X-69600Y-15000D01*
X-66100D01*
G01X35600Y51450D02*
X30350D01*
X26600Y47700D01*
Y8400D01*
X11100Y-7100D01*
X-69500D01*
X-77553Y953D01*
Y20768D01*
G01X-78350Y78050D02*
X-71647Y71347D01*
Y54232D01*
G01X16550Y3650D02*
X7800Y-5100D01*
X-68400D01*
X-75584Y2084D01*
Y20768D01*
G01X-75500Y38484D02*
X-57868D01*
G01X-67000Y-45947D02*
X-73447D01*
G01X-69679Y54232D02*
Y75229D01*
X-73050Y78600D01*
G01X-69700Y4850D02*
Y2450D01*
X-66650Y-600D01*
G01X-69700Y12350D02*
Y15250D01*
X-71647Y17197D01*
Y20768D01*
G01X-71100Y109000D02*
X-71150Y109050D01*
G01X-21100Y83700D02*
X-48200D01*
X-67710Y64190D01*
Y54232D01*
G01X-67000Y-53253D02*
Y-58000D01*
G01X-56300Y-53420D02*
X-63622D01*
X-63789Y-53253D01*
X-67000D01*
G01X-56300Y-45743D02*
X-63585D01*
X-63789Y-45947D01*
X-67000D01*
G01X-56900Y7347D02*
X-60361D01*
X-62400Y9386D01*
Y12900D01*
X-65742Y16242D01*
Y20768D01*
G01X-26100Y80500D02*
X-47800D01*
X-65742Y62558D01*
Y54232D01*
G01X-56900Y14653D02*
X-61453D01*
X-63773Y16973D01*
Y20768D01*
G01X-22500Y74400D02*
X-50100D01*
X-63773Y60727D01*
Y54232D01*
G01X-57100Y-88453D02*
X-60561D01*
X-61800Y-87214D01*
Y-78100D01*
X-59000Y-75300D01*
X-55100D01*
X-52984Y-73184D01*
X-52735D01*
X-52150Y-72599D01*
Y-72350D01*
X-35780Y-55980D01*
X-34700D01*
G01X-61500Y163600D02*
X-51450D01*
X-51350Y163700D01*
X-48950D01*
G01X-57100Y-88453D02*
X-49300D01*
G01Y-81147D02*
X-57100D01*
G01X-56900Y7347D02*
X-49000D01*
G01X-56900Y14653D02*
Y20600D01*
X-57868Y21568D01*
Y26673D01*
G01X-56900Y14653D02*
X-49000D01*
G01X-57868Y34547D02*
X-53961D01*
X-43661Y24247D01*
X-40200D01*
G01X-57868Y36516D02*
X-51998D01*
X-43761Y44753D01*
X-40300D01*
G01X-57868Y40453D02*
X-51347D01*
X-43700Y48100D01*
X-38286D01*
X-37247Y49139D01*
Y52600D01*
G01X-44553D02*
Y51823D01*
X-46945Y49431D01*
Y47355D01*
X-51879Y42421D01*
X-57868D01*
G01X-22500Y57600D02*
X-26650D01*
X-32250Y63200D01*
X-44900D01*
X-49400Y58700D01*
Y47800D01*
X-52810Y44390D01*
X-57868D01*
G01Y46358D02*
X-54342D01*
X-52800Y47900D01*
Y61000D01*
X-47600Y66200D01*
X-29650D01*
X-26650Y63200D01*
X-22500D01*
G01Y68800D02*
X-50100D01*
X-57868Y61032D01*
Y48327D01*
G01X-49800Y-46600D02*
X-51502Y-48302D01*
X-56300D01*
G01X-49300Y-88453D02*
X-41500D01*
G01Y-81147D02*
X-49300D01*
G01X-49000Y7347D02*
X-41100D01*
G01X-49000Y14653D02*
X-41100D01*
G01X-49050Y170700D02*
Y167550D01*
X-48950Y167450D01*
Y163700D01*
G01X-44300Y177000D02*
Y174800D01*
X-46500Y172600D01*
X-48258D01*
X-49050Y171808D01*
Y170700D01*
G01X-40200Y31553D02*
X-46047D01*
G01X-40300Y37447D02*
X-46047D01*
G01X-44553Y52600D02*
Y56547D01*
X-42300Y58800D01*
G01X-41500Y-88453D02*
X-33800D01*
G01X-41500Y-81147D02*
Y-66700D01*
X-33339Y-58539D01*
X-28300D01*
G01X-41500Y-81147D02*
X-33800D01*
G01X-42350Y170700D02*
Y168350D01*
X-41450Y167450D01*
Y163700D01*
G01D02*
X-36700D01*
G01X-41100Y7347D02*
X-34253D01*
G01X-41100Y14653D02*
X-34153D01*
G01X-40200Y24247D02*
X-35053D01*
X-33450Y25850D01*
X-27600D01*
G01X-40300Y44753D02*
X-34953D01*
X-32750Y42550D01*
X-27600D01*
G01X-37247Y52600D02*
X-31000D01*
G01X-33800Y-81147D02*
Y-77200D01*
X-35300Y-75700D01*
G01X-34700Y-55980D02*
Y-46743D01*
X-33700Y-45743D01*
X-28300D01*
G01X-26100Y-88453D02*
X-33800D01*
G01X-28300Y-66216D02*
X-32450D01*
X-33400Y-67166D01*
Y-72300D01*
X-29400Y-76300D01*
X-27100D01*
X-26100Y-77300D01*
Y-81147D01*
G01X-34700Y-55980D02*
X-28300D01*
G01Y-71334D02*
X-14916D01*
X-13650Y-72600D01*
X-9500D01*
G01X-28300Y-68775D02*
X-15925D01*
X-13650Y-66500D01*
X-9500D01*
G01X-28300Y-63657D02*
X-24400D01*
X-23200Y-62457D01*
Y-57180D01*
X-24400Y-55980D01*
X-28300D01*
G01Y-53420D02*
X-13720D01*
X-13600Y-53300D01*
X-11050D01*
G01X-10950Y-47000D02*
X-16500D01*
X-20361Y-50861D01*
X-28300D01*
G01X-26100Y-88453D02*
Y-93700D01*
G01X-7925Y68900D02*
X-2900D01*
X-300Y66300D01*
Y58800D01*
X-4800Y54300D01*
X-13900D01*
X-17200Y57600D01*
X-22500D01*
G01Y63200D02*
X-17300D01*
X-16600Y63900D01*
X-7925D01*
G01X-22500Y68800D02*
X-16400D01*
G01X-22500Y74400D02*
X-12300D01*
X-11800Y73900D01*
X-7925D01*
G01X17000Y104400D02*
Y158700D01*
X11900Y163800D01*
X-16194D01*
X-17194Y164800D01*
Y182605D01*
G01X-7925Y58900D02*
X-13800D01*
X-15000Y60100D01*
G01X-9500Y-72600D02*
X-3700D01*
G01X4500Y-71068D02*
X-782D01*
X-5350Y-66500D01*
X-9500D01*
G01X23200Y104300D02*
Y156300D01*
X13800Y165700D01*
X-4800D01*
X-7194Y168094D01*
Y182605D01*
G01X-5150Y-53300D02*
X-50D01*
X50Y-53400D01*
X2450D01*
G01Y-45300D02*
X-300D01*
X-2000Y-47000D01*
X-5050D01*
G01X-5053Y82500D02*
Y87047D01*
X-3500Y88600D01*
G01X-1100Y-67100D02*
X2118D01*
X2150Y-67132D01*
X4500D01*
G01X2253Y82500D02*
Y76153D01*
G01X9350Y82700D02*
X5137D01*
X4937Y82500D01*
X2253D01*
G01X13525Y73900D02*
X11700D01*
X9350Y76250D01*
Y82700D01*
G01X18700Y-74700D02*
X11900D01*
X10100Y-72900D01*
Y-71068D01*
G01Y-69100D02*
X14500D01*
G01X18800Y-63500D02*
X12082D01*
X10100Y-65482D01*
Y-67132D01*
G01X9950Y-53400D02*
Y-45300D01*
G01D02*
X14200D01*
G01X13525Y58900D02*
Y52325D01*
G01Y63900D02*
X20600D01*
X20650Y63850D01*
X24400D01*
G01X13525Y68900D02*
X17400D01*
X21350Y72850D01*
Y74200D01*
G01X20538Y166000D02*
Y174873D01*
X12806Y182605D01*
G01X16850Y82700D02*
Y100100D01*
X17000Y100250D01*
Y104400D01*
G01X16850Y82700D02*
X19250D01*
X21350Y80600D01*
Y74200D01*
G01X18700Y-74700D02*
Y-73900D01*
X20600Y-72000D01*
X27300D01*
G01X18800Y-63500D02*
Y-65100D01*
X21000Y-67300D01*
X27400D01*
G01X19524Y-57900D02*
Y-53876D01*
G01X20300Y-21500D02*
Y-37700D01*
X27950Y-45350D01*
X34800D01*
G01X24400Y56350D02*
Y51900D01*
X23400Y50900D01*
G01X24400Y63850D02*
X25750D01*
G01X24400D02*
Y67600D01*
X25400Y68600D01*
X27000D01*
X28850Y70450D01*
Y74200D01*
G01X23200Y104300D02*
Y93800D01*
X28850Y88150D01*
Y74200D01*
G01X26662Y166000D02*
X31700D01*
G01X33100Y119950D02*
X27050D01*
G01X38000Y141850D02*
X29750D01*
X28300Y140400D01*
Y128500D01*
X29350Y127450D01*
X33100D01*
G01Y104250D02*
X38400D01*
X38850Y103800D01*
X41250D01*
G01X33100Y111750D02*
Y119950D01*
G01X41400Y119847D02*
X36953D01*
X36850Y119950D01*
X33100D01*
G01Y127450D02*
X37642D01*
X37939Y127153D01*
X41400D01*
G01X37547Y134500D02*
X32500D01*
G01X34800Y-37850D02*
X43100D01*
G01X34300Y-5750D02*
X42700D01*
G01X34000Y9800D02*
Y18050D01*
G01Y25550D02*
X42600D01*
G01X44100Y58850D02*
X39450D01*
X39350Y58950D01*
X35600D01*
G01X44987Y141660D02*
X44199D01*
X41339Y138800D01*
X38386D01*
X37547Y137961D01*
Y134500D01*
G01X44387Y88060D02*
X39600D01*
G01X44987Y149140D02*
X41960D01*
X41750Y149350D01*
X38000D01*
G01X42700Y-13250D02*
Y-15650D01*
X40750Y-17600D01*
G01X44387Y95540D02*
Y96834D01*
X41250Y99971D01*
Y103800D01*
G01X41147Y111800D02*
Y107653D01*
X41250Y107550D01*
Y103800D01*
G01X49400Y119847D02*
X41400D01*
G01Y127153D02*
X49400D01*
G01X43100Y-45350D02*
Y-49500D01*
G01Y-37850D02*
Y-34291D01*
X43441Y-33950D01*
Y-30750D01*
G01X45141Y2450D02*
Y-909D01*
X42700Y-3350D01*
Y-5750D01*
G01X42600Y18050D02*
Y12800D01*
G01Y25550D02*
Y28009D01*
X44441Y29850D01*
Y33050D01*
G01X44100Y51350D02*
Y46300D01*
G01X45641Y66150D02*
Y62791D01*
X44100Y61250D01*
Y58850D01*
G01X48200Y73250D02*
X43550D01*
G01X44387Y88060D02*
Y84721D01*
X44747Y84361D01*
Y80900D01*
G01X62600Y149350D02*
Y162811D01*
X42806Y182605D01*
G01X46000Y-23650D02*
Y-19000D01*
G01X44853Y134500D02*
X50400D01*
G01X55813Y141660D02*
X52040D01*
X49200Y144500D01*
Y147896D01*
X47956Y149140D01*
X44987D01*
G01X51700Y-37850D02*
Y-32500D01*
X49950Y-30750D01*
X48559D01*
G01X47700Y9550D02*
X51550D01*
G01X47000Y40150D02*
X51150D01*
G01X55213Y88060D02*
X49540D01*
X47700Y89900D01*
Y99000D01*
X48750Y100050D01*
Y103800D01*
G01X48453Y111800D02*
Y107847D01*
X48750Y107550D01*
Y103800D01*
G01X86395Y4506D02*
X75307D01*
X57551Y-13250D01*
X51000D01*
G01X50259Y2450D02*
Y-2609D01*
X51000Y-3350D01*
Y-5750D01*
G01X86395Y24506D02*
X70895D01*
X64439Y18050D01*
X51000D01*
G01Y25550D02*
Y27950D01*
X52150Y29100D01*
Y32050D01*
X51150Y33050D01*
X49559D01*
G01X52500Y58850D02*
Y61250D01*
X53250Y62000D01*
Y65150D01*
X52250Y66150D01*
X50759D01*
G01X50500Y91800D02*
X55213D01*
G01X49400Y127153D02*
X52732D01*
X55213Y124672D01*
Y95540D01*
G01X50200Y151700D02*
X51500Y150400D01*
Y146300D01*
X52400Y145400D01*
X55813D01*
G01X86395Y-15494D02*
X70895D01*
X64300Y-22089D01*
Y-40600D01*
X59550Y-45350D01*
X51700D01*
G01X86395Y44506D02*
X75095D01*
X68251Y51350D01*
X52500D01*
G01X52053Y80900D02*
Y74247D01*
X53300Y73000D01*
G01X52806Y182605D02*
X71661Y163750D01*
X83600D01*
G01X58200Y80500D02*
X60100Y82400D01*
Y86400D01*
X58440Y88060D01*
X55213D01*
G01X55813Y149140D02*
X56638D01*
X59350Y146428D01*
Y143242D01*
X60742Y141850D01*
X62600D01*
G01X57853Y-72253D02*
X60186D01*
X60233Y-72300D01*
X62524D01*
G01X64700Y111350D02*
X58450D01*
G01X58000Y127450D02*
Y122900D01*
G01X66600Y127347D02*
X61853D01*
X61750Y127450D01*
X58000D01*
G01X66600Y134653D02*
X62047D01*
X61750Y134950D01*
X58000D01*
G01X62947Y89200D02*
Y81453D01*
G01X62387Y96260D02*
Y93221D01*
X62947Y92661D01*
Y89200D01*
G01X72447Y111000D02*
X69915D01*
X66615Y107700D01*
X63300D01*
X62387Y106787D01*
Y103740D01*
G01X64700Y118850D02*
X69700D01*
X69950Y118600D01*
X72350D01*
G01X66876Y-72300D02*
X70800D01*
G01X79753Y111000D02*
Y107539D01*
X78514Y106300D01*
X69700D01*
X68800Y105400D01*
Y97200D01*
X69740Y96260D01*
X73213D01*
G01X74700Y127347D02*
X66600D01*
G01X74700Y134653D02*
X66600D01*
G01X70253Y89200D02*
X75500D01*
G01X72350Y118600D02*
Y114558D01*
X72447Y114461D01*
Y111000D01*
G01X74700Y134653D02*
Y137550D01*
X73700Y138550D01*
X73200D01*
X72300Y139450D01*
Y141850D01*
G01X79387Y149040D02*
X76360D01*
X76050Y149350D01*
X72300D01*
G01X73213Y96260D02*
X77440D01*
X79500Y94200D01*
Y85600D01*
X77600Y83700D01*
G01X73213Y100000D02*
X78600D01*
G01X74700Y134653D02*
X78161D01*
X79000Y133814D01*
Y128400D01*
X83800Y123600D01*
Y106400D01*
X81140Y103740D01*
X73213D01*
G01X79850Y118600D02*
Y114558D01*
X79753Y114461D01*
Y111000D01*
G01X82547Y134300D02*
X82966Y134719D01*
Y136800D01*
X81966Y137800D01*
X80966D01*
X79387Y139379D01*
Y141560D01*
G01Y149040D02*
X82860D01*
X85500Y146400D01*
Y143304D01*
X87244Y141560D01*
X90213D01*
G01X82547Y134300D02*
Y129953D01*
X83500Y129000D01*
G01X90213Y149040D02*
Y153587D01*
X87550Y156250D01*
X83600D01*
G01X89853Y134300D02*
Y127947D01*
G01X90213Y145300D02*
X94900D01*
M02*
