G04 ================== begin FILE IDENTIFICATION RECORD ==================*
G04 Layout Name:  ftf_pcb.brd*
G04 Film Name:    PCB12.12_SILK_TOP*
G04 File Format:  Gerber RS274X*
G04 File Origin:  Cadence Allegro 22.1-P001*
G04 Origin Date:  Thu Dec 12 21:13:42 2024*
G04 *
G04 Layer:  PACKAGE GEOMETRY/SILKSCREEN_TOP*
G04 Layer:  MANUFACTURING/AUTOSILK_TOP*
G04 *
G04 Offset:    (0.00 0.00)*
G04 Mirror:    No*
G04 Mode:      Positive*
G04 Rotation:  0*
G04 FullContactRelief:  No*
G04 UndefLineWidth:     5.00*
G04 ================== end FILE IDENTIFICATION RECORD ====================*
%FSLAX25Y25*MOIN*%
%IR0*IPPOS*OFA0.00000B0.00000*MIA0B0*SFA1.00000B1.00000*%
%ADD10C,.02*%
%ADD11C,.005*%
%ADD12C,.006*%
%ADD13C,.00787*%
G75*
%LPD*%
G75*
G36*
G01X-95682Y37734D02*
Y39234D01*
X-94682D01*
Y37734D01*
X-95682D01*
G37*
G36*
G01X-78771Y17418D02*
Y16418D01*
X-80271D01*
Y17418D01*
X-78771D01*
G37*
G36*
G01X-76803Y57582D02*
Y58582D01*
X-78303D01*
Y57582D01*
X-76803D01*
G37*
G36*
G01X-61450Y-60348D02*
Y-61848D01*
X-60450D01*
Y-60348D01*
X-61450D01*
G37*
G36*
G01X-53518Y43640D02*
Y45140D01*
X-54518D01*
Y43640D01*
X-53518D01*
G37*
G36*
G01X-2466Y3700D02*
X-2749Y3400D01*
X-14329D01*
X-25909D01*
X-26155Y3155D01*
G03X-26287Y2990I704J-698D01*
G03X-26359Y2824I461J-298D01*
G03X-26392Y2589I1140J-280D01*
G03X-26400Y2155I11360J-426D01*
G01Y1400D01*
X-28257D01*
G03X-29039Y1393I-2J-43418D01*
G03X-29666Y1371I326J-18226D01*
G03X-30156Y1339I972J-18645D01*
G03X-30315Y1292I33J-403D01*
G03X-30578Y1013I285J-532D01*
G03X-30720Y527I1541J-714D01*
G03X-30786Y-354I7313J-991D01*
G03X-30800Y-2297I133635J-1934D01*
G01Y-5100D01*
X-33132D01*
G03X-34304Y-5107I-9J-96622D01*
G03X-35072Y-5132I233J-18969D01*
G03X-35606Y-5176I471J-8981D01*
G03X-35967Y-5249I232J-2077D01*
G03X-36774Y-5640I792J-2662D01*
G03X-37428Y-6273I1685J-2395D01*
G03X-37853Y-7072I2315J-1744D01*
G03X-38000Y-7948I2540J-877D01*
G03X-37988Y-8218I3153J5D01*
G03X-37953Y-8521I5054J430D01*
G03X-37902Y-8809I4759J694D01*
G03X-37841Y-9032I1861J389D01*
G03X-37604Y-9514I2002J685D01*
G03X-37221Y-10002I3104J2042D01*
G03X-36757Y-10423I2763J2579D01*
G03X-36278Y-10709I1455J1893D01*
G03X-35888Y-10844I976J2188D01*
G03X-35469Y-10916I666J2619D01*
G03X-34810Y-10953I869J9583D01*
G03X-33281Y-10981I4575J208074D01*
G01X-30811Y-11018D01*
X-30781Y-13967D01*
X-30750Y-16917D01*
X-30423Y-17208D01*
X-30097Y-17500D01*
X-28248D01*
X-26400D01*
Y-18208D01*
G03X-26391Y-18629I9805J-1D01*
G03X-26354Y-18851I934J42D01*
G03X-26272Y-19017I508J147D01*
G03X-26108Y-19208I1362J1004D01*
G01X-25815Y-19500D01*
X-22858D01*
X-19900D01*
Y-21450D01*
Y-23400D01*
X-22355D01*
G03X-24121Y-23415I29J-107419D01*
G03X-24851Y-23487I67J-4413D01*
G03X-25243Y-23659I171J-922D01*
G03X-25492Y-23980I461J-615D01*
G03X-25560Y-24259I861J-358D01*
G03X-25536Y-24537I825J-69D01*
G03X-25421Y-24791I800J209D01*
G03X-25225Y-25002I772J521D01*
G03X-24869Y-25133I381J485D01*
G03X-23465Y-25174I2339J56035D01*
G03X-20901Y-25196I2697J164864D01*
G01X-13195Y-25200D01*
X-1418D01*
X-1159Y-24892D01*
G03X-976Y-24600I-944J795D01*
G03X-910Y-24303I-692J310D01*
G03X-967Y-24011I-721J11D01*
G03X-1141Y-23731I-983J-417D01*
G01X-1382Y-23450D01*
X-3991Y-23420D01*
X-6600Y-23391D01*
Y-21445D01*
Y-19500D01*
X-4645D01*
X-2690D01*
X-2454Y-19775D01*
X-2218Y-20050D01*
X316Y-20078D01*
G03X1941Y-20092I3124J268308D01*
G03X2570Y-20072I37J8728D01*
G03X2952Y-20010I-137J2052D01*
G03X3299Y-19878I-436J1669D01*
G03X4009Y-19281I-927J1823D01*
G03X4575Y-18285I-3677J2748D01*
G03X5029Y-16834I-7951J3284D01*
G03X5394Y-14808I-27476J5996D01*
G03X5584Y-13250I-38113J5439D01*
G03X5709Y-11700I-36828J3750D01*
G03X5778Y-9992I-45754J2704D01*
G03X5800Y-7944I-93934J2033D01*
G03X5657Y-3392I-73063J-17D01*
G03X5202Y41I-24873J-1550D01*
G03X4464Y2473I-13403J-2739D01*
G03X3406Y3774I-2669J-1090D01*
G03X3122Y3906I-556J-824D01*
G03X2763Y3970I-498J-1752D01*
G03X2133Y3995I-668J-8892D01*
G03X444Y4000I-1757J-308190D01*
G01X-2183D01*
X-2466Y3700D01*
G37*
G36*
G01D02*
X-2749Y3400D01*
X-14329D01*
X-25909D01*
X-26155Y3155D01*
G03X-26287Y2990I704J-698D01*
G03X-26359Y2824I461J-298D01*
G03X-26392Y2589I1140J-280D01*
G03X-26400Y2155I11360J-426D01*
G01Y1400D01*
X-28257D01*
G03X-29039Y1393I-2J-43418D01*
G03X-29666Y1371I326J-18226D01*
G03X-30156Y1339I972J-18645D01*
G03X-30315Y1292I33J-403D01*
G03X-30578Y1013I285J-532D01*
G03X-30720Y527I1541J-714D01*
G03X-30786Y-354I7313J-991D01*
G03X-30800Y-2297I133635J-1934D01*
G01Y-5100D01*
X-33132D01*
G03X-34304Y-5107I-9J-96622D01*
G03X-35072Y-5132I233J-18969D01*
G03X-35606Y-5176I471J-8981D01*
G03X-35967Y-5249I232J-2077D01*
G03X-36774Y-5640I792J-2662D01*
G03X-37428Y-6273I1685J-2395D01*
G03X-37853Y-7072I2315J-1744D01*
G03X-38000Y-7948I2540J-877D01*
G03X-37988Y-8218I3153J5D01*
G03X-37953Y-8521I5054J430D01*
G03X-37902Y-8809I4759J694D01*
G03X-37841Y-9032I1861J389D01*
G03X-37604Y-9514I2002J685D01*
G03X-37221Y-10002I3104J2042D01*
G03X-36757Y-10423I2763J2579D01*
G03X-36278Y-10709I1455J1893D01*
G03X-35888Y-10844I976J2188D01*
G03X-35469Y-10916I666J2619D01*
G03X-34810Y-10953I869J9583D01*
G03X-33281Y-10981I4575J208074D01*
G01X-30811Y-11018D01*
X-30781Y-13967D01*
X-30750Y-16917D01*
X-30423Y-17208D01*
X-30097Y-17500D01*
X-28248D01*
X-26400D01*
Y-18208D01*
G03X-26391Y-18629I9805J-1D01*
G03X-26354Y-18851I934J42D01*
G03X-26272Y-19017I508J147D01*
G03X-26108Y-19208I1362J1004D01*
G01X-25815Y-19500D01*
X-22858D01*
X-19900D01*
Y-21450D01*
Y-23400D01*
X-22355D01*
G03X-24121Y-23415I29J-107419D01*
G03X-24851Y-23487I67J-4413D01*
G03X-25243Y-23659I171J-922D01*
G03X-25492Y-23980I461J-615D01*
G03X-25560Y-24259I861J-358D01*
G03X-25536Y-24537I825J-69D01*
G03X-25421Y-24791I800J209D01*
G03X-25225Y-25002I772J521D01*
G03X-24869Y-25133I381J485D01*
G03X-23465Y-25174I2339J56035D01*
G03X-20901Y-25196I2697J164864D01*
G01X-13195Y-25200D01*
X-1418D01*
X-1159Y-24892D01*
G03X-976Y-24600I-944J795D01*
G03X-910Y-24303I-692J310D01*
G03X-967Y-24011I-721J11D01*
G03X-1141Y-23731I-983J-417D01*
G01X-1382Y-23450D01*
X-3991Y-23420D01*
X-6600Y-23391D01*
Y-21445D01*
Y-19500D01*
X-4645D01*
X-2690D01*
X-2454Y-19775D01*
X-2218Y-20050D01*
X316Y-20078D01*
G03X1941Y-20092I3124J268308D01*
G03X2570Y-20072I37J8728D01*
G03X2952Y-20010I-137J2052D01*
G03X3299Y-19878I-436J1669D01*
G03X4009Y-19281I-927J1823D01*
G03X4575Y-18285I-3677J2748D01*
G03X5029Y-16834I-7951J3284D01*
G03X5394Y-14808I-27476J5996D01*
G03X5584Y-13250I-38113J5439D01*
G03X5709Y-11700I-36828J3750D01*
G03X5778Y-9992I-45754J2704D01*
G03X5800Y-7944I-93934J2033D01*
G03X5657Y-3392I-73063J-17D01*
G03X5202Y41I-24873J-1550D01*
G03X4464Y2473I-13403J-2739D01*
G03X3406Y3774I-2669J-1090D01*
G03X3122Y3906I-556J-824D01*
G03X2763Y3970I-498J-1752D01*
G03X2133Y3995I-668J-8892D01*
G03X444Y4000I-1757J-308190D01*
G01X-2183D01*
X-2466Y3700D01*
G37*
G36*
G01X-23150Y-57789D02*
Y-59289D01*
X-24150D01*
Y-57789D01*
X-23150D01*
G37*
G36*
G01X-30800Y-8000D02*
Y-9100D01*
X-33095D01*
G02X-34076Y-9093I7J69738D01*
G02X-34845Y-9071I381J26761D01*
G02X-35438Y-9039I1170J27196D01*
G02X-35629Y-8991I35J545D01*
G02X-35933Y-8745I323J709D01*
G02X-36138Y-8340I1091J807D01*
G02X-36199Y-7884I1336J411D01*
G02X-36094Y-7488I897J-26D01*
G02X-36031Y-7398I407J-218D01*
G02X-35925Y-7291I1184J-1067D01*
G02X-35798Y-7184I1226J-1326D01*
G02X-35669Y-7095I897J-1162D01*
G02X-35404Y-6987I469J-770D01*
G02X-35041Y-6931I545J-2325D01*
G02X-34431Y-6906I679J-9114D01*
G02X-33075Y-6900I1434J-170750D01*
G01X-30800D01*
Y-8000D01*
G37*
G36*
G01D02*
Y-9100D01*
X-33095D01*
G02X-34076Y-9093I7J69738D01*
G02X-34845Y-9071I381J26761D01*
G02X-35438Y-9039I1170J27196D01*
G02X-35629Y-8991I35J545D01*
G02X-35933Y-8745I323J709D01*
G02X-36138Y-8340I1091J807D01*
G02X-36199Y-7884I1336J411D01*
G02X-36094Y-7488I897J-26D01*
G02X-36031Y-7398I407J-218D01*
G02X-35925Y-7291I1184J-1067D01*
G02X-35798Y-7184I1226J-1326D01*
G02X-35669Y-7095I897J-1162D01*
G02X-35404Y-6987I469J-770D01*
G02X-35041Y-6931I545J-2325D01*
G02X-34431Y-6906I679J-9114D01*
G02X-33075Y-6900I1434J-170750D01*
G01X-30800D01*
Y-8000D01*
G37*
G36*
G01X-26400Y-8050D02*
Y-15700D01*
X-27650D01*
X-28900D01*
Y-8050D01*
Y-400D01*
X-27650D01*
X-26400D01*
Y-8050D01*
G37*
G36*
G01D02*
Y-15700D01*
X-27650D01*
X-28900D01*
Y-8050D01*
Y-400D01*
X-27650D01*
X-26400D01*
Y-8050D01*
G37*
G36*
G01X-22100D02*
Y-17700D01*
X-23350D01*
X-24600D01*
Y-8050D01*
Y1600D01*
X-23350D01*
X-22100D01*
Y-8050D01*
G37*
G36*
G01D02*
Y-17700D01*
X-23350D01*
X-24600D01*
Y-8050D01*
Y1600D01*
X-23350D01*
X-22100D01*
Y-8050D01*
G37*
G36*
G01X-2700D02*
Y-17700D01*
X-11500D01*
X-20300D01*
Y-8050D01*
Y1600D01*
X-11500D01*
X-2700D01*
Y-8050D01*
G37*
G36*
G01D02*
Y-17700D01*
X-11500D01*
X-20300D01*
Y-8050D01*
Y1600D01*
X-11500D01*
X-2700D01*
Y-8050D01*
G37*
G36*
G01X-8400Y-21450D02*
Y-23400D01*
X-13250D01*
X-18100D01*
Y-21450D01*
Y-19500D01*
X-13250D01*
X-8400D01*
Y-21450D01*
G37*
G36*
G01D02*
Y-23400D01*
X-13250D01*
X-18100D01*
Y-21450D01*
Y-19500D01*
X-13250D01*
X-8400D01*
Y-21450D01*
G37*
G36*
G01X2800Y1500D02*
G02X2894Y1281I-1604J-818D01*
G02X3015Y917I-10387J-3655D01*
G02X3139Y497I-11862J-3730D01*
G02X3248Y75I-11762J-3263D01*
G02X3612Y-1853I-20486J-4866D01*
G02X3852Y-4060I-34044J-4819D01*
G02X3971Y-6578I-44306J-3356D01*
G02X3970Y-9450I-74788J-1410D01*
G02X3869Y-12102I-70881J1372D01*
G02X3672Y-14349I-37061J2117D01*
G02X3385Y-16206I-26020J3071D01*
G02X3002Y-17645I-10310J1973D01*
G02X2748Y-18249I-4718J1629D01*
G02X2494Y-18490I-456J227D01*
G02X2065Y-18584I-458J1063D01*
G02X785Y-18600I-1284J51527D01*
G01X-900D01*
Y-8350D01*
Y1900D01*
X848D01*
X2596D01*
X2800Y1500D01*
G37*
G36*
G01D02*
G02X2894Y1281I-1604J-818D01*
G02X3015Y917I-10387J-3655D01*
G02X3139Y497I-11862J-3730D01*
G02X3248Y75I-11762J-3263D01*
G02X3612Y-1853I-20486J-4866D01*
G02X3852Y-4060I-34044J-4819D01*
G02X3971Y-6578I-44306J-3356D01*
G02X3970Y-9450I-74788J-1410D01*
G02X3869Y-12102I-70881J1372D01*
G02X3672Y-14349I-37061J2117D01*
G02X3385Y-16206I-26020J3071D01*
G02X3002Y-17645I-10310J1973D01*
G02X2748Y-18249I-4718J1629D01*
G02X2494Y-18490I-456J227D01*
G02X2065Y-18584I-458J1063D01*
G02X785Y-18600I-1284J51527D01*
G01X-900D01*
Y-8350D01*
Y1900D01*
X848D01*
X2596D01*
X2800Y1500D01*
G37*
G36*
G01X-18308Y-13392D02*
G03X-18438Y-13542I1030J-1024D01*
G03X-18529Y-13690I691J-527D01*
G03X-18582Y-13842I659J-315D01*
G03X-18600Y-14000I683J-158D01*
G03X-18582Y-14158I701J0D01*
G03X-18529Y-14310I712J163D01*
G03X-18438Y-14458I782J379D01*
G03X-18308Y-14608I1160J874D01*
G01X-18015Y-14900D01*
X-11500D01*
X-4985D01*
X-4692Y-14608D01*
G03X-4473Y-14308I-863J860D01*
G03X-4398Y-14000I-593J307D01*
G03X-4473Y-13692I-668J1D01*
G03X-4692Y-13392I-1082J-560D01*
G01X-4985Y-13100D01*
X-11500D01*
X-18015D01*
X-18308Y-13392D01*
G37*
G36*
G01D02*
G03X-18438Y-13542I1030J-1024D01*
G03X-18529Y-13690I691J-527D01*
G03X-18582Y-13842I659J-315D01*
G03X-18600Y-14000I683J-158D01*
G03X-18582Y-14158I701J0D01*
G03X-18529Y-14310I712J163D01*
G03X-18438Y-14458I782J379D01*
G03X-18308Y-14608I1160J874D01*
G01X-18015Y-14900D01*
X-11500D01*
X-4985D01*
X-4692Y-14608D01*
G03X-4473Y-14308I-863J860D01*
G03X-4398Y-14000I-593J307D01*
G03X-4473Y-13692I-668J1D01*
G03X-4692Y-13392I-1082J-560D01*
G01X-4985Y-13100D01*
X-11500D01*
X-18015D01*
X-18308Y-13392D01*
G37*
G36*
G01X-18064Y-9199D02*
G03X-18401Y-9446I319J-788D01*
G03X-18573Y-9819I615J-510D01*
G03X-18539Y-10238I830J-143D01*
G03X-18308Y-10608I919J317D01*
G01X-18015Y-10900D01*
X-11483Y-10897D01*
G03X-6852Y-10888I-829J1617910D01*
G03X-5507Y-10841I-69J21252D01*
G03X-4853Y-10714I-181J2679D01*
G03X-4516Y-10432I-181J559D01*
G03X-4418Y-10158I-897J475D01*
G03X-4413Y-9890I-715J147D01*
G03X-4506Y-9634I-751J-128D01*
G03X-4692Y-9392I-1025J-595D01*
G01X-4985Y-9100D01*
X-11417Y-9106D01*
G03X-13899Y-9115I556J-495502D01*
G03X-16023Y-9136I1577J-266887D01*
G01X-17890Y-9164D01*
G03X-18064Y-9199I7J-485D01*
G37*
G36*
G01D02*
G03X-18401Y-9446I319J-788D01*
G03X-18573Y-9819I615J-510D01*
G03X-18539Y-10238I830J-143D01*
G03X-18308Y-10608I919J317D01*
G01X-18015Y-10900D01*
X-11483Y-10897D01*
G03X-6852Y-10888I-829J1617910D01*
G03X-5507Y-10841I-69J21252D01*
G03X-4853Y-10714I-181J2679D01*
G03X-4516Y-10432I-181J559D01*
G03X-4418Y-10158I-897J475D01*
G03X-4413Y-9890I-715J147D01*
G03X-4506Y-9634I-751J-128D01*
G03X-4692Y-9392I-1025J-595D01*
G01X-4985Y-9100D01*
X-11417Y-9106D01*
G03X-13899Y-9115I556J-495502D01*
G03X-16023Y-9136I1577J-266887D01*
G01X-17890Y-9164D01*
G03X-18064Y-9199I7J-485D01*
G37*
G36*
G01X-18170Y-5296D02*
G03X-18462Y-5597I434J-713D01*
G03X-18576Y-6008I767J-434D01*
G03X-18485Y-6433I921J-25D01*
G03X-18209Y-6772I852J411D01*
G03X-18021Y-6838I195J256D01*
G03X-16675Y-6868I4805J185369D01*
G03X-14747Y-6890I2457J130871D01*
G03X-11470Y-6897I3738J983023D01*
G01X-4891Y-6900D01*
X-4645Y-6655D01*
G03X-4489Y-6430I-557J553D01*
G03X-4408Y-6153I-872J405D01*
G03X-4412Y-5862I-973J132D01*
G03X-4503Y-5594I-857J-141D01*
G03X-4861Y-5296I-546J-292D01*
G03X-5569Y-5161I-920J-2901D01*
G03X-6999Y-5108I-1509J-21392D01*
G03X-11520Y-5100I-4475J-1251368D01*
G03X-15547Y-5105I478J-2006351D01*
G03X-17016Y-5128I109J-53858D01*
G03X-17809Y-5176I363J-12568D01*
G03X-18170Y-5296I79J-840D01*
G37*
G36*
G01D02*
G03X-18462Y-5597I434J-713D01*
G03X-18576Y-6008I767J-434D01*
G03X-18485Y-6433I921J-25D01*
G03X-18209Y-6772I852J411D01*
G03X-18021Y-6838I195J256D01*
G03X-16675Y-6868I4805J185369D01*
G03X-14747Y-6890I2457J130871D01*
G03X-11470Y-6897I3738J983023D01*
G01X-4891Y-6900D01*
X-4645Y-6655D01*
G03X-4489Y-6430I-557J553D01*
G03X-4408Y-6153I-872J405D01*
G03X-4412Y-5862I-973J132D01*
G03X-4503Y-5594I-857J-141D01*
G03X-4861Y-5296I-546J-292D01*
G03X-5569Y-5161I-920J-2901D01*
G03X-6999Y-5108I-1509J-21392D01*
G03X-11520Y-5100I-4475J-1251368D01*
G03X-15547Y-5105I478J-2006351D01*
G03X-17016Y-5128I109J-53858D01*
G03X-17809Y-5176I363J-12568D01*
G03X-18170Y-5296I79J-840D01*
G37*
G36*
G01X-18209Y-1328D02*
G03X-18485Y-1667I576J-750D01*
G03X-18576Y-2092I830J-400D01*
G03X-18462Y-2503I881J23D01*
G03X-18170Y-2804I726J412D01*
G03X-17809Y-2924I440J720D01*
G03X-17016Y-2972I1156J12520D01*
G03X-15547Y-2995I1578J53835D01*
G03X-11520Y-3000I4505J2006346D01*
G03X-7967Y-2995I-37J1288431D01*
G03X-6259Y-2973I-244J85253D01*
G03X-5224Y-2937I-914J41169D01*
G03X-4898Y-2849I-39J792D01*
G03X-4573Y-2582I-461J892D01*
G03X-4408Y-2219I-642J511D01*
G03X-4435Y-1823I-797J145D01*
G03X-4645Y-1465I-918J-298D01*
G01X-4890Y-1200D01*
X-11470Y-1203D01*
G03X-14747Y-1210I461J-983030D01*
G03X-16675Y-1232I529J-130893D01*
G03X-18021Y-1262I3459J-185399D01*
G03X-18209Y-1328I7J-322D01*
G37*
G36*
G01D02*
G03X-18485Y-1667I576J-750D01*
G03X-18576Y-2092I830J-400D01*
G03X-18462Y-2503I881J23D01*
G03X-18170Y-2804I726J412D01*
G03X-17809Y-2924I440J720D01*
G03X-17016Y-2972I1156J12520D01*
G03X-15547Y-2995I1578J53835D01*
G03X-11520Y-3000I4505J2006346D01*
G03X-7967Y-2995I-37J1288431D01*
G03X-6259Y-2973I-244J85253D01*
G03X-5224Y-2937I-914J41169D01*
G03X-4898Y-2849I-39J792D01*
G03X-4573Y-2582I-461J892D01*
G03X-4408Y-2219I-642J511D01*
G03X-4435Y-1823I-797J145D01*
G03X-4645Y-1465I-918J-298D01*
G01X-4890Y-1200D01*
X-11470Y-1203D01*
G03X-14747Y-1210I461J-983030D01*
G03X-16675Y-1232I529J-130893D01*
G03X-18021Y-1262I3459J-185399D01*
G03X-18209Y-1328I7J-322D01*
G37*
G54D10*
G01X-174300Y33600D02*
G02I-1500J0D01*
G01D02*
G03I-1500J0D01*
G01X-159800Y-10950D02*
G02I-1500J0D01*
G01D02*
G03I-1500J0D01*
G01X-153700Y-10750D02*
G02I-1500J0D01*
G01D02*
G03I-1500J0D01*
G01X-148177Y112100D02*
G02I-1502J0D01*
G01X-149679Y113602D02*
G03X-151180Y112100I1J-1502D01*
G01D02*
G03X-150640Y110946I1502J-1D01*
G01X-147500Y-10650D02*
G02I-1500J0D01*
G01D02*
G03I-1500J0D01*
G01X-149485Y110611D02*
G03X-148177Y112100I-194J1489D01*
G01D02*
G03X-149679Y113602I-1502J0D01*
G01X-141400Y-10550D02*
G02I-1500J0D01*
G01D02*
G03I-1500J0D01*
G01X-135500Y-10350D02*
G02I-1500J0D01*
G01D02*
G03I-1500J0D01*
G01X-127900Y11150D02*
G02I-1500J0D01*
G01D02*
G03I-1500J0D01*
G01X-122200D02*
G02I-1500J0D01*
G01D02*
G03I-1500J0D01*
G01X-116400D02*
G02I-1500J0D01*
G01D02*
G03I-1500J0D01*
G01X-110700D02*
G02I-1500J0D01*
G01D02*
G03I-1500J0D01*
G01X-31650Y57600D02*
G02I-1500J0D01*
G01D02*
G03I-1500J0D01*
G01Y63200D02*
G02I-1500J0D01*
G01D02*
G03I-1500J0D01*
G01Y68800D02*
G02I-1500J0D01*
G01D02*
G03I-1500J0D01*
G01Y74400D02*
G02I-1500J0D01*
G01D02*
G03I-1500J0D01*
G01X-18650Y-72600D02*
G02I-1500J0D01*
G01D02*
G03I-1500J0D01*
G01Y-66500D02*
G02I-1500J0D01*
G01D02*
G03I-1500J0D01*
G01X18500Y115050D02*
G02I-1500J0D01*
G01D02*
G03I-1500J0D01*
G01X24700Y114950D02*
G02I-1500J0D01*
G01D02*
G03I-1500J0D01*
G01X30850Y-74700D02*
G02I-1500J0D01*
G01X27979Y-74092D02*
G03X27850Y-74700I1371J-609D01*
G01D02*
G03X29350Y-76200I1500J0D01*
G01D02*
G03X30850Y-74700I0J1500D01*
G01D02*
G03X29350Y-73200I-1500J0D01*
G01D02*
G03X29133Y-73216I2J-1500D01*
G01X30950Y-63500D02*
G02I-1500J0D01*
G01X28007Y-63909D02*
G03X29450Y-65000I1443J409D01*
G01D02*
G03X30854Y-64027I0J1499D01*
G54D11*
G01X-139000Y169800D02*
X-57189D01*
Y194209D01*
X-139000D01*
Y169800D01*
G01D02*
X-57189D01*
Y194209D01*
X-139000D01*
Y169800D01*
G01X-23100Y170400D02*
X58711D01*
Y194809D01*
X-23100D01*
Y170400D01*
G01D02*
X58711D01*
Y194809D01*
X-23100D01*
Y170400D01*
G01X98600Y-31400D02*
Y50411D01*
X74191D01*
Y-31400D01*
X98600D01*
G01D02*
Y50411D01*
X74191D01*
Y-31400D01*
X98600D01*
G01X-177057Y-97458D02*
X-177287Y-97303D01*
X-177555Y-97200D01*
X-177862D01*
X-178207Y-97355D01*
X-178475Y-97613D01*
X-178667Y-97923D01*
X-178820Y-98440D01*
X-178858Y-98905D01*
X-178782Y-99370D01*
X-178667Y-99680D01*
X-178437Y-99990D01*
X-178168Y-100197D01*
X-177900Y-100300D01*
X-177632D01*
X-177363Y-100197D01*
X-177133Y-100042D01*
X-176942Y-99835D01*
G01X-175528Y-97717D02*
X-175298Y-97407D01*
X-175030Y-97252D01*
X-174723Y-97200D01*
X-174340Y-97303D01*
X-174072Y-97562D01*
X-173995Y-97872D01*
X-174033Y-98182D01*
X-174187Y-98440D01*
X-174953Y-98957D01*
X-175298Y-99318D01*
X-175528Y-99835D01*
X-175605Y-100300D01*
X-173995D01*
G01X-171240D02*
Y-97200D01*
X-172658Y-99422D01*
X-170742D01*
G01X-178410Y-29520D02*
X-176724Y-27247D01*
G01X-177567Y-26834D02*
Y-29934D01*
G01X-176724Y-29520D02*
X-178410Y-27247D01*
G01X-178717Y-28384D02*
X-176417D01*
G01X-177717Y155120D02*
X-177525Y154810D01*
X-177295Y154603D01*
X-177027Y154500D01*
X-176720Y154603D01*
X-176490Y154810D01*
X-176260Y155120D01*
X-176183Y155533D01*
Y157600D01*
G01X-173850Y154500D02*
Y157600D01*
X-174310Y156980D01*
G01Y154500D02*
X-173390D01*
G01X-172297Y-25093D02*
X-174570Y-23407D01*
G01X-174983Y-24250D02*
X-171883D01*
G01X-172297Y-23407D02*
X-174570Y-25093D01*
G01X-173433Y-25400D02*
Y-23100D01*
G01X-173367Y-82300D02*
Y-79200D01*
X-172408D01*
X-172102Y-79355D01*
X-171910Y-79562D01*
X-171833Y-79975D01*
X-171910Y-80388D01*
X-172140Y-80647D01*
X-172408Y-80802D01*
X-173367D01*
G01X-172408D02*
X-171833Y-82300D01*
G01X-170343Y-81680D02*
X-170113Y-82042D01*
X-169807Y-82248D01*
X-169462Y-82300D01*
X-169155Y-82248D01*
X-168848Y-81990D01*
X-168657Y-81680D01*
X-168618Y-81370D01*
X-168695Y-81008D01*
X-168963Y-80750D01*
X-169232Y-80647D01*
X-169577D01*
G01X-169232D02*
X-169002Y-80492D01*
X-168810Y-80233D01*
X-168733Y-79923D01*
X-168810Y-79613D01*
X-169002Y-79355D01*
X-169347Y-79200D01*
X-169692Y-79252D01*
X-170037Y-79458D01*
G01X-165940Y-82300D02*
Y-79200D01*
X-167358Y-81422D01*
X-165442D01*
G01X-171493Y-19200D02*
Y-16100D01*
X-170727D01*
X-170420Y-16255D01*
X-170190Y-16462D01*
X-169998Y-16772D01*
X-169845Y-17133D01*
X-169807Y-17650D01*
X-169845Y-18167D01*
X-169998Y-18528D01*
X-170190Y-18838D01*
X-170420Y-19045D01*
X-170727Y-19200D01*
X-171493D01*
G01X-167627D02*
X-167550Y-18528D01*
X-167435Y-17960D01*
X-167282Y-17443D01*
X-167090Y-16875D01*
X-166783Y-16100D01*
X-168317D01*
G01X-171320Y55433D02*
X-171010Y55625D01*
X-170803Y55855D01*
X-170700Y56123D01*
X-170803Y56430D01*
X-171010Y56660D01*
X-171320Y56890D01*
X-171733Y56967D01*
X-173800D01*
G01X-170700Y59300D02*
X-173800D01*
X-173180Y58840D01*
G01X-170700D02*
Y59760D01*
G01X-171165Y61557D02*
X-170907Y61787D01*
X-170752Y62055D01*
X-170700Y62400D01*
X-170803Y62745D01*
X-171010Y63013D01*
X-171372Y63205D01*
X-171785Y63243D01*
X-172198Y63167D01*
X-172457Y62975D01*
X-172663Y62707D01*
X-172715Y62438D01*
X-172663Y62170D01*
X-172457Y61825D01*
X-173800Y61940D01*
Y62975D01*
G01X-170357Y69342D02*
X-170587Y69497D01*
X-170855Y69600D01*
X-171162D01*
X-171507Y69445D01*
X-171775Y69187D01*
X-171967Y68877D01*
X-172120Y68360D01*
X-172158Y67895D01*
X-172082Y67430D01*
X-171967Y67120D01*
X-171737Y66810D01*
X-171468Y66603D01*
X-171200Y66500D01*
X-170932D01*
X-170663Y66603D01*
X-170433Y66758D01*
X-170242Y66965D01*
G01X-168828Y69083D02*
X-168598Y69393D01*
X-168330Y69548D01*
X-168023Y69600D01*
X-167640Y69497D01*
X-167372Y69238D01*
X-167295Y68928D01*
X-167333Y68618D01*
X-167487Y68360D01*
X-168253Y67843D01*
X-168598Y67482D01*
X-168828Y66965D01*
X-168905Y66500D01*
X-167295D01*
G01X-165843Y67120D02*
X-165613Y66758D01*
X-165307Y66552D01*
X-164962Y66500D01*
X-164655Y66552D01*
X-164348Y66810D01*
X-164157Y67120D01*
X-164118Y67430D01*
X-164195Y67792D01*
X-164463Y68050D01*
X-164732Y68153D01*
X-165077D01*
G01X-164732D02*
X-164502Y68308D01*
X-164310Y68567D01*
X-164233Y68877D01*
X-164310Y69187D01*
X-164502Y69445D01*
X-164847Y69600D01*
X-165192Y69548D01*
X-165537Y69342D01*
G01X-165610Y-49720D02*
X-163924Y-47447D01*
G01X-164767Y-47034D02*
Y-50134D01*
G01X-163924Y-49720D02*
X-165610Y-47447D01*
G01X-165917Y-48584D02*
X-163617D01*
G01X-162997Y-45293D02*
X-165270Y-43607D01*
G01X-165683Y-44450D02*
X-162583D01*
G01X-162997Y-43607D02*
X-165270Y-45293D01*
G01X-164133Y-45600D02*
Y-43300D01*
G01X-163367Y-82300D02*
Y-79200D01*
X-162408D01*
X-162102Y-79355D01*
X-161910Y-79562D01*
X-161833Y-79975D01*
X-161910Y-80388D01*
X-162140Y-80647D01*
X-162408Y-80802D01*
X-163367D01*
G01X-162408D02*
X-161833Y-82300D01*
G01X-160343Y-81680D02*
X-160113Y-82042D01*
X-159807Y-82248D01*
X-159462Y-82300D01*
X-159155Y-82248D01*
X-158848Y-81990D01*
X-158657Y-81680D01*
X-158618Y-81370D01*
X-158695Y-81008D01*
X-158963Y-80750D01*
X-159232Y-80647D01*
X-159577D01*
G01X-159232D02*
X-159002Y-80492D01*
X-158810Y-80233D01*
X-158733Y-79923D01*
X-158810Y-79613D01*
X-159002Y-79355D01*
X-159347Y-79200D01*
X-159692Y-79252D01*
X-160037Y-79458D01*
G01X-157243Y-81835D02*
X-157013Y-82093D01*
X-156745Y-82248D01*
X-156400Y-82300D01*
X-156055Y-82197D01*
X-155787Y-81990D01*
X-155595Y-81628D01*
X-155557Y-81215D01*
X-155633Y-80802D01*
X-155825Y-80543D01*
X-156093Y-80337D01*
X-156362Y-80285D01*
X-156630Y-80337D01*
X-156975Y-80543D01*
X-156860Y-79200D01*
X-155825D01*
G01X-164800Y6950D02*
X-159800D01*
G01X-164800Y5493D02*
Y8407D01*
G01X-159800Y10783D02*
X-164800D01*
Y12303D01*
X-164550Y12810D01*
X-163967Y13190D01*
X-163300Y13317D01*
X-162633Y13190D01*
X-162133Y12873D01*
X-161883Y12303D01*
Y10783D01*
G01X-159800Y17150D02*
X-164800D01*
X-163800Y16390D01*
G01X-159800D02*
Y17910D01*
G01X-160383Y21173D02*
X-159967Y21617D01*
X-159800Y22123D01*
X-159967Y22630D01*
X-160467Y23073D01*
X-161217Y23390D01*
X-161967Y23517D01*
X-162883D01*
X-163633Y23390D01*
X-164300Y23073D01*
X-164633Y22693D01*
X-164800Y22250D01*
X-164633Y21743D01*
X-164300Y21363D01*
X-163800Y21110D01*
X-163133Y20983D01*
X-162550Y21110D01*
X-161967Y21427D01*
X-161633Y21807D01*
X-161550Y22250D01*
X-161717Y22757D01*
X-162133Y23137D01*
X-162883Y23517D01*
G01X-160710Y-59820D02*
X-159024Y-57547D01*
G01X-159867Y-57134D02*
Y-60234D01*
G01X-159024Y-59820D02*
X-160710Y-57547D01*
G01X-161017Y-58684D02*
X-158717D01*
G01X-162493Y-40500D02*
Y-37400D01*
X-161727D01*
X-161420Y-37555D01*
X-161190Y-37762D01*
X-160998Y-38072D01*
X-160845Y-38433D01*
X-160807Y-38950D01*
X-160845Y-39467D01*
X-160998Y-39828D01*
X-161190Y-40138D01*
X-161420Y-40345D01*
X-161727Y-40500D01*
X-162493D01*
G01X-158550D02*
X-158282Y-40448D01*
X-157975Y-40293D01*
X-157783Y-40035D01*
X-157707Y-39673D01*
X-157783Y-39312D01*
X-158013Y-39002D01*
X-158358Y-38847D01*
X-158742D01*
X-158972Y-38743D01*
X-159163Y-38485D01*
X-159240Y-38123D01*
X-159125Y-37762D01*
X-158857Y-37503D01*
X-158550Y-37400D01*
X-158243Y-37503D01*
X-157975Y-37762D01*
X-157860Y-38123D01*
X-157937Y-38485D01*
X-158128Y-38743D01*
X-158358Y-38847D01*
X-158742D01*
X-159087Y-39002D01*
X-159317Y-39312D01*
X-159393Y-39673D01*
X-159317Y-40035D01*
X-159125Y-40293D01*
X-158818Y-40448D01*
X-158550Y-40500D01*
G01X-162193Y95100D02*
Y92878D01*
X-162040Y92413D01*
X-161733Y92103D01*
X-161350Y92000D01*
X-160967Y92103D01*
X-160660Y92413D01*
X-160507Y92878D01*
Y95100D01*
G01X-158978Y93292D02*
X-158710Y93653D01*
X-158480Y93860D01*
X-158173Y93963D01*
X-157905Y93860D01*
X-157713Y93653D01*
X-157560Y93343D01*
X-157522Y92982D01*
X-157560Y92672D01*
X-157713Y92362D01*
X-157943Y92103D01*
X-158212Y92000D01*
X-158518Y92103D01*
X-158787Y92413D01*
X-158940Y92878D01*
X-158978Y93395D01*
X-158902Y94067D01*
X-158787Y94428D01*
X-158595Y94790D01*
X-158327Y95048D01*
X-158058Y95100D01*
X-157790Y94997D01*
X-157598Y94738D01*
G01X-159957Y101842D02*
X-160187Y101997D01*
X-160455Y102100D01*
X-160762D01*
X-161107Y101945D01*
X-161375Y101687D01*
X-161567Y101377D01*
X-161720Y100860D01*
X-161758Y100395D01*
X-161682Y99930D01*
X-161567Y99620D01*
X-161337Y99310D01*
X-161068Y99103D01*
X-160800Y99000D01*
X-160532D01*
X-160263Y99103D01*
X-160033Y99258D01*
X-159842Y99465D01*
G01X-157700Y99000D02*
Y102100D01*
X-158160Y101480D01*
G01Y99000D02*
X-157240D01*
G01X-155252Y99362D02*
X-154983Y99103D01*
X-154677Y99000D01*
X-154370Y99103D01*
X-154102Y99413D01*
X-153910Y99878D01*
X-153833Y100343D01*
Y100912D01*
X-153910Y101377D01*
X-154102Y101790D01*
X-154332Y101997D01*
X-154600Y102100D01*
X-154907Y101997D01*
X-155137Y101790D01*
X-155290Y101480D01*
X-155367Y101067D01*
X-155290Y100705D01*
X-155098Y100343D01*
X-154868Y100137D01*
X-154600Y100085D01*
X-154293Y100188D01*
X-154063Y100447D01*
X-153833Y100912D01*
G01X-161567Y170000D02*
Y173100D01*
X-160608D01*
X-160302Y172945D01*
X-160110Y172738D01*
X-160033Y172325D01*
X-160110Y171912D01*
X-160340Y171653D01*
X-160608Y171498D01*
X-161567D01*
G01X-160608D02*
X-160033Y170000D01*
G01X-158428Y172583D02*
X-158198Y172893D01*
X-157930Y173048D01*
X-157623Y173100D01*
X-157240Y172997D01*
X-156972Y172738D01*
X-156895Y172428D01*
X-156933Y172118D01*
X-157087Y171860D01*
X-157853Y171343D01*
X-158198Y170982D01*
X-158428Y170465D01*
X-158505Y170000D01*
X-156895D01*
G01X-154600D02*
Y173100D01*
X-155060Y172480D01*
G01Y170000D02*
X-154140D01*
G01X-158793Y180200D02*
Y183300D01*
X-158027D01*
X-157720Y183145D01*
X-157490Y182938D01*
X-157298Y182628D01*
X-157145Y182267D01*
X-157107Y181750D01*
X-157145Y181233D01*
X-157298Y180872D01*
X-157490Y180562D01*
X-157720Y180355D01*
X-158027Y180200D01*
X-158793D01*
G01X-155693Y180665D02*
X-155463Y180407D01*
X-155195Y180252D01*
X-154850Y180200D01*
X-154505Y180303D01*
X-154237Y180510D01*
X-154045Y180872D01*
X-154007Y181285D01*
X-154083Y181698D01*
X-154275Y181957D01*
X-154543Y182163D01*
X-154812Y182215D01*
X-155080Y182163D01*
X-155425Y181957D01*
X-155310Y183300D01*
X-154275D01*
G01X-157343Y-70100D02*
Y-67000D01*
X-156577D01*
X-156270Y-67155D01*
X-156040Y-67362D01*
X-155848Y-67672D01*
X-155695Y-68033D01*
X-155657Y-68550D01*
X-155695Y-69067D01*
X-155848Y-69428D01*
X-156040Y-69738D01*
X-156270Y-69945D01*
X-156577Y-70100D01*
X-157343D01*
G01X-153400D02*
Y-67000D01*
X-153860Y-67620D01*
G01Y-70100D02*
X-152940D01*
G01X-150300D02*
Y-67000D01*
X-150760Y-67620D01*
G01Y-70100D02*
X-149840D01*
G01X-154597Y-55393D02*
X-156870Y-53707D01*
G01X-157283Y-54550D02*
X-154183D01*
G01X-154597Y-53707D02*
X-156870Y-55393D01*
G01X-155733Y-55700D02*
Y-53400D01*
G01X-157900Y6950D02*
X-152900D01*
G01X-157900Y5493D02*
Y8407D01*
G01X-152900Y10783D02*
X-157900D01*
Y12303D01*
X-157650Y12810D01*
X-157067Y13190D01*
X-156400Y13317D01*
X-155733Y13190D01*
X-155233Y12873D01*
X-154983Y12303D01*
Y10783D01*
G01X-152900Y17150D02*
X-157900D01*
X-156900Y16390D01*
G01X-152900D02*
Y17910D01*
G01X-153650Y20857D02*
X-153233Y21237D01*
X-152983Y21680D01*
X-152900Y22250D01*
X-153067Y22820D01*
X-153400Y23263D01*
X-153983Y23580D01*
X-154650Y23643D01*
X-155317Y23517D01*
X-155733Y23200D01*
X-156067Y22757D01*
X-156150Y22313D01*
X-156067Y21870D01*
X-155733Y21300D01*
X-157900Y21490D01*
Y23200D01*
G01X-154667Y51400D02*
Y54500D01*
X-153708D01*
X-153402Y54345D01*
X-153210Y54138D01*
X-153133Y53725D01*
X-153210Y53312D01*
X-153440Y53053D01*
X-153708Y52898D01*
X-154667D01*
G01X-153708D02*
X-153133Y51400D01*
G01X-150800D02*
Y54500D01*
X-151260Y53880D01*
G01Y51400D02*
X-150340D01*
G01X-147777D02*
X-147700Y52072D01*
X-147585Y52640D01*
X-147432Y53157D01*
X-147240Y53725D01*
X-146933Y54500D01*
X-148467D01*
G01X-151857Y-79958D02*
X-152087Y-79803D01*
X-152355Y-79700D01*
X-152662D01*
X-153007Y-79855D01*
X-153275Y-80113D01*
X-153467Y-80423D01*
X-153620Y-80940D01*
X-153658Y-81405D01*
X-153582Y-81870D01*
X-153467Y-82180D01*
X-153237Y-82490D01*
X-152968Y-82697D01*
X-152700Y-82800D01*
X-152432D01*
X-152163Y-82697D01*
X-151933Y-82542D01*
X-151742Y-82335D01*
G01X-150328Y-80217D02*
X-150098Y-79907D01*
X-149830Y-79752D01*
X-149523Y-79700D01*
X-149140Y-79803D01*
X-148872Y-80062D01*
X-148795Y-80372D01*
X-148833Y-80682D01*
X-148987Y-80940D01*
X-149753Y-81457D01*
X-150098Y-81818D01*
X-150328Y-82335D01*
X-150405Y-82800D01*
X-148795D01*
G01X-147343Y-82335D02*
X-147113Y-82593D01*
X-146845Y-82748D01*
X-146500Y-82800D01*
X-146155Y-82697D01*
X-145887Y-82490D01*
X-145695Y-82128D01*
X-145657Y-81715D01*
X-145733Y-81302D01*
X-145925Y-81043D01*
X-146193Y-80837D01*
X-146462Y-80785D01*
X-146730Y-80837D01*
X-147075Y-81043D01*
X-146960Y-79700D01*
X-145925D01*
G01X-153593Y-50400D02*
Y-47300D01*
X-152827D01*
X-152520Y-47455D01*
X-152290Y-47662D01*
X-152098Y-47972D01*
X-151945Y-48333D01*
X-151907Y-48850D01*
X-151945Y-49367D01*
X-152098Y-49728D01*
X-152290Y-50038D01*
X-152520Y-50245D01*
X-152827Y-50400D01*
X-153593D01*
G01X-150302Y-50038D02*
X-150033Y-50297D01*
X-149727Y-50400D01*
X-149420Y-50297D01*
X-149152Y-49987D01*
X-148960Y-49522D01*
X-148883Y-49057D01*
Y-48488D01*
X-148960Y-48023D01*
X-149152Y-47610D01*
X-149382Y-47403D01*
X-149650Y-47300D01*
X-149957Y-47403D01*
X-150187Y-47610D01*
X-150340Y-47920D01*
X-150417Y-48333D01*
X-150340Y-48695D01*
X-150148Y-49057D01*
X-149918Y-49263D01*
X-149650Y-49315D01*
X-149343Y-49212D01*
X-149113Y-48953D01*
X-148883Y-48488D01*
G01X-151793Y123000D02*
Y120778D01*
X-151640Y120313D01*
X-151333Y120003D01*
X-150950Y119900D01*
X-150567Y120003D01*
X-150260Y120313D01*
X-150107Y120778D01*
Y123000D01*
G01X-147390Y119900D02*
Y123000D01*
X-148808Y120778D01*
X-146892D01*
G01X-151700Y7050D02*
X-146700D01*
G01X-151700Y5593D02*
Y8507D01*
G01X-146700Y10883D02*
X-151700D01*
Y12403D01*
X-151450Y12910D01*
X-150867Y13290D01*
X-150200Y13417D01*
X-149533Y13290D01*
X-149033Y12973D01*
X-148783Y12403D01*
Y10883D01*
G01X-146700Y17250D02*
X-151700D01*
X-150700Y16490D01*
G01X-146700D02*
Y18010D01*
G01Y22223D02*
X-147783Y22350D01*
X-148700Y22540D01*
X-149533Y22793D01*
X-150450Y23110D01*
X-151700Y23617D01*
Y21083D01*
G01X-151443Y185497D02*
X-149757Y187770D01*
G01X-150600Y188183D02*
Y185083D01*
G01X-149757Y185497D02*
X-151443Y187770D01*
G01X-151750Y186633D02*
X-149450D01*
G01X-151443Y185497D02*
X-149757Y187770D01*
G01X-150600Y188183D02*
Y185083D01*
G01X-149757Y185497D02*
X-151443Y187770D01*
G01X-151750Y186633D02*
X-149450D01*
G01X-145600Y7150D02*
X-140600D01*
G01X-145600Y5693D02*
Y8607D01*
G01X-140600Y10983D02*
X-145600D01*
Y12503D01*
X-145350Y13010D01*
X-144767Y13390D01*
X-144100Y13517D01*
X-143433Y13390D01*
X-142933Y13073D01*
X-142683Y12503D01*
Y10983D01*
G01X-140600Y17350D02*
X-145600D01*
X-144600Y16590D01*
G01X-140600D02*
Y18110D01*
G01Y22450D02*
X-140683Y22893D01*
X-140933Y23400D01*
X-141350Y23717D01*
X-141933Y23843D01*
X-142517Y23717D01*
X-143017Y23337D01*
X-143267Y22767D01*
Y22133D01*
X-143433Y21753D01*
X-143850Y21437D01*
X-144433Y21310D01*
X-145017Y21500D01*
X-145433Y21943D01*
X-145600Y22450D01*
X-145433Y22957D01*
X-145017Y23400D01*
X-144433Y23590D01*
X-143850Y23463D01*
X-143433Y23147D01*
X-143267Y22767D01*
Y22133D01*
X-143017Y21563D01*
X-142517Y21183D01*
X-141933Y21057D01*
X-141350Y21183D01*
X-140933Y21500D01*
X-140683Y22007D01*
X-140600Y22450D01*
G01X-145467Y51900D02*
Y55000D01*
X-144508D01*
X-144202Y54845D01*
X-144010Y54638D01*
X-143933Y54225D01*
X-144010Y53812D01*
X-144240Y53553D01*
X-144508Y53398D01*
X-145467D01*
G01X-144508D02*
X-143933Y51900D01*
G01X-141600D02*
Y55000D01*
X-142060Y54380D01*
G01Y51900D02*
X-141140D01*
G01X-138500D02*
X-138232Y51952D01*
X-137925Y52107D01*
X-137733Y52365D01*
X-137657Y52727D01*
X-137733Y53088D01*
X-137963Y53398D01*
X-138308Y53553D01*
X-138692D01*
X-138922Y53657D01*
X-139113Y53915D01*
X-139190Y54277D01*
X-139075Y54638D01*
X-138807Y54897D01*
X-138500Y55000D01*
X-138193Y54897D01*
X-137925Y54638D01*
X-137810Y54277D01*
X-137887Y53915D01*
X-138078Y53657D01*
X-138308Y53553D01*
X-138692D01*
X-139037Y53398D01*
X-139267Y53088D01*
X-139343Y52727D01*
X-139267Y52365D01*
X-139075Y52107D01*
X-138768Y51952D01*
X-138500Y51900D01*
G01X-146017Y191120D02*
X-145825Y190810D01*
X-145595Y190603D01*
X-145327Y190500D01*
X-145020Y190603D01*
X-144790Y190810D01*
X-144560Y191120D01*
X-144483Y191533D01*
Y193600D01*
G01X-142227Y190500D02*
X-142150Y191172D01*
X-142035Y191740D01*
X-141882Y192257D01*
X-141690Y192825D01*
X-141383Y193600D01*
X-142917D01*
G01X-140497Y-75343D02*
X-142770Y-73657D01*
G01X-143183Y-74500D02*
X-140083D01*
G01X-140497Y-73657D02*
X-142770Y-75343D01*
G01X-141633Y-75650D02*
Y-73350D01*
G01X-143110Y-76270D02*
X-141424Y-73997D01*
G01X-142267Y-73584D02*
Y-76684D01*
G01X-141424Y-76270D02*
X-143110Y-73997D01*
G01X-143417Y-75134D02*
X-141117D01*
G01X-141867Y137200D02*
Y140300D01*
X-140908D01*
X-140602Y140145D01*
X-140410Y139938D01*
X-140333Y139525D01*
X-140410Y139112D01*
X-140640Y138853D01*
X-140908Y138698D01*
X-141867D01*
G01X-140908D02*
X-140333Y137200D01*
G01X-138000D02*
Y140300D01*
X-138460Y139680D01*
G01Y137200D02*
X-137540D01*
G01X-135743Y137820D02*
X-135513Y137458D01*
X-135207Y137252D01*
X-134862Y137200D01*
X-134555Y137252D01*
X-134248Y137510D01*
X-134057Y137820D01*
X-134018Y138130D01*
X-134095Y138492D01*
X-134363Y138750D01*
X-134632Y138853D01*
X-134977D01*
G01X-134632D02*
X-134402Y139008D01*
X-134210Y139267D01*
X-134133Y139577D01*
X-134210Y139887D01*
X-134402Y140145D01*
X-134747Y140300D01*
X-135092Y140248D01*
X-135437Y140042D01*
G01X-139700Y7350D02*
X-134700D01*
G01X-139700Y5893D02*
Y8807D01*
G01X-134700Y11183D02*
X-139700D01*
Y12703D01*
X-139450Y13210D01*
X-138867Y13590D01*
X-138200Y13717D01*
X-137533Y13590D01*
X-137033Y13273D01*
X-136783Y12703D01*
Y11183D01*
G01X-134700Y17550D02*
X-139700D01*
X-138700Y16790D01*
G01X-134700D02*
Y18310D01*
G01X-136783Y21447D02*
X-137367Y21890D01*
X-137700Y22270D01*
X-137867Y22777D01*
X-137700Y23220D01*
X-137367Y23537D01*
X-136867Y23790D01*
X-136283Y23853D01*
X-135783Y23790D01*
X-135283Y23537D01*
X-134867Y23157D01*
X-134700Y22713D01*
X-134867Y22207D01*
X-135367Y21763D01*
X-136117Y21510D01*
X-136950Y21447D01*
X-138033Y21573D01*
X-138617Y21763D01*
X-139200Y22080D01*
X-139617Y22523D01*
X-139700Y22967D01*
X-139533Y23410D01*
X-139117Y23727D01*
G01X-138757Y163142D02*
X-138987Y163297D01*
X-139255Y163400D01*
X-139562D01*
X-139907Y163245D01*
X-140175Y162987D01*
X-140367Y162677D01*
X-140520Y162160D01*
X-140558Y161695D01*
X-140482Y161230D01*
X-140367Y160920D01*
X-140137Y160610D01*
X-139868Y160403D01*
X-139600Y160300D01*
X-139332D01*
X-139063Y160403D01*
X-138833Y160558D01*
X-138642Y160765D01*
G01X-136500Y160300D02*
Y163400D01*
X-136960Y162780D01*
G01Y160300D02*
X-136040D01*
G01X-133400D02*
X-133132Y160352D01*
X-132825Y160507D01*
X-132633Y160765D01*
X-132557Y161127D01*
X-132633Y161488D01*
X-132863Y161798D01*
X-133208Y161953D01*
X-133592D01*
X-133822Y162057D01*
X-134013Y162315D01*
X-134090Y162677D01*
X-133975Y163038D01*
X-133707Y163297D01*
X-133400Y163400D01*
X-133093Y163297D01*
X-132825Y163038D01*
X-132710Y162677D01*
X-132787Y162315D01*
X-132978Y162057D01*
X-133208Y161953D01*
X-133592D01*
X-133937Y161798D01*
X-134167Y161488D01*
X-134243Y161127D01*
X-134167Y160765D01*
X-133975Y160507D01*
X-133668Y160352D01*
X-133400Y160300D01*
G01X-134110Y-66870D02*
X-132424Y-64597D01*
G01X-133267Y-64184D02*
Y-67284D01*
G01X-132424Y-66870D02*
X-134110Y-64597D01*
G01X-134417Y-65734D02*
X-132117D01*
G01X-131497Y-65943D02*
X-133770Y-64257D01*
G01X-134183Y-65100D02*
X-131083D01*
G01X-131497Y-64257D02*
X-133770Y-65943D01*
G01X-132633Y-66250D02*
Y-63950D01*
G01X-132957Y71203D02*
X-134643Y68930D01*
G01X-133800Y68517D02*
Y71617D01*
G01X-134643Y71203D02*
X-132957Y68930D01*
G01X-132650Y70067D02*
X-134950D01*
G01X-134743Y69197D02*
X-133057Y71470D01*
G01X-133900Y71883D02*
Y68783D01*
G01X-133057Y69197D02*
X-134743Y71470D01*
G01X-135050Y70333D02*
X-132750D01*
G01X-133543Y-60600D02*
Y-57500D01*
X-132777D01*
X-132470Y-57655D01*
X-132240Y-57862D01*
X-132048Y-58172D01*
X-131895Y-58533D01*
X-131857Y-59050D01*
X-131895Y-59567D01*
X-132048Y-59928D01*
X-132240Y-60238D01*
X-132470Y-60445D01*
X-132777Y-60600D01*
X-133543D01*
G01X-129600D02*
Y-57500D01*
X-130060Y-58120D01*
G01Y-60600D02*
X-129140D01*
G01X-126500Y-57500D02*
X-126807Y-57603D01*
X-127037Y-57862D01*
X-127190Y-58172D01*
X-127305Y-58585D01*
X-127343Y-59050D01*
X-127305Y-59515D01*
X-127190Y-59928D01*
X-127037Y-60238D01*
X-126807Y-60497D01*
X-126500Y-60600D01*
X-126193Y-60497D01*
X-125963Y-60238D01*
X-125810Y-59928D01*
X-125695Y-59515D01*
X-125657Y-59050D01*
X-125695Y-58585D01*
X-125810Y-58172D01*
X-125963Y-57862D01*
X-126193Y-57603D01*
X-126500Y-57500D01*
G01X-131867Y150500D02*
Y153600D01*
X-130908D01*
X-130602Y153445D01*
X-130410Y153238D01*
X-130333Y152825D01*
X-130410Y152412D01*
X-130640Y152153D01*
X-130908Y151998D01*
X-131867D01*
G01X-130908D02*
X-130333Y150500D01*
G01X-128000D02*
Y153600D01*
X-128460Y152980D01*
G01Y150500D02*
X-127540D01*
G01X-125552Y150862D02*
X-125283Y150603D01*
X-124977Y150500D01*
X-124670Y150603D01*
X-124402Y150913D01*
X-124210Y151378D01*
X-124133Y151843D01*
Y152412D01*
X-124210Y152877D01*
X-124402Y153290D01*
X-124632Y153497D01*
X-124900Y153600D01*
X-125207Y153497D01*
X-125437Y153290D01*
X-125590Y152980D01*
X-125667Y152567D01*
X-125590Y152205D01*
X-125398Y151843D01*
X-125168Y151637D01*
X-124900Y151585D01*
X-124593Y151688D01*
X-124363Y151947D01*
X-124133Y152412D01*
G01X-131700Y-16200D02*
X-126700D01*
G01X-131700Y-17657D02*
Y-14743D01*
G01X-126700Y-12367D02*
X-131700D01*
Y-10847D01*
X-131450Y-10340D01*
X-130867Y-9960D01*
X-130200Y-9833D01*
X-129533Y-9960D01*
X-129033Y-10277D01*
X-128783Y-10847D01*
Y-12367D01*
G01X-126700Y-6127D02*
X-127783Y-6000D01*
X-128700Y-5810D01*
X-129533Y-5557D01*
X-130450Y-5240D01*
X-131700Y-4733D01*
Y-7267D01*
G01X-127257Y96742D02*
X-127487Y96897D01*
X-127755Y97000D01*
X-128062D01*
X-128407Y96845D01*
X-128675Y96587D01*
X-128867Y96277D01*
X-129020Y95760D01*
X-129058Y95295D01*
X-128982Y94830D01*
X-128867Y94520D01*
X-128637Y94210D01*
X-128368Y94003D01*
X-128100Y93900D01*
X-127832D01*
X-127563Y94003D01*
X-127333Y94158D01*
X-127142Y94365D01*
G01X-125728Y96483D02*
X-125498Y96793D01*
X-125230Y96948D01*
X-124923Y97000D01*
X-124540Y96897D01*
X-124272Y96638D01*
X-124195Y96328D01*
X-124233Y96018D01*
X-124387Y95760D01*
X-125153Y95243D01*
X-125498Y94882D01*
X-125728Y94365D01*
X-125805Y93900D01*
X-124195D01*
G01X-122628Y96483D02*
X-122398Y96793D01*
X-122130Y96948D01*
X-121823Y97000D01*
X-121440Y96897D01*
X-121172Y96638D01*
X-121095Y96328D01*
X-121133Y96018D01*
X-121287Y95760D01*
X-122053Y95243D01*
X-122398Y94882D01*
X-122628Y94365D01*
X-122705Y93900D01*
X-121095D01*
G01X-127667Y144800D02*
Y147900D01*
X-126708D01*
X-126402Y147745D01*
X-126210Y147538D01*
X-126133Y147125D01*
X-126210Y146712D01*
X-126440Y146453D01*
X-126708Y146298D01*
X-127667D01*
G01X-126708D02*
X-126133Y144800D01*
G01X-123800D02*
Y147900D01*
X-124260Y147280D01*
G01Y144800D02*
X-123340D01*
G01X-121543Y145265D02*
X-121313Y145007D01*
X-121045Y144852D01*
X-120700Y144800D01*
X-120355Y144903D01*
X-120087Y145110D01*
X-119895Y145472D01*
X-119857Y145885D01*
X-119933Y146298D01*
X-120125Y146557D01*
X-120393Y146763D01*
X-120662Y146815D01*
X-120930Y146763D01*
X-121275Y146557D01*
X-121160Y147900D01*
X-120125D01*
G01X-126000Y-16200D02*
X-121000D01*
G01X-126000Y-17657D02*
Y-14743D01*
G01X-121000Y-12367D02*
X-126000D01*
Y-10847D01*
X-125750Y-10340D01*
X-125167Y-9960D01*
X-124500Y-9833D01*
X-123833Y-9960D01*
X-123333Y-10277D01*
X-123083Y-10847D01*
Y-12367D01*
G01X-121750Y-7393D02*
X-121333Y-7013D01*
X-121083Y-6570D01*
X-121000Y-6000D01*
X-121167Y-5430D01*
X-121500Y-4987D01*
X-122083Y-4670D01*
X-122750Y-4607D01*
X-123417Y-4733D01*
X-123833Y-5050D01*
X-124167Y-5493D01*
X-124250Y-5937D01*
X-124167Y-6380D01*
X-123833Y-6950D01*
X-126000Y-6760D01*
Y-5050D01*
G01X-125343Y164697D02*
X-123657Y166970D01*
G01X-124500Y167383D02*
Y164283D01*
G01X-123657Y164697D02*
X-125343Y166970D01*
G01X-125650Y165833D02*
X-123350D01*
G01X-125343Y164697D02*
X-123657Y166970D01*
G01X-124500Y167383D02*
Y164283D01*
G01X-123657Y164697D02*
X-125343Y166970D01*
G01X-125650Y165833D02*
X-123350D01*
G01X-120200Y-16200D02*
X-115200D01*
G01X-120200Y-17657D02*
Y-14743D01*
G01X-115200Y-12367D02*
X-120200D01*
Y-10847D01*
X-119950Y-10340D01*
X-119367Y-9960D01*
X-118700Y-9833D01*
X-118033Y-9960D01*
X-117533Y-10277D01*
X-117283Y-10847D01*
Y-12367D01*
G01Y-7203D02*
X-117867Y-6760D01*
X-118200Y-6380D01*
X-118367Y-5873D01*
X-118200Y-5430D01*
X-117867Y-5113D01*
X-117367Y-4860D01*
X-116783Y-4797D01*
X-116283Y-4860D01*
X-115783Y-5113D01*
X-115367Y-5493D01*
X-115200Y-5937D01*
X-115367Y-6443D01*
X-115867Y-6887D01*
X-116617Y-7140D01*
X-117450Y-7203D01*
X-118533Y-7077D01*
X-119117Y-6887D01*
X-119700Y-6570D01*
X-120117Y-6127D01*
X-120200Y-5683D01*
X-120033Y-5240D01*
X-119617Y-4923D01*
G01X-119603Y129543D02*
X-117330Y127857D01*
G01X-116917Y128700D02*
X-120017D01*
G01X-119603Y127857D02*
X-117330Y129543D01*
G01X-118467Y129850D02*
Y127550D01*
G01X-118293Y165100D02*
Y168200D01*
X-117527D01*
X-117220Y168045D01*
X-116990Y167838D01*
X-116798Y167528D01*
X-116645Y167167D01*
X-116607Y166650D01*
X-116645Y166133D01*
X-116798Y165772D01*
X-116990Y165462D01*
X-117220Y165255D01*
X-117527Y165100D01*
X-118293D01*
G01X-115193Y165720D02*
X-114963Y165358D01*
X-114657Y165152D01*
X-114312Y165100D01*
X-114005Y165152D01*
X-113698Y165410D01*
X-113507Y165720D01*
X-113468Y166030D01*
X-113545Y166392D01*
X-113813Y166650D01*
X-114082Y166753D01*
X-114427D01*
G01X-114082D02*
X-113852Y166908D01*
X-113660Y167167D01*
X-113583Y167477D01*
X-113660Y167787D01*
X-113852Y168045D01*
X-114197Y168200D01*
X-114542Y168148D01*
X-114887Y167942D01*
G01X-114500Y-16200D02*
X-109500D01*
G01X-114500Y-17657D02*
Y-14743D01*
G01X-109500Y-12367D02*
X-114500D01*
Y-10847D01*
X-114250Y-10340D01*
X-113667Y-9960D01*
X-113000Y-9833D01*
X-112333Y-9960D01*
X-111833Y-10277D01*
X-111583Y-10847D01*
Y-12367D01*
G01X-109500Y-6000D02*
X-109583Y-5557D01*
X-109833Y-5050D01*
X-110250Y-4733D01*
X-110833Y-4607D01*
X-111417Y-4733D01*
X-111917Y-5113D01*
X-112167Y-5683D01*
Y-6317D01*
X-112333Y-6697D01*
X-112750Y-7013D01*
X-113333Y-7140D01*
X-113917Y-6950D01*
X-114333Y-6507D01*
X-114500Y-6000D01*
X-114333Y-5493D01*
X-113917Y-5050D01*
X-113333Y-4860D01*
X-112750Y-4987D01*
X-112333Y-5303D01*
X-112167Y-5683D01*
Y-6317D01*
X-111917Y-6887D01*
X-111417Y-7267D01*
X-110833Y-7393D01*
X-110250Y-7267D01*
X-109833Y-6950D01*
X-109583Y-6443D01*
X-109500Y-6000D01*
G01X-115810Y127563D02*
X-114124Y129836D01*
G01X-114967Y130249D02*
Y127149D01*
G01X-114124Y127563D02*
X-115810Y129836D01*
G01X-116117Y128699D02*
X-113817D01*
G01X-109457Y56742D02*
X-109687Y56897D01*
X-109955Y57000D01*
X-110262D01*
X-110607Y56845D01*
X-110875Y56587D01*
X-111067Y56277D01*
X-111220Y55760D01*
X-111258Y55295D01*
X-111182Y54830D01*
X-111067Y54520D01*
X-110837Y54210D01*
X-110568Y54003D01*
X-110300Y53900D01*
X-110032D01*
X-109763Y54003D01*
X-109533Y54158D01*
X-109342Y54365D01*
G01X-107200Y53900D02*
Y57000D01*
X-107660Y56380D01*
G01Y53900D02*
X-106740D01*
G01X-104100Y57000D02*
X-104407Y56897D01*
X-104637Y56638D01*
X-104790Y56328D01*
X-104905Y55915D01*
X-104943Y55450D01*
X-104905Y54985D01*
X-104790Y54572D01*
X-104637Y54262D01*
X-104407Y54003D01*
X-104100Y53900D01*
X-103793Y54003D01*
X-103563Y54262D01*
X-103410Y54572D01*
X-103295Y54985D01*
X-103257Y55450D01*
X-103295Y55915D01*
X-103410Y56328D01*
X-103563Y56638D01*
X-103793Y56897D01*
X-104100Y57000D01*
G01X-110187Y160200D02*
Y162700D01*
X-109653D01*
X-109440Y162575D01*
X-109280Y162408D01*
X-109147Y162158D01*
X-109040Y161867D01*
X-109013Y161450D01*
X-109040Y161033D01*
X-109147Y160742D01*
X-109280Y160492D01*
X-109440Y160325D01*
X-109653Y160200D01*
X-110187D01*
G01X-107080D02*
Y162700D01*
X-108067Y160908D01*
X-106733D01*
G01X-108743Y156297D02*
X-107057Y158570D01*
G01X-107900Y158983D02*
Y155883D01*
G01X-107057Y156297D02*
X-108743Y158570D01*
G01X-109050Y157433D02*
X-106750D01*
G01X-108743Y156297D02*
X-107057Y158570D01*
G01X-107900Y158983D02*
Y155883D01*
G01X-107057Y156297D02*
X-108743Y158570D01*
G01X-109050Y157433D02*
X-106750D01*
G01X-103717Y81100D02*
Y76100D01*
X-101183D01*
G01X-97350D02*
Y81100D01*
X-98110Y80100D01*
G01Y76100D02*
X-96590D01*
G01X-99907Y56742D02*
X-100137Y56897D01*
X-100405Y57000D01*
X-100712D01*
X-101057Y56845D01*
X-101325Y56587D01*
X-101517Y56277D01*
X-101670Y55760D01*
X-101708Y55295D01*
X-101632Y54830D01*
X-101517Y54520D01*
X-101287Y54210D01*
X-101018Y54003D01*
X-100750Y53900D01*
X-100482D01*
X-100213Y54003D01*
X-99983Y54158D01*
X-99792Y54365D01*
G01X-98302Y54262D02*
X-98033Y54003D01*
X-97727Y53900D01*
X-97420Y54003D01*
X-97152Y54313D01*
X-96960Y54778D01*
X-96883Y55243D01*
Y55812D01*
X-96960Y56277D01*
X-97152Y56690D01*
X-97382Y56897D01*
X-97650Y57000D01*
X-97957Y56897D01*
X-98187Y56690D01*
X-98340Y56380D01*
X-98417Y55967D01*
X-98340Y55605D01*
X-98148Y55243D01*
X-97918Y55037D01*
X-97650Y54985D01*
X-97343Y55088D01*
X-97113Y55347D01*
X-96883Y55812D01*
G01X-97107Y24042D02*
X-97337Y24197D01*
X-97605Y24300D01*
X-97912D01*
X-98257Y24145D01*
X-98525Y23887D01*
X-98717Y23577D01*
X-98870Y23060D01*
X-98908Y22595D01*
X-98832Y22130D01*
X-98717Y21820D01*
X-98487Y21510D01*
X-98218Y21303D01*
X-97950Y21200D01*
X-97682D01*
X-97413Y21303D01*
X-97183Y21458D01*
X-96992Y21665D01*
G01X-95578Y22492D02*
X-95310Y22853D01*
X-95080Y23060D01*
X-94773Y23163D01*
X-94505Y23060D01*
X-94313Y22853D01*
X-94160Y22543D01*
X-94122Y22182D01*
X-94160Y21872D01*
X-94313Y21562D01*
X-94543Y21303D01*
X-94812Y21200D01*
X-95118Y21303D01*
X-95387Y21613D01*
X-95540Y22078D01*
X-95578Y22595D01*
X-95502Y23267D01*
X-95387Y23628D01*
X-95195Y23990D01*
X-94927Y24248D01*
X-94658Y24300D01*
X-94390Y24197D01*
X-94198Y23938D01*
G01X-92407Y56542D02*
X-92637Y56697D01*
X-92905Y56800D01*
X-93212D01*
X-93557Y56645D01*
X-93825Y56387D01*
X-94017Y56077D01*
X-94170Y55560D01*
X-94208Y55095D01*
X-94132Y54630D01*
X-94017Y54320D01*
X-93787Y54010D01*
X-93518Y53803D01*
X-93250Y53700D01*
X-92982D01*
X-92713Y53803D01*
X-92483Y53958D01*
X-92292Y54165D01*
G01X-90993D02*
X-90763Y53907D01*
X-90495Y53752D01*
X-90150Y53700D01*
X-89805Y53803D01*
X-89537Y54010D01*
X-89345Y54372D01*
X-89307Y54785D01*
X-89383Y55198D01*
X-89575Y55457D01*
X-89843Y55663D01*
X-90112Y55715D01*
X-90380Y55663D01*
X-90725Y55457D01*
X-90610Y56800D01*
X-89575D01*
G01X-86067Y-31300D02*
Y-28200D01*
X-85108D01*
X-84802Y-28355D01*
X-84610Y-28562D01*
X-84533Y-28975D01*
X-84610Y-29388D01*
X-84840Y-29647D01*
X-85108Y-29802D01*
X-86067D01*
G01X-85108D02*
X-84533Y-31300D01*
G01X-83043Y-30680D02*
X-82813Y-31042D01*
X-82507Y-31248D01*
X-82162Y-31300D01*
X-81855Y-31248D01*
X-81548Y-30990D01*
X-81357Y-30680D01*
X-81318Y-30370D01*
X-81395Y-30008D01*
X-81663Y-29750D01*
X-81932Y-29647D01*
X-82277D01*
G01X-81932D02*
X-81702Y-29492D01*
X-81510Y-29233D01*
X-81433Y-28923D01*
X-81510Y-28613D01*
X-81702Y-28355D01*
X-82047Y-28200D01*
X-82392Y-28252D01*
X-82737Y-28458D01*
G01X-79828Y-30008D02*
X-79560Y-29647D01*
X-79330Y-29440D01*
X-79023Y-29337D01*
X-78755Y-29440D01*
X-78563Y-29647D01*
X-78410Y-29957D01*
X-78372Y-30318D01*
X-78410Y-30628D01*
X-78563Y-30938D01*
X-78793Y-31197D01*
X-79062Y-31300D01*
X-79368Y-31197D01*
X-79637Y-30887D01*
X-79790Y-30422D01*
X-79828Y-29905D01*
X-79752Y-29233D01*
X-79637Y-28872D01*
X-79445Y-28510D01*
X-79177Y-28252D01*
X-78908Y-28200D01*
X-78640Y-28303D01*
X-78448Y-28562D01*
G01X-85567Y-10800D02*
Y-7700D01*
X-84608D01*
X-84302Y-7855D01*
X-84110Y-8062D01*
X-84033Y-8475D01*
X-84110Y-8888D01*
X-84340Y-9147D01*
X-84608Y-9302D01*
X-85567D01*
G01X-84608D02*
X-84033Y-10800D01*
G01X-82543Y-10180D02*
X-82313Y-10542D01*
X-82007Y-10748D01*
X-81662Y-10800D01*
X-81355Y-10748D01*
X-81048Y-10490D01*
X-80857Y-10180D01*
X-80818Y-9870D01*
X-80895Y-9508D01*
X-81163Y-9250D01*
X-81432Y-9147D01*
X-81777D01*
G01X-81432D02*
X-81202Y-8992D01*
X-81010Y-8733D01*
X-80933Y-8423D01*
X-81010Y-8113D01*
X-81202Y-7855D01*
X-81547Y-7700D01*
X-81892Y-7752D01*
X-82237Y-7958D01*
G01X-78677Y-10800D02*
X-78600Y-10128D01*
X-78485Y-9560D01*
X-78332Y-9043D01*
X-78140Y-8475D01*
X-77833Y-7700D01*
X-79367D01*
G01X-81417Y6100D02*
Y11100D01*
X-79833D01*
X-79327Y10850D01*
X-79010Y10517D01*
X-78883Y9850D01*
X-79010Y9183D01*
X-79390Y8767D01*
X-79833Y8517D01*
X-81417D01*
G01X-79833D02*
X-78883Y6100D01*
G01X-75177D02*
X-75050Y7183D01*
X-74860Y8100D01*
X-74607Y8933D01*
X-74290Y9850D01*
X-73783Y11100D01*
X-76317D01*
G01X-81357Y158142D02*
X-81587Y158297D01*
X-81855Y158400D01*
X-82162D01*
X-82507Y158245D01*
X-82775Y157987D01*
X-82967Y157677D01*
X-83120Y157160D01*
X-83158Y156695D01*
X-83082Y156230D01*
X-82967Y155920D01*
X-82737Y155610D01*
X-82468Y155403D01*
X-82200Y155300D01*
X-81932D01*
X-81663Y155403D01*
X-81433Y155558D01*
X-81242Y155765D01*
G01X-79828Y157883D02*
X-79598Y158193D01*
X-79330Y158348D01*
X-79023Y158400D01*
X-78640Y158297D01*
X-78372Y158038D01*
X-78295Y157728D01*
X-78333Y157418D01*
X-78487Y157160D01*
X-79253Y156643D01*
X-79598Y156282D01*
X-79828Y155765D01*
X-79905Y155300D01*
X-78295D01*
G01X-76000Y158400D02*
X-76307Y158297D01*
X-76537Y158038D01*
X-76690Y157728D01*
X-76805Y157315D01*
X-76843Y156850D01*
X-76805Y156385D01*
X-76690Y155972D01*
X-76537Y155662D01*
X-76307Y155403D01*
X-76000Y155300D01*
X-75693Y155403D01*
X-75463Y155662D01*
X-75310Y155972D01*
X-75195Y156385D01*
X-75157Y156850D01*
X-75195Y157315D01*
X-75310Y157728D01*
X-75463Y158038D01*
X-75693Y158297D01*
X-76000Y158400D01*
G01X-77557Y-48758D02*
X-77787Y-48603D01*
X-78055Y-48500D01*
X-78362D01*
X-78707Y-48655D01*
X-78975Y-48913D01*
X-79167Y-49223D01*
X-79320Y-49740D01*
X-79358Y-50205D01*
X-79282Y-50670D01*
X-79167Y-50980D01*
X-78937Y-51290D01*
X-78668Y-51497D01*
X-78400Y-51600D01*
X-78132D01*
X-77863Y-51497D01*
X-77633Y-51342D01*
X-77442Y-51135D01*
G01X-75300Y-51600D02*
Y-48500D01*
X-75760Y-49120D01*
G01Y-51600D02*
X-74840D01*
G01X-71740D02*
Y-48500D01*
X-73158Y-50722D01*
X-71242D01*
G01X-78667Y159800D02*
Y162900D01*
X-77708D01*
X-77402Y162745D01*
X-77210Y162538D01*
X-77133Y162125D01*
X-77210Y161712D01*
X-77440Y161453D01*
X-77708Y161298D01*
X-78667D01*
G01X-77708D02*
X-77133Y159800D01*
G01X-75528Y162383D02*
X-75298Y162693D01*
X-75030Y162848D01*
X-74723Y162900D01*
X-74340Y162797D01*
X-74072Y162538D01*
X-73995Y162228D01*
X-74033Y161918D01*
X-74187Y161660D01*
X-74953Y161143D01*
X-75298Y160782D01*
X-75528Y160265D01*
X-75605Y159800D01*
X-73995D01*
G01X-71700Y162900D02*
X-72007Y162797D01*
X-72237Y162538D01*
X-72390Y162228D01*
X-72505Y161815D01*
X-72543Y161350D01*
X-72505Y160885D01*
X-72390Y160472D01*
X-72237Y160162D01*
X-72007Y159903D01*
X-71700Y159800D01*
X-71393Y159903D01*
X-71163Y160162D01*
X-71010Y160472D01*
X-70895Y160885D01*
X-70857Y161350D01*
X-70895Y161815D01*
X-71010Y162228D01*
X-71163Y162538D01*
X-71393Y162797D01*
X-71700Y162900D01*
G01X-71177Y129663D02*
X-69491Y131936D01*
G01X-70334Y132349D02*
Y129249D01*
G01X-69491Y129663D02*
X-71177Y131936D01*
G01X-71484Y130799D02*
X-69184D01*
G01X-67557Y-83358D02*
X-67787Y-83203D01*
X-68055Y-83100D01*
X-68362D01*
X-68707Y-83255D01*
X-68975Y-83513D01*
X-69167Y-83823D01*
X-69320Y-84340D01*
X-69358Y-84805D01*
X-69282Y-85270D01*
X-69167Y-85580D01*
X-68937Y-85890D01*
X-68668Y-86097D01*
X-68400Y-86200D01*
X-68132D01*
X-67863Y-86097D01*
X-67633Y-85942D01*
X-67442Y-85735D01*
G01X-65300Y-86200D02*
Y-83100D01*
X-65760Y-83720D01*
G01Y-86200D02*
X-64840D01*
G01X-63043Y-85580D02*
X-62813Y-85942D01*
X-62507Y-86148D01*
X-62162Y-86200D01*
X-61855Y-86148D01*
X-61548Y-85890D01*
X-61357Y-85580D01*
X-61318Y-85270D01*
X-61395Y-84908D01*
X-61663Y-84650D01*
X-61932Y-84547D01*
X-62277D01*
G01X-61932D02*
X-61702Y-84392D01*
X-61510Y-84133D01*
X-61433Y-83823D01*
X-61510Y-83513D01*
X-61702Y-83255D01*
X-62047Y-83100D01*
X-62392Y-83152D01*
X-62737Y-83358D01*
G01X-69967Y120700D02*
Y123800D01*
X-69008D01*
X-68702Y123645D01*
X-68510Y123438D01*
X-68433Y123025D01*
X-68510Y122612D01*
X-68740Y122353D01*
X-69008Y122198D01*
X-69967D01*
G01X-69008D02*
X-68433Y120700D01*
G01X-66828D02*
Y123800D01*
X-65372D01*
G01X-65908Y122302D02*
X-66828D01*
G01X-63728Y120700D02*
Y123800D01*
X-62272D01*
G01X-62808Y122302D02*
X-63728D01*
G01X-65697Y129957D02*
X-67970Y131643D01*
G01X-68383Y130800D02*
X-65283D01*
G01X-65697Y131643D02*
X-67970Y129957D01*
G01X-66833Y129650D02*
Y131950D01*
G01X-67943Y157700D02*
Y160800D01*
X-67177D01*
X-66870Y160645D01*
X-66640Y160438D01*
X-66448Y160128D01*
X-66295Y159767D01*
X-66257Y159250D01*
X-66295Y158733D01*
X-66448Y158372D01*
X-66640Y158062D01*
X-66870Y157855D01*
X-67177Y157700D01*
X-67943D01*
G01X-63540D02*
Y160800D01*
X-64958Y158578D01*
X-63042D01*
G01X-61743Y158320D02*
X-61513Y157958D01*
X-61207Y157752D01*
X-60862Y157700D01*
X-60555Y157752D01*
X-60248Y158010D01*
X-60057Y158320D01*
X-60018Y158630D01*
X-60095Y158992D01*
X-60363Y159250D01*
X-60632Y159353D01*
X-60977D01*
G01X-60632D02*
X-60402Y159508D01*
X-60210Y159767D01*
X-60133Y160077D01*
X-60210Y160387D01*
X-60402Y160645D01*
X-60747Y160800D01*
X-61092Y160748D01*
X-61437Y160542D01*
G01X-63543Y-34569D02*
X-61857Y-32296D01*
G01X-62700Y-31883D02*
Y-34983D01*
G01X-61857Y-34569D02*
X-63543Y-32296D01*
G01X-63850Y-33433D02*
X-61550D01*
G01X-63543Y-34569D02*
X-61857Y-32296D01*
G01X-62700Y-31883D02*
Y-34983D01*
G01X-61857Y-34569D02*
X-63543Y-32296D01*
G01X-63850Y-33433D02*
X-61550D01*
G01X-62750Y61600D02*
Y56600D01*
G01X-64207Y61600D02*
X-61293D01*
G01X-58917Y56600D02*
Y61600D01*
X-57397D01*
X-56890Y61350D01*
X-56510Y60767D01*
X-56383Y60100D01*
X-56510Y59433D01*
X-56827Y58933D01*
X-57397Y58683D01*
X-58917D01*
G01X-52550Y56600D02*
Y61600D01*
X-53310Y60600D01*
G01Y56600D02*
X-51790D01*
G01X-48843Y57600D02*
X-48463Y57017D01*
X-47957Y56683D01*
X-47387Y56600D01*
X-46880Y56683D01*
X-46373Y57100D01*
X-46057Y57600D01*
X-45993Y58100D01*
X-46120Y58683D01*
X-46563Y59100D01*
X-47007Y59267D01*
X-47577D01*
G01X-47007D02*
X-46627Y59517D01*
X-46310Y59933D01*
X-46183Y60433D01*
X-46310Y60933D01*
X-46627Y61350D01*
X-47197Y61600D01*
X-47767Y61517D01*
X-48337Y61183D01*
G01X-62850Y67200D02*
Y62200D01*
G01X-64307Y67200D02*
X-61393D01*
G01X-59017Y62200D02*
Y67200D01*
X-57497D01*
X-56990Y66950D01*
X-56610Y66367D01*
X-56483Y65700D01*
X-56610Y65033D01*
X-56927Y64533D01*
X-57497Y64283D01*
X-59017D01*
G01X-52650Y62200D02*
Y67200D01*
X-53410Y66200D01*
G01Y62200D02*
X-51890D01*
G01X-47550Y67200D02*
X-48057Y67033D01*
X-48437Y66617D01*
X-48690Y66117D01*
X-48880Y65450D01*
X-48943Y64700D01*
X-48880Y63950D01*
X-48690Y63283D01*
X-48437Y62783D01*
X-48057Y62367D01*
X-47550Y62200D01*
X-47043Y62367D01*
X-46663Y62783D01*
X-46410Y63283D01*
X-46220Y63950D01*
X-46157Y64700D01*
X-46220Y65450D01*
X-46410Y66117D01*
X-46663Y66617D01*
X-47043Y67033D01*
X-47550Y67200D01*
G01X-59693Y-32200D02*
Y-34422D01*
X-59540Y-34887D01*
X-59233Y-35197D01*
X-58850Y-35300D01*
X-58467Y-35197D01*
X-58160Y-34887D01*
X-58007Y-34422D01*
Y-32200D01*
G01X-56478Y-32717D02*
X-56248Y-32407D01*
X-55980Y-32252D01*
X-55673Y-32200D01*
X-55290Y-32303D01*
X-55022Y-32562D01*
X-54945Y-32872D01*
X-54983Y-33182D01*
X-55137Y-33440D01*
X-55903Y-33957D01*
X-56248Y-34318D01*
X-56478Y-34835D01*
X-56555Y-35300D01*
X-54945D01*
G01X-57707Y3142D02*
X-57937Y3297D01*
X-58205Y3400D01*
X-58512D01*
X-58857Y3245D01*
X-59125Y2987D01*
X-59317Y2677D01*
X-59470Y2160D01*
X-59508Y1695D01*
X-59432Y1230D01*
X-59317Y920D01*
X-59087Y610D01*
X-58818Y403D01*
X-58550Y300D01*
X-58282D01*
X-58013Y403D01*
X-57783Y558D01*
X-57592Y765D01*
G01X-55527Y300D02*
X-55450Y972D01*
X-55335Y1540D01*
X-55182Y2057D01*
X-54990Y2625D01*
X-54683Y3400D01*
X-56217D01*
G01X-58257Y131842D02*
X-58487Y131997D01*
X-58755Y132100D01*
X-59062D01*
X-59407Y131945D01*
X-59675Y131687D01*
X-59867Y131377D01*
X-60020Y130860D01*
X-60058Y130395D01*
X-59982Y129930D01*
X-59867Y129620D01*
X-59637Y129310D01*
X-59368Y129103D01*
X-59100Y129000D01*
X-58832D01*
X-58563Y129103D01*
X-58333Y129258D01*
X-58142Y129465D01*
G01X-56728Y129000D02*
Y132100D01*
X-55272D01*
G01X-55808Y130602D02*
X-56728D01*
G01X-53628Y129000D02*
Y132100D01*
X-52172D01*
G01X-52708Y130602D02*
X-53628D01*
G01X-57743Y23900D02*
Y20317D01*
X-57490Y19567D01*
X-56983Y19067D01*
X-56350Y18900D01*
X-55717Y19067D01*
X-55210Y19567D01*
X-54957Y20317D01*
Y23900D01*
G01X-51250Y18900D02*
Y23900D01*
X-52010Y22900D01*
G01Y18900D02*
X-50490D01*
G01X-53957Y-91758D02*
X-54187Y-91603D01*
X-54455Y-91500D01*
X-54762D01*
X-55107Y-91655D01*
X-55375Y-91913D01*
X-55567Y-92223D01*
X-55720Y-92740D01*
X-55758Y-93205D01*
X-55682Y-93670D01*
X-55567Y-93980D01*
X-55337Y-94290D01*
X-55068Y-94497D01*
X-54800Y-94600D01*
X-54532D01*
X-54263Y-94497D01*
X-54033Y-94342D01*
X-53842Y-94135D01*
G01X-51700Y-94600D02*
Y-91500D01*
X-52160Y-92120D01*
G01Y-94600D02*
X-51240D01*
G01X-49328Y-92017D02*
X-49098Y-91707D01*
X-48830Y-91552D01*
X-48523Y-91500D01*
X-48140Y-91603D01*
X-47872Y-91862D01*
X-47795Y-92172D01*
X-47833Y-92482D01*
X-47987Y-92740D01*
X-48753Y-93257D01*
X-49098Y-93618D01*
X-49328Y-94135D01*
X-49405Y-94600D01*
X-47795D01*
G01X-55293Y169400D02*
Y172500D01*
X-54527D01*
X-54220Y172345D01*
X-53990Y172138D01*
X-53798Y171828D01*
X-53645Y171467D01*
X-53607Y170950D01*
X-53645Y170433D01*
X-53798Y170072D01*
X-53990Y169762D01*
X-54220Y169555D01*
X-54527Y169400D01*
X-55293D01*
G01X-52078Y170692D02*
X-51810Y171053D01*
X-51580Y171260D01*
X-51273Y171363D01*
X-51005Y171260D01*
X-50813Y171053D01*
X-50660Y170743D01*
X-50622Y170382D01*
X-50660Y170072D01*
X-50813Y169762D01*
X-51043Y169503D01*
X-51312Y169400D01*
X-51618Y169503D01*
X-51887Y169813D01*
X-52040Y170278D01*
X-52078Y170795D01*
X-52002Y171467D01*
X-51887Y171828D01*
X-51695Y172190D01*
X-51427Y172448D01*
X-51158Y172500D01*
X-50890Y172397D01*
X-50698Y172138D01*
G01X-49907Y3242D02*
X-50137Y3397D01*
X-50405Y3500D01*
X-50712D01*
X-51057Y3345D01*
X-51325Y3087D01*
X-51517Y2777D01*
X-51670Y2260D01*
X-51708Y1795D01*
X-51632Y1330D01*
X-51517Y1020D01*
X-51287Y710D01*
X-51018Y503D01*
X-50750Y400D01*
X-50482D01*
X-50213Y503D01*
X-49983Y658D01*
X-49792Y865D01*
G01X-47650Y400D02*
X-47382Y452D01*
X-47075Y607D01*
X-46883Y865D01*
X-46807Y1227D01*
X-46883Y1588D01*
X-47113Y1898D01*
X-47458Y2053D01*
X-47842D01*
X-48072Y2157D01*
X-48263Y2415D01*
X-48340Y2777D01*
X-48225Y3138D01*
X-47957Y3397D01*
X-47650Y3500D01*
X-47343Y3397D01*
X-47075Y3138D01*
X-46960Y2777D01*
X-47037Y2415D01*
X-47228Y2157D01*
X-47458Y2053D01*
X-47842D01*
X-48187Y1898D01*
X-48417Y1588D01*
X-48493Y1227D01*
X-48417Y865D01*
X-48225Y607D01*
X-47918Y452D01*
X-47650Y400D01*
G01X-50507Y54042D02*
X-50737Y54197D01*
X-51005Y54300D01*
X-51312D01*
X-51657Y54145D01*
X-51925Y53887D01*
X-52117Y53577D01*
X-52270Y53060D01*
X-52308Y52595D01*
X-52232Y52130D01*
X-52117Y51820D01*
X-51887Y51510D01*
X-51618Y51303D01*
X-51350Y51200D01*
X-51082D01*
X-50813Y51303D01*
X-50583Y51458D01*
X-50392Y51665D01*
G01X-47790Y51200D02*
Y54300D01*
X-49208Y52078D01*
X-47292D01*
G01X-50717Y181900D02*
Y185000D01*
X-49758D01*
X-49452Y184845D01*
X-49260Y184638D01*
X-49183Y184225D01*
X-49260Y183812D01*
X-49490Y183553D01*
X-49758Y183398D01*
X-50717D01*
G01X-49758D02*
X-49183Y181900D01*
G01X-46390D02*
Y185000D01*
X-47808Y182778D01*
X-45892D01*
G01X-50317Y188600D02*
Y191700D01*
X-49358D01*
X-49052Y191545D01*
X-48860Y191338D01*
X-48783Y190925D01*
X-48860Y190512D01*
X-49090Y190253D01*
X-49358Y190098D01*
X-50317D01*
G01X-49358D02*
X-48783Y188600D01*
G01X-47293Y189220D02*
X-47063Y188858D01*
X-46757Y188652D01*
X-46412Y188600D01*
X-46105Y188652D01*
X-45798Y188910D01*
X-45607Y189220D01*
X-45568Y189530D01*
X-45645Y189892D01*
X-45913Y190150D01*
X-46182Y190253D01*
X-46527D01*
G01X-46182D02*
X-45952Y190408D01*
X-45760Y190667D01*
X-45683Y190977D01*
X-45760Y191287D01*
X-45952Y191545D01*
X-46297Y191700D01*
X-46642Y191648D01*
X-46987Y191442D01*
G01X-47007Y29342D02*
X-47237Y29497D01*
X-47505Y29600D01*
X-47812D01*
X-48157Y29445D01*
X-48425Y29187D01*
X-48617Y28877D01*
X-48770Y28360D01*
X-48808Y27895D01*
X-48732Y27430D01*
X-48617Y27120D01*
X-48387Y26810D01*
X-48118Y26603D01*
X-47850Y26500D01*
X-47582D01*
X-47313Y26603D01*
X-47083Y26758D01*
X-46892Y26965D01*
G01X-44750Y26500D02*
Y29600D01*
X-45210Y28980D01*
G01Y26500D02*
X-44290D01*
G01X-48207Y42942D02*
X-48437Y43097D01*
X-48705Y43200D01*
X-49012D01*
X-49357Y43045D01*
X-49625Y42787D01*
X-49817Y42477D01*
X-49970Y41960D01*
X-50008Y41495D01*
X-49932Y41030D01*
X-49817Y40720D01*
X-49587Y40410D01*
X-49318Y40203D01*
X-49050Y40100D01*
X-48782D01*
X-48513Y40203D01*
X-48283Y40358D01*
X-48092Y40565D01*
G01X-46678Y42683D02*
X-46448Y42993D01*
X-46180Y43148D01*
X-45873Y43200D01*
X-45490Y43097D01*
X-45222Y42838D01*
X-45145Y42528D01*
X-45183Y42218D01*
X-45337Y41960D01*
X-46103Y41443D01*
X-46448Y41082D01*
X-46678Y40565D01*
X-46755Y40100D01*
X-45145D01*
G01X-47603Y153393D02*
X-45330Y151707D01*
G01X-44917Y152550D02*
X-48017D01*
G01X-47603Y151707D02*
X-45330Y153393D01*
G01X-46467Y153700D02*
Y151400D01*
G01X-49367Y156300D02*
Y159400D01*
X-48408D01*
X-48102Y159245D01*
X-47910Y159038D01*
X-47833Y158625D01*
X-47910Y158212D01*
X-48140Y157953D01*
X-48408Y157798D01*
X-49367D01*
G01X-48408D02*
X-47833Y156300D01*
G01X-46228Y158883D02*
X-45998Y159193D01*
X-45730Y159348D01*
X-45423Y159400D01*
X-45040Y159297D01*
X-44772Y159038D01*
X-44695Y158728D01*
X-44733Y158418D01*
X-44887Y158160D01*
X-45653Y157643D01*
X-45998Y157282D01*
X-46228Y156765D01*
X-46305Y156300D01*
X-44695D01*
G01X-43128Y158883D02*
X-42898Y159193D01*
X-42630Y159348D01*
X-42323Y159400D01*
X-41940Y159297D01*
X-41672Y159038D01*
X-41595Y158728D01*
X-41633Y158418D01*
X-41787Y158160D01*
X-42553Y157643D01*
X-42898Y157282D01*
X-43128Y156765D01*
X-43205Y156300D01*
X-41595D01*
G01X-47310Y151413D02*
X-45624Y153686D01*
G01X-46467Y154099D02*
Y150999D01*
G01X-45624Y151413D02*
X-47310Y153686D01*
G01X-47617Y152549D02*
X-45317D01*
G01X-42913Y-91508D02*
X-43073Y-91383D01*
X-43260Y-91300D01*
X-43473D01*
X-43713Y-91425D01*
X-43900Y-91633D01*
X-44033Y-91883D01*
X-44140Y-92300D01*
X-44167Y-92675D01*
X-44113Y-93050D01*
X-44033Y-93300D01*
X-43873Y-93550D01*
X-43687Y-93717D01*
X-43500Y-93800D01*
X-43313D01*
X-43127Y-93717D01*
X-42967Y-93592D01*
X-42833Y-93425D01*
G01X-41300Y-93800D02*
Y-91300D01*
X-41620Y-91800D01*
G01Y-93800D02*
X-40980D01*
G01X-39100D02*
Y-91300D01*
X-39420Y-91800D01*
G01Y-93800D02*
X-38780D01*
G01X-41807Y3142D02*
X-42037Y3297D01*
X-42305Y3400D01*
X-42612D01*
X-42957Y3245D01*
X-43225Y2987D01*
X-43417Y2677D01*
X-43570Y2160D01*
X-43608Y1695D01*
X-43532Y1230D01*
X-43417Y920D01*
X-43187Y610D01*
X-42918Y403D01*
X-42650Y300D01*
X-42382D01*
X-42113Y403D01*
X-41883Y558D01*
X-41692Y765D01*
G01X-40393Y920D02*
X-40163Y558D01*
X-39857Y352D01*
X-39512Y300D01*
X-39205Y352D01*
X-38898Y610D01*
X-38707Y920D01*
X-38668Y1230D01*
X-38745Y1592D01*
X-39013Y1850D01*
X-39282Y1953D01*
X-39627D01*
G01X-39282D02*
X-39052Y2108D01*
X-38860Y2367D01*
X-38783Y2677D01*
X-38860Y2987D01*
X-39052Y3245D01*
X-39397Y3400D01*
X-39742Y3348D01*
X-40087Y3142D01*
G01X-39657Y176403D02*
X-41343Y174130D01*
G01X-40500Y173717D02*
Y176817D01*
G01X-41343Y176403D02*
X-39657Y174130D01*
G01X-39350Y175267D02*
X-41650D01*
G01X-41343Y174130D02*
X-39657Y176403D01*
G01X-40500Y176816D02*
Y173716D01*
G01X-39657Y174130D02*
X-41343Y176403D01*
G01X-41650Y175266D02*
X-39350D01*
G01X-36257Y-91958D02*
X-36487Y-91803D01*
X-36755Y-91700D01*
X-37062D01*
X-37407Y-91855D01*
X-37675Y-92113D01*
X-37867Y-92423D01*
X-38020Y-92940D01*
X-38058Y-93405D01*
X-37982Y-93870D01*
X-37867Y-94180D01*
X-37637Y-94490D01*
X-37368Y-94697D01*
X-37100Y-94800D01*
X-36832D01*
X-36563Y-94697D01*
X-36333Y-94542D01*
X-36142Y-94335D01*
G01X-34000Y-94800D02*
Y-91700D01*
X-34460Y-92320D01*
G01Y-94800D02*
X-33540D01*
G01X-31628Y-93508D02*
X-31360Y-93147D01*
X-31130Y-92940D01*
X-30823Y-92837D01*
X-30555Y-92940D01*
X-30363Y-93147D01*
X-30210Y-93457D01*
X-30172Y-93818D01*
X-30210Y-94128D01*
X-30363Y-94438D01*
X-30593Y-94697D01*
X-30862Y-94800D01*
X-31168Y-94697D01*
X-31437Y-94387D01*
X-31590Y-93922D01*
X-31628Y-93405D01*
X-31552Y-92733D01*
X-31437Y-92372D01*
X-31245Y-92010D01*
X-30977Y-91752D01*
X-30708Y-91700D01*
X-30440Y-91803D01*
X-30248Y-92062D01*
G01X-36827Y16813D02*
X-35141Y19086D01*
G01X-35984Y19499D02*
Y16399D01*
G01X-35141Y16813D02*
X-36827Y19086D01*
G01X-37134Y17949D02*
X-34834D01*
G01X-31347Y20607D02*
X-33620Y22293D01*
G01X-34033Y21450D02*
X-30933D01*
G01X-31347Y22293D02*
X-33620Y20607D01*
G01X-32483Y20300D02*
Y22600D01*
G01X-29250Y82600D02*
Y77600D01*
G01X-30707Y82600D02*
X-27793D01*
G01X-25417Y77600D02*
Y82600D01*
X-23897D01*
X-23390Y82350D01*
X-23010Y81767D01*
X-22883Y81100D01*
X-23010Y80433D01*
X-23327Y79933D01*
X-23897Y79683D01*
X-25417D01*
G01X-19050Y77600D02*
Y82600D01*
X-19810Y81600D01*
G01Y77600D02*
X-18290D01*
G01X-15153Y81767D02*
X-14773Y82267D01*
X-14330Y82517D01*
X-13823Y82600D01*
X-13190Y82433D01*
X-12747Y82017D01*
X-12620Y81517D01*
X-12683Y81017D01*
X-12937Y80600D01*
X-14203Y79767D01*
X-14773Y79183D01*
X-15153Y78350D01*
X-15280Y77600D01*
X-12620D01*
G01X-27907Y105483D02*
X-28287Y105733D01*
X-28730Y105900D01*
X-29237D01*
X-29807Y105650D01*
X-30250Y105233D01*
X-30567Y104733D01*
X-30820Y103900D01*
X-30883Y103150D01*
X-30757Y102400D01*
X-30567Y101900D01*
X-30187Y101400D01*
X-29743Y101067D01*
X-29300Y100900D01*
X-28857D01*
X-28413Y101067D01*
X-28033Y101317D01*
X-27717Y101650D01*
G01X-25403Y105067D02*
X-25023Y105567D01*
X-24580Y105817D01*
X-24073Y105900D01*
X-23440Y105733D01*
X-22997Y105317D01*
X-22870Y104817D01*
X-22933Y104317D01*
X-23187Y103900D01*
X-24453Y103067D01*
X-25023Y102483D01*
X-25403Y101650D01*
X-25530Y100900D01*
X-22870D01*
G01X-19100D02*
Y105900D01*
X-19860Y104900D01*
G01Y100900D02*
X-18340D01*
G01X-32117Y176520D02*
X-31925Y176210D01*
X-31695Y176003D01*
X-31427Y175900D01*
X-31120Y176003D01*
X-30890Y176210D01*
X-30660Y176520D01*
X-30583Y176933D01*
Y179000D01*
G01X-28978Y177192D02*
X-28710Y177553D01*
X-28480Y177760D01*
X-28173Y177863D01*
X-27905Y177760D01*
X-27713Y177553D01*
X-27560Y177243D01*
X-27522Y176882D01*
X-27560Y176572D01*
X-27713Y176262D01*
X-27943Y176003D01*
X-28212Y175900D01*
X-28518Y176003D01*
X-28787Y176313D01*
X-28940Y176778D01*
X-28978Y177295D01*
X-28902Y177967D01*
X-28787Y178328D01*
X-28595Y178690D01*
X-28327Y178948D01*
X-28058Y179000D01*
X-27790Y178897D01*
X-27598Y178638D01*
G01X-27100Y54300D02*
Y49300D01*
G01X-28557Y54300D02*
X-25643D01*
G01X-23267Y49300D02*
Y54300D01*
X-21747D01*
X-21240Y54050D01*
X-20860Y53467D01*
X-20733Y52800D01*
X-20860Y52133D01*
X-21177Y51633D01*
X-21747Y51383D01*
X-23267D01*
G01X-17977Y49883D02*
X-17533Y49467D01*
X-17027Y49300D01*
X-16520Y49467D01*
X-16077Y49967D01*
X-15760Y50717D01*
X-15633Y51467D01*
Y52383D01*
X-15760Y53133D01*
X-16077Y53800D01*
X-16457Y54133D01*
X-16900Y54300D01*
X-17407Y54133D01*
X-17787Y53800D01*
X-18040Y53300D01*
X-18167Y52633D01*
X-18040Y52050D01*
X-17723Y51467D01*
X-17343Y51133D01*
X-16900Y51050D01*
X-16393Y51217D01*
X-16013Y51633D01*
X-15633Y52383D01*
G01X-20157Y-83258D02*
X-20387Y-83103D01*
X-20655Y-83000D01*
X-20962D01*
X-21307Y-83155D01*
X-21575Y-83413D01*
X-21767Y-83723D01*
X-21920Y-84240D01*
X-21958Y-84705D01*
X-21882Y-85170D01*
X-21767Y-85480D01*
X-21537Y-85790D01*
X-21268Y-85997D01*
X-21000Y-86100D01*
X-20732D01*
X-20463Y-85997D01*
X-20233Y-85842D01*
X-20042Y-85635D01*
G01X-17900Y-86100D02*
Y-83000D01*
X-18360Y-83620D01*
G01Y-86100D02*
X-17440D01*
G01X-15643Y-85635D02*
X-15413Y-85893D01*
X-15145Y-86048D01*
X-14800Y-86100D01*
X-14455Y-85997D01*
X-14187Y-85790D01*
X-13995Y-85428D01*
X-13957Y-85015D01*
X-14033Y-84602D01*
X-14225Y-84343D01*
X-14493Y-84137D01*
X-14762Y-84085D01*
X-15030Y-84137D01*
X-15375Y-84343D01*
X-15260Y-83000D01*
X-14225D01*
G01X-17530Y38700D02*
X-14870Y43700D01*
G01X-17530D02*
X-14870Y38700D01*
G01X-11100Y43700D02*
Y38700D01*
G01X-12557Y43700D02*
X-9643D01*
G01X-7583Y38700D02*
X-6000Y43700D01*
X-4417Y38700D01*
G01X-4987Y40450D02*
X-7013D01*
G01X-2167Y43700D02*
Y38700D01*
X367D01*
G01X4200D02*
Y43700D01*
X3440Y42700D01*
G01Y38700D02*
X4960D01*
G01X-16343Y160800D02*
Y157217D01*
X-16090Y156467D01*
X-15583Y155967D01*
X-14950Y155800D01*
X-14317Y155967D01*
X-13810Y156467D01*
X-13557Y157217D01*
Y160800D01*
G01X-11243Y156550D02*
X-10863Y156133D01*
X-10420Y155883D01*
X-9850Y155800D01*
X-9280Y155967D01*
X-8837Y156300D01*
X-8520Y156883D01*
X-8457Y157550D01*
X-8583Y158217D01*
X-8900Y158633D01*
X-9343Y158967D01*
X-9787Y159050D01*
X-10230Y158967D01*
X-10800Y158633D01*
X-10610Y160800D01*
X-8900D01*
G01X-12600Y-76100D02*
Y-79200D01*
G01X-13482Y-76100D02*
X-11718D01*
G01X-10267Y-79200D02*
Y-76100D01*
X-9347D01*
X-9040Y-76255D01*
X-8810Y-76617D01*
X-8733Y-77030D01*
X-8810Y-77443D01*
X-9002Y-77753D01*
X-9347Y-77908D01*
X-10267D01*
G01X-7243Y-78580D02*
X-7013Y-78942D01*
X-6707Y-79148D01*
X-6362Y-79200D01*
X-6055Y-79148D01*
X-5748Y-78890D01*
X-5557Y-78580D01*
X-5518Y-78270D01*
X-5595Y-77908D01*
X-5863Y-77650D01*
X-6132Y-77547D01*
X-6477D01*
G01X-6132D02*
X-5902Y-77392D01*
X-5710Y-77133D01*
X-5633Y-76823D01*
X-5710Y-76513D01*
X-5902Y-76255D01*
X-6247Y-76100D01*
X-6592Y-76152D01*
X-6937Y-76358D01*
G01X-12800Y-60300D02*
Y-63400D01*
G01X-13682Y-60300D02*
X-11918D01*
G01X-10467Y-63400D02*
Y-60300D01*
X-9547D01*
X-9240Y-60455D01*
X-9010Y-60817D01*
X-8933Y-61230D01*
X-9010Y-61643D01*
X-9202Y-61953D01*
X-9547Y-62108D01*
X-10467D01*
G01X-6140Y-63400D02*
Y-60300D01*
X-7558Y-62522D01*
X-5642D01*
G01X-10493Y-58800D02*
Y-55700D01*
X-9727D01*
X-9420Y-55855D01*
X-9190Y-56062D01*
X-8998Y-56372D01*
X-8845Y-56733D01*
X-8807Y-57250D01*
X-8845Y-57767D01*
X-8998Y-58128D01*
X-9190Y-58438D01*
X-9420Y-58645D01*
X-9727Y-58800D01*
X-10493D01*
G01X-6550D02*
Y-55700D01*
X-7010Y-56320D01*
G01Y-58800D02*
X-6090D01*
G01X-10193Y-43300D02*
Y-40200D01*
X-9427D01*
X-9120Y-40355D01*
X-8890Y-40562D01*
X-8698Y-40872D01*
X-8545Y-41233D01*
X-8507Y-41750D01*
X-8545Y-42267D01*
X-8698Y-42628D01*
X-8890Y-42938D01*
X-9120Y-43145D01*
X-9427Y-43300D01*
X-10193D01*
G01X-6978Y-40717D02*
X-6748Y-40407D01*
X-6480Y-40252D01*
X-6173Y-40200D01*
X-5790Y-40303D01*
X-5522Y-40562D01*
X-5445Y-40872D01*
X-5483Y-41182D01*
X-5637Y-41440D01*
X-6403Y-41957D01*
X-6748Y-42318D01*
X-6978Y-42835D01*
X-7055Y-43300D01*
X-5445D01*
G01X-9243Y76897D02*
X-7557Y79170D01*
G01X-8400Y79583D02*
Y76483D01*
G01X-7557Y76897D02*
X-9243Y79170D01*
G01X-9550Y78033D02*
X-7250D01*
G01X-9243Y76897D02*
X-7557Y79170D01*
G01X-8400Y79583D02*
Y76483D01*
G01X-7557Y76897D02*
X-9243Y79170D01*
G01X-9550Y78033D02*
X-7250D01*
G01X-93Y52900D02*
Y50678D01*
X60Y50213D01*
X367Y49903D01*
X750Y49800D01*
X1133Y49903D01*
X1440Y50213D01*
X1593Y50678D01*
Y52900D01*
G01X3007Y50420D02*
X3237Y50058D01*
X3543Y49852D01*
X3888Y49800D01*
X4195Y49852D01*
X4502Y50110D01*
X4693Y50420D01*
X4732Y50730D01*
X4655Y51092D01*
X4387Y51350D01*
X4118Y51453D01*
X3773D01*
G01X4118D02*
X4348Y51608D01*
X4540Y51867D01*
X4617Y52177D01*
X4540Y52487D01*
X4348Y52745D01*
X4003Y52900D01*
X3658Y52848D01*
X3313Y52642D01*
G01X-157Y89242D02*
X-387Y89397D01*
X-655Y89500D01*
X-962D01*
X-1307Y89345D01*
X-1575Y89087D01*
X-1767Y88777D01*
X-1920Y88260D01*
X-1958Y87795D01*
X-1882Y87330D01*
X-1767Y87020D01*
X-1537Y86710D01*
X-1268Y86503D01*
X-1000Y86400D01*
X-732D01*
X-463Y86503D01*
X-233Y86658D01*
X-42Y86865D01*
G01X2100Y86400D02*
Y89500D01*
X1640Y88880D01*
G01Y86400D02*
X2560D01*
G01X5123D02*
X5200Y87072D01*
X5315Y87640D01*
X5468Y88157D01*
X5660Y88725D01*
X5967Y89500D01*
X4433D01*
G01X4543Y-61658D02*
X4313Y-61503D01*
X4045Y-61400D01*
X3738D01*
X3393Y-61555D01*
X3125Y-61813D01*
X2933Y-62123D01*
X2780Y-62640D01*
X2742Y-63105D01*
X2818Y-63570D01*
X2933Y-63880D01*
X3163Y-64190D01*
X3432Y-64397D01*
X3700Y-64500D01*
X3968D01*
X4237Y-64397D01*
X4467Y-64242D01*
X4658Y-64035D01*
G01X6033Y-64500D02*
Y-61400D01*
X6992D01*
X7298Y-61555D01*
X7490Y-61762D01*
X7567Y-62175D01*
X7490Y-62588D01*
X7260Y-62847D01*
X6992Y-63002D01*
X6033D01*
G01X6992D02*
X7567Y-64500D01*
G01X9900D02*
Y-61400D01*
X9440Y-62020D01*
G01Y-64500D02*
X10360D01*
G01X3783Y-60300D02*
Y-57200D01*
X4742D01*
X5048Y-57355D01*
X5240Y-57562D01*
X5317Y-57975D01*
X5240Y-58388D01*
X5010Y-58647D01*
X4742Y-58802D01*
X3783D01*
G01X4742D02*
X5317Y-60300D01*
G01X7650D02*
X7918Y-60248D01*
X8225Y-60093D01*
X8417Y-59835D01*
X8493Y-59473D01*
X8417Y-59112D01*
X8187Y-58802D01*
X7842Y-58647D01*
X7458D01*
X7228Y-58543D01*
X7037Y-58285D01*
X6960Y-57923D01*
X7075Y-57562D01*
X7343Y-57303D01*
X7650Y-57200D01*
X7957Y-57303D01*
X8225Y-57562D01*
X8340Y-57923D01*
X8263Y-58285D01*
X8072Y-58543D01*
X7842Y-58647D01*
X7458D01*
X7113Y-58802D01*
X6883Y-59112D01*
X6807Y-59473D01*
X6883Y-59835D01*
X7075Y-60093D01*
X7382Y-60248D01*
X7650Y-60300D01*
G01X3683Y-41100D02*
Y-38000D01*
X4642D01*
X4948Y-38155D01*
X5140Y-38362D01*
X5217Y-38775D01*
X5140Y-39188D01*
X4910Y-39447D01*
X4642Y-39602D01*
X3683D01*
G01X4642D02*
X5217Y-41100D01*
G01X6898Y-40738D02*
X7167Y-40997D01*
X7473Y-41100D01*
X7780Y-40997D01*
X8048Y-40687D01*
X8240Y-40222D01*
X8317Y-39757D01*
Y-39188D01*
X8240Y-38723D01*
X8048Y-38310D01*
X7818Y-38103D01*
X7550Y-38000D01*
X7243Y-38103D01*
X7013Y-38310D01*
X6860Y-38620D01*
X6783Y-39033D01*
X6860Y-39395D01*
X7052Y-39757D01*
X7282Y-39963D01*
X7550Y-40015D01*
X7857Y-39912D01*
X8087Y-39653D01*
X8317Y-39188D01*
G01X7200Y108650D02*
X4100D01*
G01X7200Y109532D02*
Y107768D01*
G01X4100Y106317D02*
X7200D01*
Y105397D01*
X7045Y105090D01*
X6683Y104860D01*
X6270Y104783D01*
X5857Y104860D01*
X5547Y105052D01*
X5392Y105397D01*
Y106317D01*
G01X4100Y102450D02*
X7200D01*
X6580Y102910D01*
G01X4100D02*
Y101990D01*
G01Y99350D02*
X7200D01*
X6580Y99810D01*
G01X4100D02*
Y98890D01*
G01X8433Y87200D02*
Y90300D01*
X9392D01*
X9698Y90145D01*
X9890Y89938D01*
X9967Y89525D01*
X9890Y89112D01*
X9660Y88853D01*
X9392Y88698D01*
X8433D01*
G01X9392D02*
X9967Y87200D01*
G01X12300D02*
Y90300D01*
X11840Y89680D01*
G01Y87200D02*
X12760D01*
G01X15400Y90300D02*
X15093Y90197D01*
X14863Y89938D01*
X14710Y89628D01*
X14595Y89215D01*
X14557Y88750D01*
X14595Y88285D01*
X14710Y87872D01*
X14863Y87562D01*
X15093Y87303D01*
X15400Y87200D01*
X15707Y87303D01*
X15937Y87562D01*
X16090Y87872D01*
X16205Y88285D01*
X16243Y88750D01*
X16205Y89215D01*
X16090Y89628D01*
X15937Y89938D01*
X15707Y90197D01*
X15400Y90300D01*
G01X12200Y109250D02*
X9100D01*
G01X12200Y110132D02*
Y108368D01*
G01X9100Y106917D02*
X12200D01*
Y105997D01*
X12045Y105690D01*
X11683Y105460D01*
X11270Y105383D01*
X10857Y105460D01*
X10547Y105652D01*
X10392Y105997D01*
Y106917D01*
G01X9100Y103050D02*
X12200D01*
X11580Y103510D01*
G01X9100D02*
Y102590D01*
G01Y99490D02*
X12200D01*
X9978Y100908D01*
Y98992D01*
G01X16400Y-77500D02*
Y-80600D01*
G01X15518Y-77500D02*
X17282D01*
G01X18733Y-80600D02*
Y-77500D01*
X19653D01*
X19960Y-77655D01*
X20190Y-78017D01*
X20267Y-78430D01*
X20190Y-78843D01*
X19998Y-79153D01*
X19653Y-79308D01*
X18733D01*
G01X21872Y-78017D02*
X22102Y-77707D01*
X22370Y-77552D01*
X22677Y-77500D01*
X23060Y-77603D01*
X23328Y-77862D01*
X23405Y-78172D01*
X23367Y-78482D01*
X23213Y-78740D01*
X22447Y-79257D01*
X22102Y-79618D01*
X21872Y-80135D01*
X21795Y-80600D01*
X23405D01*
G01X17700Y-66800D02*
Y-69900D01*
G01X16818Y-66800D02*
X18582D01*
G01X20033Y-69900D02*
Y-66800D01*
X20953D01*
X21260Y-66955D01*
X21490Y-67317D01*
X21567Y-67730D01*
X21490Y-68143D01*
X21298Y-68453D01*
X20953Y-68608D01*
X20033D01*
G01X23900Y-69900D02*
Y-66800D01*
X23440Y-67420D01*
G01Y-69900D02*
X24360D01*
G01X22083Y-54900D02*
Y-51800D01*
X23042D01*
X23348Y-51955D01*
X23540Y-52162D01*
X23617Y-52575D01*
X23540Y-52988D01*
X23310Y-53247D01*
X23042Y-53402D01*
X22083D01*
G01X23042D02*
X23617Y-54900D01*
G01X25222Y-52317D02*
X25452Y-52007D01*
X25720Y-51852D01*
X26027Y-51800D01*
X26410Y-51903D01*
X26678Y-52162D01*
X26755Y-52472D01*
X26717Y-52782D01*
X26563Y-53040D01*
X25797Y-53557D01*
X25452Y-53918D01*
X25222Y-54435D01*
X25145Y-54900D01*
X26755D01*
G01X21733Y-11000D02*
Y-7900D01*
X22692D01*
X22998Y-8055D01*
X23190Y-8262D01*
X23267Y-8675D01*
X23190Y-9088D01*
X22960Y-9347D01*
X22692Y-9502D01*
X21733D01*
G01X22692D02*
X23267Y-11000D01*
G01X24872Y-8417D02*
X25102Y-8107D01*
X25370Y-7952D01*
X25677Y-7900D01*
X26060Y-8003D01*
X26328Y-8262D01*
X26405Y-8572D01*
X26367Y-8882D01*
X26213Y-9140D01*
X25447Y-9657D01*
X25102Y-10018D01*
X24872Y-10535D01*
X24795Y-11000D01*
X26405D01*
G01X27857Y-10535D02*
X28087Y-10793D01*
X28355Y-10948D01*
X28700Y-11000D01*
X29045Y-10897D01*
X29313Y-10690D01*
X29505Y-10328D01*
X29543Y-9915D01*
X29467Y-9502D01*
X29275Y-9243D01*
X29007Y-9037D01*
X28738Y-8985D01*
X28470Y-9037D01*
X28125Y-9243D01*
X28240Y-7900D01*
X29275D01*
G01X21833Y20400D02*
Y23500D01*
X22792D01*
X23098Y23345D01*
X23290Y23138D01*
X23367Y22725D01*
X23290Y22312D01*
X23060Y22053D01*
X22792Y21898D01*
X21833D01*
G01X22792D02*
X23367Y20400D01*
G01X24857Y21020D02*
X25087Y20658D01*
X25393Y20452D01*
X25738Y20400D01*
X26045Y20452D01*
X26352Y20710D01*
X26543Y21020D01*
X26582Y21330D01*
X26505Y21692D01*
X26237Y21950D01*
X25968Y22053D01*
X25623D01*
G01X25968D02*
X26198Y22208D01*
X26390Y22467D01*
X26467Y22777D01*
X26390Y23087D01*
X26198Y23345D01*
X25853Y23500D01*
X25508Y23448D01*
X25163Y23242D01*
G01X28800Y20400D02*
Y23500D01*
X28340Y22880D01*
G01Y20400D02*
X29260D01*
G01X20633Y66900D02*
Y70000D01*
X21592D01*
X21898Y69845D01*
X22090Y69638D01*
X22167Y69225D01*
X22090Y68812D01*
X21860Y68553D01*
X21592Y68398D01*
X20633D01*
G01X21592D02*
X22167Y66900D01*
G01X24500D02*
Y70000D01*
X24040Y69380D01*
G01Y66900D02*
X24960D01*
G01X26872Y69483D02*
X27102Y69793D01*
X27370Y69948D01*
X27677Y70000D01*
X28060Y69897D01*
X28328Y69638D01*
X28405Y69328D01*
X28367Y69018D01*
X28213Y68760D01*
X27447Y68243D01*
X27102Y67882D01*
X26872Y67365D01*
X26795Y66900D01*
X28405D01*
G01X21733Y79000D02*
Y82100D01*
X22692D01*
X22998Y81945D01*
X23190Y81738D01*
X23267Y81325D01*
X23190Y80912D01*
X22960Y80653D01*
X22692Y80498D01*
X21733D01*
G01X22692D02*
X23267Y79000D01*
G01X25600D02*
Y82100D01*
X25140Y81480D01*
G01Y79000D02*
X26060D01*
G01X28700D02*
Y82100D01*
X28240Y81480D01*
G01Y79000D02*
X29160D01*
G01X21283Y160000D02*
Y163100D01*
X22242D01*
X22548Y162945D01*
X22740Y162738D01*
X22817Y162325D01*
X22740Y161912D01*
X22510Y161653D01*
X22242Y161498D01*
X21283D01*
G01X22242D02*
X22817Y160000D01*
G01X24307Y160465D02*
X24537Y160207D01*
X24805Y160052D01*
X25150Y160000D01*
X25495Y160103D01*
X25763Y160310D01*
X25955Y160672D01*
X25993Y161085D01*
X25917Y161498D01*
X25725Y161757D01*
X25457Y161963D01*
X25188Y162015D01*
X24920Y161963D01*
X24575Y161757D01*
X24690Y163100D01*
X25725D01*
G01X24243Y136042D02*
X24013Y136197D01*
X23745Y136300D01*
X23438D01*
X23093Y136145D01*
X22825Y135887D01*
X22633Y135577D01*
X22480Y135060D01*
X22442Y134595D01*
X22518Y134130D01*
X22633Y133820D01*
X22863Y133510D01*
X23132Y133303D01*
X23400Y133200D01*
X23668D01*
X23937Y133303D01*
X24167Y133458D01*
X24358Y133665D01*
G01X25657Y133820D02*
X25887Y133458D01*
X26193Y133252D01*
X26538Y133200D01*
X26845Y133252D01*
X27152Y133510D01*
X27343Y133820D01*
X27382Y134130D01*
X27305Y134492D01*
X27037Y134750D01*
X26768Y134853D01*
X26423D01*
G01X26768D02*
X26998Y135008D01*
X27190Y135267D01*
X27267Y135577D01*
X27190Y135887D01*
X26998Y136145D01*
X26653Y136300D01*
X26308Y136248D01*
X25963Y136042D01*
G01X28872Y135783D02*
X29102Y136093D01*
X29370Y136248D01*
X29677Y136300D01*
X30060Y136197D01*
X30328Y135938D01*
X30405Y135628D01*
X30367Y135318D01*
X30213Y135060D01*
X29447Y134543D01*
X29102Y134182D01*
X28872Y133665D01*
X28795Y133200D01*
X30405D01*
G01X30833Y-51400D02*
Y-48300D01*
X31792D01*
X32098Y-48455D01*
X32290Y-48662D01*
X32367Y-49075D01*
X32290Y-49488D01*
X32060Y-49747D01*
X31792Y-49902D01*
X30833D01*
G01X31792D02*
X32367Y-51400D01*
G01X33857Y-50780D02*
X34087Y-51142D01*
X34393Y-51348D01*
X34738Y-51400D01*
X35045Y-51348D01*
X35352Y-51090D01*
X35543Y-50780D01*
X35582Y-50470D01*
X35505Y-50108D01*
X35237Y-49850D01*
X34968Y-49747D01*
X34623D01*
G01X34968D02*
X35198Y-49592D01*
X35390Y-49333D01*
X35467Y-49023D01*
X35390Y-48713D01*
X35198Y-48455D01*
X34853Y-48300D01*
X34508Y-48352D01*
X34163Y-48558D01*
G01X37800Y-48300D02*
X37493Y-48403D01*
X37263Y-48662D01*
X37110Y-48972D01*
X36995Y-49385D01*
X36957Y-49850D01*
X36995Y-50315D01*
X37110Y-50728D01*
X37263Y-51038D01*
X37493Y-51297D01*
X37800Y-51400D01*
X38107Y-51297D01*
X38337Y-51038D01*
X38490Y-50728D01*
X38605Y-50315D01*
X38643Y-49850D01*
X38605Y-49385D01*
X38490Y-48972D01*
X38337Y-48662D01*
X38107Y-48403D01*
X37800Y-48300D01*
G01X30533Y45300D02*
Y48400D01*
X31492D01*
X31798Y48245D01*
X31990Y48038D01*
X32067Y47625D01*
X31990Y47212D01*
X31760Y46953D01*
X31492Y46798D01*
X30533D01*
G01X31492D02*
X32067Y45300D01*
G01X34860D02*
Y48400D01*
X33442Y46178D01*
X35358D01*
G01X37500Y45300D02*
X37768Y45352D01*
X38075Y45507D01*
X38267Y45765D01*
X38343Y46127D01*
X38267Y46488D01*
X38037Y46798D01*
X37692Y46953D01*
X37308D01*
X37078Y47057D01*
X36887Y47315D01*
X36810Y47677D01*
X36925Y48038D01*
X37193Y48297D01*
X37500Y48400D01*
X37807Y48297D01*
X38075Y48038D01*
X38190Y47677D01*
X38113Y47315D01*
X37922Y47057D01*
X37692Y46953D01*
X37308D01*
X36963Y46798D01*
X36733Y46488D01*
X36657Y46127D01*
X36733Y45765D01*
X36925Y45507D01*
X37232Y45352D01*
X37500Y45300D01*
G01X29533Y98100D02*
Y101200D01*
X30492D01*
X30798Y101045D01*
X30990Y100838D01*
X31067Y100425D01*
X30990Y100012D01*
X30760Y99753D01*
X30492Y99598D01*
X29533D01*
G01X30492D02*
X31067Y98100D01*
G01X33860D02*
Y101200D01*
X32442Y98978D01*
X34358D01*
G01X36500Y98100D02*
Y101200D01*
X36040Y100580D01*
G01Y98100D02*
X36960D01*
G01X30267Y114800D02*
Y117300D01*
X30933D01*
X31147Y117175D01*
X31280Y117008D01*
X31333Y116675D01*
X31280Y116342D01*
X31120Y116133D01*
X30933Y116008D01*
X30267D01*
G01X30933D02*
X31333Y114800D01*
G01X33320D02*
Y117300D01*
X32333Y115508D01*
X33667D01*
G01X35200Y117300D02*
X34987Y117217D01*
X34827Y117008D01*
X34720Y116758D01*
X34640Y116425D01*
X34613Y116050D01*
X34640Y115675D01*
X34720Y115342D01*
X34827Y115092D01*
X34987Y114883D01*
X35200Y114800D01*
X35413Y114883D01*
X35573Y115092D01*
X35680Y115342D01*
X35760Y115675D01*
X35787Y116050D01*
X35760Y116425D01*
X35680Y116758D01*
X35573Y117008D01*
X35413Y117217D01*
X35200Y117300D01*
G01X34333Y-35300D02*
Y-32200D01*
X35292D01*
X35598Y-32355D01*
X35790Y-32562D01*
X35867Y-32975D01*
X35790Y-33388D01*
X35560Y-33647D01*
X35292Y-33802D01*
X34333D01*
G01X35292D02*
X35867Y-35300D01*
G01X37357Y-34680D02*
X37587Y-35042D01*
X37893Y-35248D01*
X38238Y-35300D01*
X38545Y-35248D01*
X38852Y-34990D01*
X39043Y-34680D01*
X39082Y-34370D01*
X39005Y-34008D01*
X38737Y-33750D01*
X38468Y-33647D01*
X38123D01*
G01X38468D02*
X38698Y-33492D01*
X38890Y-33233D01*
X38967Y-32923D01*
X38890Y-32613D01*
X38698Y-32355D01*
X38353Y-32200D01*
X38008Y-32252D01*
X37663Y-32458D01*
G01X40572Y-32717D02*
X40802Y-32407D01*
X41070Y-32252D01*
X41377Y-32200D01*
X41760Y-32303D01*
X42028Y-32562D01*
X42105Y-32872D01*
X42067Y-33182D01*
X41913Y-33440D01*
X41147Y-33957D01*
X40802Y-34318D01*
X40572Y-34835D01*
X40495Y-35300D01*
X42105D01*
G01X34633Y-2500D02*
Y600D01*
X35592D01*
X35898Y445D01*
X36090Y238D01*
X36167Y-175D01*
X36090Y-588D01*
X35860Y-847D01*
X35592Y-1002D01*
X34633D01*
G01X35592D02*
X36167Y-2500D01*
G01X37772Y83D02*
X38002Y393D01*
X38270Y548D01*
X38577Y600D01*
X38960Y497D01*
X39228Y238D01*
X39305Y-72D01*
X39267Y-382D01*
X39113Y-640D01*
X38347Y-1157D01*
X38002Y-1518D01*
X37772Y-2035D01*
X37695Y-2500D01*
X39305D01*
G01X40872Y-1208D02*
X41140Y-847D01*
X41370Y-640D01*
X41677Y-537D01*
X41945Y-640D01*
X42137Y-847D01*
X42290Y-1157D01*
X42328Y-1518D01*
X42290Y-1828D01*
X42137Y-2138D01*
X41907Y-2397D01*
X41638Y-2500D01*
X41332Y-2397D01*
X41063Y-2087D01*
X40910Y-1622D01*
X40872Y-1105D01*
X40948Y-433D01*
X41063Y-72D01*
X41255Y290D01*
X41523Y548D01*
X41792Y600D01*
X42060Y497D01*
X42252Y238D01*
G01X33933Y28700D02*
Y31800D01*
X34892D01*
X35198Y31645D01*
X35390Y31438D01*
X35467Y31025D01*
X35390Y30612D01*
X35160Y30353D01*
X34892Y30198D01*
X33933D01*
G01X34892D02*
X35467Y28700D01*
G01X36957Y29320D02*
X37187Y28958D01*
X37493Y28752D01*
X37838Y28700D01*
X38145Y28752D01*
X38452Y29010D01*
X38643Y29320D01*
X38682Y29630D01*
X38605Y29992D01*
X38337Y30250D01*
X38068Y30353D01*
X37723D01*
G01X38068D02*
X38298Y30508D01*
X38490Y30767D01*
X38567Y31077D01*
X38490Y31387D01*
X38298Y31645D01*
X37953Y31800D01*
X37608Y31748D01*
X37263Y31542D01*
G01X40057Y29320D02*
X40287Y28958D01*
X40593Y28752D01*
X40938Y28700D01*
X41245Y28752D01*
X41552Y29010D01*
X41743Y29320D01*
X41782Y29630D01*
X41705Y29992D01*
X41437Y30250D01*
X41168Y30353D01*
X40823D01*
G01X41168D02*
X41398Y30508D01*
X41590Y30767D01*
X41667Y31077D01*
X41590Y31387D01*
X41398Y31645D01*
X41053Y31800D01*
X40708Y31748D01*
X40363Y31542D01*
G01X35433Y61900D02*
Y65000D01*
X36392D01*
X36698Y64845D01*
X36890Y64638D01*
X36967Y64225D01*
X36890Y63812D01*
X36660Y63553D01*
X36392Y63398D01*
X35433D01*
G01X36392D02*
X36967Y61900D01*
G01X38572Y64483D02*
X38802Y64793D01*
X39070Y64948D01*
X39377Y65000D01*
X39760Y64897D01*
X40028Y64638D01*
X40105Y64328D01*
X40067Y64018D01*
X39913Y63760D01*
X39147Y63243D01*
X38802Y62882D01*
X38572Y62365D01*
X38495Y61900D01*
X40105D01*
G01X42323D02*
X42400Y62572D01*
X42515Y63140D01*
X42668Y63657D01*
X42860Y64225D01*
X43167Y65000D01*
X41633D01*
G01X35343Y82442D02*
X35113Y82597D01*
X34845Y82700D01*
X34538D01*
X34193Y82545D01*
X33925Y82287D01*
X33733Y81977D01*
X33580Y81460D01*
X33542Y80995D01*
X33618Y80530D01*
X33733Y80220D01*
X33963Y79910D01*
X34232Y79703D01*
X34500Y79600D01*
X34768D01*
X35037Y79703D01*
X35267Y79858D01*
X35458Y80065D01*
G01X36757Y80220D02*
X36987Y79858D01*
X37293Y79652D01*
X37638Y79600D01*
X37945Y79652D01*
X38252Y79910D01*
X38443Y80220D01*
X38482Y80530D01*
X38405Y80892D01*
X38137Y81150D01*
X37868Y81253D01*
X37523D01*
G01X37868D02*
X38098Y81408D01*
X38290Y81667D01*
X38367Y81977D01*
X38290Y82287D01*
X38098Y82545D01*
X37753Y82700D01*
X37408Y82648D01*
X37063Y82442D01*
G01X39857Y80220D02*
X40087Y79858D01*
X40393Y79652D01*
X40738Y79600D01*
X41045Y79652D01*
X41352Y79910D01*
X41543Y80220D01*
X41582Y80530D01*
X41505Y80892D01*
X41237Y81150D01*
X40968Y81253D01*
X40623D01*
G01X40968D02*
X41198Y81408D01*
X41390Y81667D01*
X41467Y81977D01*
X41390Y82287D01*
X41198Y82545D01*
X40853Y82700D01*
X40508Y82648D01*
X40163Y82442D01*
G01X33357Y94600D02*
Y92378D01*
X33510Y91913D01*
X33817Y91603D01*
X34200Y91500D01*
X34583Y91603D01*
X34890Y91913D01*
X35043Y92378D01*
Y94600D01*
G01X37300Y91500D02*
Y94600D01*
X36840Y93980D01*
G01Y91500D02*
X37760D01*
G01X39557Y92120D02*
X39787Y91758D01*
X40093Y91552D01*
X40438Y91500D01*
X40745Y91552D01*
X41052Y91810D01*
X41243Y92120D01*
X41282Y92430D01*
X41205Y92792D01*
X40937Y93050D01*
X40668Y93153D01*
X40323D01*
G01X40668D02*
X40898Y93308D01*
X41090Y93567D01*
X41167Y93877D01*
X41090Y94187D01*
X40898Y94445D01*
X40553Y94600D01*
X40208Y94548D01*
X39863Y94342D01*
G01X33733Y151700D02*
Y154800D01*
X34692D01*
X34998Y154645D01*
X35190Y154438D01*
X35267Y154025D01*
X35190Y153612D01*
X34960Y153353D01*
X34692Y153198D01*
X33733D01*
G01X34692D02*
X35267Y151700D01*
G01X36757Y152320D02*
X36987Y151958D01*
X37293Y151752D01*
X37638Y151700D01*
X37945Y151752D01*
X38252Y152010D01*
X38443Y152320D01*
X38482Y152630D01*
X38405Y152992D01*
X38137Y153250D01*
X37868Y153353D01*
X37523D01*
G01X37868D02*
X38098Y153508D01*
X38290Y153767D01*
X38367Y154077D01*
X38290Y154387D01*
X38098Y154645D01*
X37753Y154800D01*
X37408Y154748D01*
X37063Y154542D01*
G01X40048Y152062D02*
X40317Y151803D01*
X40623Y151700D01*
X40930Y151803D01*
X41198Y152113D01*
X41390Y152578D01*
X41467Y153043D01*
Y153612D01*
X41390Y154077D01*
X41198Y154490D01*
X40968Y154697D01*
X40700Y154800D01*
X40393Y154697D01*
X40163Y154490D01*
X40010Y154180D01*
X39933Y153767D01*
X40010Y153405D01*
X40202Y153043D01*
X40432Y152837D01*
X40700Y152785D01*
X41007Y152888D01*
X41237Y153147D01*
X41467Y153612D01*
G01X38687Y116992D02*
X38527Y117117D01*
X38340Y117200D01*
X38127D01*
X37887Y117075D01*
X37700Y116867D01*
X37567Y116617D01*
X37460Y116200D01*
X37433Y115825D01*
X37487Y115450D01*
X37567Y115200D01*
X37727Y114950D01*
X37913Y114783D01*
X38100Y114700D01*
X38287D01*
X38473Y114783D01*
X38633Y114908D01*
X38767Y115075D01*
G01X39793Y116783D02*
X39953Y117033D01*
X40140Y117158D01*
X40353Y117200D01*
X40620Y117117D01*
X40807Y116908D01*
X40860Y116658D01*
X40833Y116408D01*
X40727Y116200D01*
X40193Y115783D01*
X39953Y115492D01*
X39793Y115075D01*
X39740Y114700D01*
X40860D01*
G01X42447D02*
X42500Y115242D01*
X42580Y115700D01*
X42687Y116117D01*
X42820Y116575D01*
X43033Y117200D01*
X41967D01*
G01X46650Y67200D02*
X46343Y67252D01*
X46075Y67458D01*
X45845Y67768D01*
X45692Y68130D01*
X45615Y68543D01*
Y68957D01*
X45692Y69370D01*
X45845Y69732D01*
X46075Y70042D01*
X46343Y70248D01*
X46650Y70300D01*
X46957Y70248D01*
X47225Y70042D01*
X47455Y69732D01*
X47608Y69370D01*
X47685Y68957D01*
Y68543D01*
X47608Y68130D01*
X47455Y67768D01*
X47225Y67458D01*
X46957Y67252D01*
X46650Y67200D01*
G01X46957Y68027D02*
X47417Y67200D01*
G01X49022Y69783D02*
X49252Y70093D01*
X49520Y70248D01*
X49827Y70300D01*
X50210Y70197D01*
X50478Y69938D01*
X50555Y69628D01*
X50517Y69318D01*
X50363Y69060D01*
X49597Y68543D01*
X49252Y68182D01*
X49022Y67665D01*
X48945Y67200D01*
X50555D01*
G01X48133Y-51200D02*
Y-48100D01*
X49092D01*
X49398Y-48255D01*
X49590Y-48462D01*
X49667Y-48875D01*
X49590Y-49288D01*
X49360Y-49547D01*
X49092Y-49702D01*
X48133D01*
G01X49092D02*
X49667Y-51200D01*
G01X51272Y-48617D02*
X51502Y-48307D01*
X51770Y-48152D01*
X52077Y-48100D01*
X52460Y-48203D01*
X52728Y-48462D01*
X52805Y-48772D01*
X52767Y-49082D01*
X52613Y-49340D01*
X51847Y-49857D01*
X51502Y-50218D01*
X51272Y-50735D01*
X51195Y-51200D01*
X52805D01*
G01X55100D02*
X55368Y-51148D01*
X55675Y-50993D01*
X55867Y-50735D01*
X55943Y-50373D01*
X55867Y-50012D01*
X55637Y-49702D01*
X55292Y-49547D01*
X54908D01*
X54678Y-49443D01*
X54487Y-49185D01*
X54410Y-48823D01*
X54525Y-48462D01*
X54793Y-48203D01*
X55100Y-48100D01*
X55407Y-48203D01*
X55675Y-48462D01*
X55790Y-48823D01*
X55713Y-49185D01*
X55522Y-49443D01*
X55292Y-49547D01*
X54908D01*
X54563Y-49702D01*
X54333Y-50012D01*
X54257Y-50373D01*
X54333Y-50735D01*
X54525Y-50993D01*
X54832Y-51148D01*
X55100Y-51200D01*
G01X48587Y116892D02*
X48427Y117017D01*
X48240Y117100D01*
X48027D01*
X47787Y116975D01*
X47600Y116767D01*
X47467Y116517D01*
X47360Y116100D01*
X47333Y115725D01*
X47387Y115350D01*
X47467Y115100D01*
X47627Y114850D01*
X47813Y114683D01*
X48000Y114600D01*
X48187D01*
X48373Y114683D01*
X48533Y114808D01*
X48667Y114975D01*
G01X49693Y116683D02*
X49853Y116933D01*
X50040Y117058D01*
X50253Y117100D01*
X50520Y117017D01*
X50707Y116808D01*
X50760Y116558D01*
X50733Y116308D01*
X50627Y116100D01*
X50093Y115683D01*
X49853Y115392D01*
X49693Y114975D01*
X49640Y114600D01*
X50760D01*
G01X51893Y115642D02*
X52080Y115933D01*
X52240Y116100D01*
X52453Y116183D01*
X52640Y116100D01*
X52773Y115933D01*
X52880Y115683D01*
X52907Y115392D01*
X52880Y115142D01*
X52773Y114892D01*
X52613Y114683D01*
X52427Y114600D01*
X52213Y114683D01*
X52027Y114933D01*
X51920Y115308D01*
X51893Y115725D01*
X51947Y116267D01*
X52027Y116558D01*
X52160Y116850D01*
X52347Y117058D01*
X52533Y117100D01*
X52720Y117017D01*
X52853Y116808D01*
G01X48367Y130300D02*
Y132800D01*
X49033D01*
X49247Y132675D01*
X49380Y132508D01*
X49433Y132175D01*
X49380Y131842D01*
X49220Y131633D01*
X49033Y131508D01*
X48367D01*
G01X49033D02*
X49433Y130300D01*
G01X51420D02*
Y132800D01*
X50433Y131008D01*
X51767D01*
G01X52713Y130675D02*
X52873Y130467D01*
X53060Y130342D01*
X53300Y130300D01*
X53540Y130383D01*
X53727Y130550D01*
X53860Y130842D01*
X53887Y131175D01*
X53833Y131508D01*
X53700Y131717D01*
X53513Y131883D01*
X53327Y131925D01*
X53140Y131883D01*
X52900Y131717D01*
X52980Y132800D01*
X53700D01*
G01X47157Y156200D02*
Y153978D01*
X47310Y153513D01*
X47617Y153203D01*
X48000Y153100D01*
X48383Y153203D01*
X48690Y153513D01*
X48843Y153978D01*
Y156200D01*
G01X51100Y153100D02*
Y156200D01*
X50640Y155580D01*
G01Y153100D02*
X51560D01*
G01X53472Y155683D02*
X53702Y155993D01*
X53970Y156148D01*
X54277Y156200D01*
X54660Y156097D01*
X54928Y155838D01*
X55005Y155528D01*
X54967Y155218D01*
X54813Y154960D01*
X54047Y154443D01*
X53702Y154082D01*
X53472Y153565D01*
X53395Y153100D01*
X55005D01*
G01X53350Y-28200D02*
X53043Y-28148D01*
X52775Y-27942D01*
X52545Y-27632D01*
X52392Y-27270D01*
X52315Y-26857D01*
Y-26443D01*
X52392Y-26030D01*
X52545Y-25668D01*
X52775Y-25358D01*
X53043Y-25152D01*
X53350Y-25100D01*
X53657Y-25152D01*
X53925Y-25358D01*
X54155Y-25668D01*
X54308Y-26030D01*
X54385Y-26443D01*
Y-26857D01*
X54308Y-27270D01*
X54155Y-27632D01*
X53925Y-27942D01*
X53657Y-28148D01*
X53350Y-28200D01*
G01X53657Y-27373D02*
X54117Y-28200D01*
G01X55607Y-27580D02*
X55837Y-27942D01*
X56143Y-28148D01*
X56488Y-28200D01*
X56795Y-28148D01*
X57102Y-27890D01*
X57293Y-27580D01*
X57332Y-27270D01*
X57255Y-26908D01*
X56987Y-26650D01*
X56718Y-26547D01*
X56373D01*
G01X56718D02*
X56948Y-26392D01*
X57140Y-26133D01*
X57217Y-25823D01*
X57140Y-25513D01*
X56948Y-25255D01*
X56603Y-25100D01*
X56258Y-25152D01*
X55913Y-25358D01*
G01X53750Y34800D02*
X53443Y34852D01*
X53175Y35058D01*
X52945Y35368D01*
X52792Y35730D01*
X52715Y36143D01*
Y36557D01*
X52792Y36970D01*
X52945Y37332D01*
X53175Y37642D01*
X53443Y37848D01*
X53750Y37900D01*
X54057Y37848D01*
X54325Y37642D01*
X54555Y37332D01*
X54708Y36970D01*
X54785Y36557D01*
Y36143D01*
X54708Y35730D01*
X54555Y35368D01*
X54325Y35058D01*
X54057Y34852D01*
X53750Y34800D01*
G01X54057Y35627D02*
X54517Y34800D01*
G01X57310D02*
Y37900D01*
X55892Y35678D01*
X57808D01*
G01X51733Y102200D02*
Y105300D01*
X52692D01*
X52998Y105145D01*
X53190Y104938D01*
X53267Y104525D01*
X53190Y104112D01*
X52960Y103853D01*
X52692Y103698D01*
X51733D01*
G01X52692D02*
X53267Y102200D01*
G01X56060D02*
Y105300D01*
X54642Y103078D01*
X56558D01*
G01X57972Y104783D02*
X58202Y105093D01*
X58470Y105248D01*
X58777Y105300D01*
X59160Y105197D01*
X59428Y104938D01*
X59505Y104628D01*
X59467Y104318D01*
X59313Y104060D01*
X58547Y103543D01*
X58202Y103182D01*
X57972Y102665D01*
X57895Y102200D01*
X59505D01*
G01X53143Y112742D02*
X52913Y112897D01*
X52645Y113000D01*
X52338D01*
X51993Y112845D01*
X51725Y112587D01*
X51533Y112277D01*
X51380Y111760D01*
X51342Y111295D01*
X51418Y110830D01*
X51533Y110520D01*
X51763Y110210D01*
X52032Y110003D01*
X52300Y109900D01*
X52568D01*
X52837Y110003D01*
X53067Y110158D01*
X53258Y110365D01*
G01X54557Y110520D02*
X54787Y110158D01*
X55093Y109952D01*
X55438Y109900D01*
X55745Y109952D01*
X56052Y110210D01*
X56243Y110520D01*
X56282Y110830D01*
X56205Y111192D01*
X55937Y111450D01*
X55668Y111553D01*
X55323D01*
G01X55668D02*
X55898Y111708D01*
X56090Y111967D01*
X56167Y112277D01*
X56090Y112587D01*
X55898Y112845D01*
X55553Y113000D01*
X55208Y112948D01*
X54863Y112742D01*
G01X58500Y113000D02*
X58193Y112897D01*
X57963Y112638D01*
X57810Y112328D01*
X57695Y111915D01*
X57657Y111450D01*
X57695Y110985D01*
X57810Y110572D01*
X57963Y110262D01*
X58193Y110003D01*
X58500Y109900D01*
X58807Y110003D01*
X59037Y110262D01*
X59190Y110572D01*
X59305Y110985D01*
X59343Y111450D01*
X59305Y111915D01*
X59190Y112328D01*
X59037Y112638D01*
X58807Y112897D01*
X58500Y113000D01*
G01X55150Y4300D02*
X54843Y4352D01*
X54575Y4558D01*
X54345Y4868D01*
X54192Y5230D01*
X54115Y5643D01*
Y6057D01*
X54192Y6470D01*
X54345Y6832D01*
X54575Y7142D01*
X54843Y7348D01*
X55150Y7400D01*
X55457Y7348D01*
X55725Y7142D01*
X55955Y6832D01*
X56108Y6470D01*
X56185Y6057D01*
Y5643D01*
X56108Y5230D01*
X55955Y4868D01*
X55725Y4558D01*
X55457Y4352D01*
X55150Y4300D01*
G01X55457Y5127D02*
X55917Y4300D01*
G01X58250D02*
Y7400D01*
X57790Y6780D01*
G01Y4300D02*
X58710D01*
G01X55833Y-11300D02*
Y-8200D01*
X56792D01*
X57098Y-8355D01*
X57290Y-8562D01*
X57367Y-8975D01*
X57290Y-9388D01*
X57060Y-9647D01*
X56792Y-9802D01*
X55833D01*
G01X56792D02*
X57367Y-11300D01*
G01X58972Y-8717D02*
X59202Y-8407D01*
X59470Y-8252D01*
X59777Y-8200D01*
X60160Y-8303D01*
X60428Y-8562D01*
X60505Y-8872D01*
X60467Y-9182D01*
X60313Y-9440D01*
X59547Y-9957D01*
X59202Y-10318D01*
X58972Y-10835D01*
X58895Y-11300D01*
X60505D01*
G01X61957Y-10680D02*
X62187Y-11042D01*
X62493Y-11248D01*
X62838Y-11300D01*
X63145Y-11248D01*
X63452Y-10990D01*
X63643Y-10680D01*
X63682Y-10370D01*
X63605Y-10008D01*
X63337Y-9750D01*
X63068Y-9647D01*
X62723D01*
G01X63068D02*
X63298Y-9492D01*
X63490Y-9233D01*
X63567Y-8923D01*
X63490Y-8613D01*
X63298Y-8355D01*
X62953Y-8200D01*
X62608Y-8252D01*
X62263Y-8458D01*
G01X55833Y20000D02*
Y23100D01*
X56792D01*
X57098Y22945D01*
X57290Y22738D01*
X57367Y22325D01*
X57290Y21912D01*
X57060Y21653D01*
X56792Y21498D01*
X55833D01*
G01X56792D02*
X57367Y20000D01*
G01X58972Y22583D02*
X59202Y22893D01*
X59470Y23048D01*
X59777Y23100D01*
X60160Y22997D01*
X60428Y22738D01*
X60505Y22428D01*
X60467Y22118D01*
X60313Y21860D01*
X59547Y21343D01*
X59202Y20982D01*
X58972Y20465D01*
X58895Y20000D01*
X60505D01*
G01X62148Y20362D02*
X62417Y20103D01*
X62723Y20000D01*
X63030Y20103D01*
X63298Y20413D01*
X63490Y20878D01*
X63567Y21343D01*
Y21912D01*
X63490Y22377D01*
X63298Y22790D01*
X63068Y22997D01*
X62800Y23100D01*
X62493Y22997D01*
X62263Y22790D01*
X62110Y22480D01*
X62033Y22067D01*
X62110Y21705D01*
X62302Y21343D01*
X62532Y21137D01*
X62800Y21085D01*
X63107Y21188D01*
X63337Y21447D01*
X63567Y21912D01*
G01X58633Y53300D02*
Y56400D01*
X59592D01*
X59898Y56245D01*
X60090Y56038D01*
X60167Y55625D01*
X60090Y55212D01*
X59860Y54953D01*
X59592Y54798D01*
X58633D01*
G01X59592D02*
X60167Y53300D01*
G01X61772Y55883D02*
X62002Y56193D01*
X62270Y56348D01*
X62577Y56400D01*
X62960Y56297D01*
X63228Y56038D01*
X63305Y55728D01*
X63267Y55418D01*
X63113Y55160D01*
X62347Y54643D01*
X62002Y54282D01*
X61772Y53765D01*
X61695Y53300D01*
X63305D01*
G01X66060D02*
Y56400D01*
X64642Y54178D01*
X66558D01*
G01X58433Y152100D02*
Y155200D01*
X59392D01*
X59698Y155045D01*
X59890Y154838D01*
X59967Y154425D01*
X59890Y154012D01*
X59660Y153753D01*
X59392Y153598D01*
X58433D01*
G01X59392D02*
X59967Y152100D01*
G01X61457Y152720D02*
X61687Y152358D01*
X61993Y152152D01*
X62338Y152100D01*
X62645Y152152D01*
X62952Y152410D01*
X63143Y152720D01*
X63182Y153030D01*
X63105Y153392D01*
X62837Y153650D01*
X62568Y153753D01*
X62223D01*
G01X62568D02*
X62798Y153908D01*
X62990Y154167D01*
X63067Y154477D01*
X62990Y154787D01*
X62798Y155045D01*
X62453Y155200D01*
X62108Y155148D01*
X61763Y154942D01*
G01X65400Y152100D02*
X65668Y152152D01*
X65975Y152307D01*
X66167Y152565D01*
X66243Y152927D01*
X66167Y153288D01*
X65937Y153598D01*
X65592Y153753D01*
X65208D01*
X64978Y153857D01*
X64787Y154115D01*
X64710Y154477D01*
X64825Y154838D01*
X65093Y155097D01*
X65400Y155200D01*
X65707Y155097D01*
X65975Y154838D01*
X66090Y154477D01*
X66013Y154115D01*
X65822Y153857D01*
X65592Y153753D01*
X65208D01*
X64863Y153598D01*
X64633Y153288D01*
X64557Y152927D01*
X64633Y152565D01*
X64825Y152307D01*
X65132Y152152D01*
X65400Y152100D01*
G01X61033Y121300D02*
Y124400D01*
X61992D01*
X62298Y124245D01*
X62490Y124038D01*
X62567Y123625D01*
X62490Y123212D01*
X62260Y122953D01*
X61992Y122798D01*
X61033D01*
G01X61992D02*
X62567Y121300D01*
G01X65360D02*
Y124400D01*
X63942Y122178D01*
X65858D01*
G01X67272Y122592D02*
X67540Y122953D01*
X67770Y123160D01*
X68077Y123263D01*
X68345Y123160D01*
X68537Y122953D01*
X68690Y122643D01*
X68728Y122282D01*
X68690Y121972D01*
X68537Y121662D01*
X68307Y121403D01*
X68038Y121300D01*
X67732Y121403D01*
X67463Y121713D01*
X67310Y122178D01*
X67272Y122695D01*
X67348Y123367D01*
X67463Y123728D01*
X67655Y124090D01*
X67923Y124348D01*
X68192Y124400D01*
X68460Y124297D01*
X68652Y124038D01*
G01X62083Y-69500D02*
Y-66400D01*
X63042D01*
X63348Y-66555D01*
X63540Y-66762D01*
X63617Y-67175D01*
X63540Y-67588D01*
X63310Y-67847D01*
X63042Y-68002D01*
X62083D01*
G01X63042D02*
X63617Y-69500D01*
G01X65950D02*
Y-66400D01*
X65490Y-67020D01*
G01Y-69500D02*
X66410D01*
G01X64987Y139092D02*
X64827Y139217D01*
X64640Y139300D01*
X64427D01*
X64187Y139175D01*
X64000Y138967D01*
X63867Y138717D01*
X63760Y138300D01*
X63733Y137925D01*
X63787Y137550D01*
X63867Y137300D01*
X64027Y137050D01*
X64213Y136883D01*
X64400Y136800D01*
X64587D01*
X64773Y136883D01*
X64933Y137008D01*
X65067Y137175D01*
G01X66093Y138883D02*
X66253Y139133D01*
X66440Y139258D01*
X66653Y139300D01*
X66920Y139217D01*
X67107Y139008D01*
X67160Y138758D01*
X67133Y138508D01*
X67027Y138300D01*
X66493Y137883D01*
X66253Y137592D01*
X66093Y137175D01*
X66040Y136800D01*
X67160D01*
G01X68800D02*
X68987Y136842D01*
X69200Y136967D01*
X69333Y137175D01*
X69387Y137467D01*
X69333Y137758D01*
X69173Y138008D01*
X68933Y138133D01*
X68667D01*
X68507Y138217D01*
X68373Y138425D01*
X68320Y138717D01*
X68400Y139008D01*
X68587Y139217D01*
X68800Y139300D01*
X69013Y139217D01*
X69200Y139008D01*
X69280Y138717D01*
X69227Y138425D01*
X69093Y138217D01*
X68933Y138133D01*
X68667D01*
X68427Y138008D01*
X68267Y137758D01*
X68213Y137467D01*
X68267Y137175D01*
X68400Y136967D01*
X68613Y136842D01*
X68800Y136800D01*
G01X67543Y84642D02*
X67313Y84797D01*
X67045Y84900D01*
X66738D01*
X66393Y84745D01*
X66125Y84487D01*
X65933Y84177D01*
X65780Y83660D01*
X65742Y83195D01*
X65818Y82730D01*
X65933Y82420D01*
X66163Y82110D01*
X66432Y81903D01*
X66700Y81800D01*
X66968D01*
X67237Y81903D01*
X67467Y82058D01*
X67658Y82265D01*
G01X68957Y82420D02*
X69187Y82058D01*
X69493Y81852D01*
X69838Y81800D01*
X70145Y81852D01*
X70452Y82110D01*
X70643Y82420D01*
X70682Y82730D01*
X70605Y83092D01*
X70337Y83350D01*
X70068Y83453D01*
X69723D01*
G01X70068D02*
X70298Y83608D01*
X70490Y83867D01*
X70567Y84177D01*
X70490Y84487D01*
X70298Y84745D01*
X69953Y84900D01*
X69608Y84848D01*
X69263Y84642D01*
G01X72057Y82265D02*
X72287Y82007D01*
X72555Y81852D01*
X72900Y81800D01*
X73245Y81903D01*
X73513Y82110D01*
X73705Y82472D01*
X73743Y82885D01*
X73667Y83298D01*
X73475Y83557D01*
X73207Y83763D01*
X72938Y83815D01*
X72670Y83763D01*
X72325Y83557D01*
X72440Y84900D01*
X73475D01*
G01X68333Y151800D02*
Y154900D01*
X69292D01*
X69598Y154745D01*
X69790Y154538D01*
X69867Y154125D01*
X69790Y153712D01*
X69560Y153453D01*
X69292Y153298D01*
X68333D01*
G01X69292D02*
X69867Y151800D01*
G01X72660D02*
Y154900D01*
X71242Y152678D01*
X73158D01*
G01X75760Y151800D02*
Y154900D01*
X74342Y152678D01*
X76258D01*
G01X73487Y139092D02*
X73327Y139217D01*
X73140Y139300D01*
X72927D01*
X72687Y139175D01*
X72500Y138967D01*
X72367Y138717D01*
X72260Y138300D01*
X72233Y137925D01*
X72287Y137550D01*
X72367Y137300D01*
X72527Y137050D01*
X72713Y136883D01*
X72900Y136800D01*
X73087D01*
X73273Y136883D01*
X73433Y137008D01*
X73567Y137175D01*
G01X74593Y138883D02*
X74753Y139133D01*
X74940Y139258D01*
X75153Y139300D01*
X75420Y139217D01*
X75607Y139008D01*
X75660Y138758D01*
X75633Y138508D01*
X75527Y138300D01*
X74993Y137883D01*
X74753Y137592D01*
X74593Y137175D01*
X74540Y136800D01*
X75660D01*
G01X76847Y137092D02*
X77033Y136883D01*
X77247Y136800D01*
X77460Y136883D01*
X77647Y137133D01*
X77780Y137508D01*
X77833Y137883D01*
Y138342D01*
X77780Y138717D01*
X77647Y139050D01*
X77487Y139217D01*
X77300Y139300D01*
X77087Y139217D01*
X76927Y139050D01*
X76820Y138800D01*
X76767Y138467D01*
X76820Y138175D01*
X76953Y137883D01*
X77113Y137717D01*
X77300Y137675D01*
X77513Y137758D01*
X77673Y137967D01*
X77833Y138342D01*
G01X74983Y-35280D02*
X75175Y-35590D01*
X75405Y-35797D01*
X75673Y-35900D01*
X75980Y-35797D01*
X76210Y-35590D01*
X76440Y-35280D01*
X76517Y-34867D01*
Y-32800D01*
G01X78122Y-33317D02*
X78352Y-33007D01*
X78620Y-32852D01*
X78927Y-32800D01*
X79310Y-32903D01*
X79578Y-33162D01*
X79655Y-33472D01*
X79617Y-33782D01*
X79463Y-34040D01*
X78697Y-34557D01*
X78352Y-34918D01*
X78122Y-35435D01*
X78045Y-35900D01*
X79655D01*
G01X76057Y106100D02*
Y103878D01*
X76210Y103413D01*
X76517Y103103D01*
X76900Y103000D01*
X77283Y103103D01*
X77590Y103413D01*
X77743Y103878D01*
Y106100D01*
G01X80000Y103000D02*
Y106100D01*
X79540Y105480D01*
G01Y103000D02*
X80460D01*
G01X82257Y103465D02*
X82487Y103207D01*
X82755Y103052D01*
X83100Y103000D01*
X83445Y103103D01*
X83713Y103310D01*
X83905Y103672D01*
X83943Y104085D01*
X83867Y104498D01*
X83675Y104757D01*
X83407Y104963D01*
X83138Y105015D01*
X82870Y104963D01*
X82525Y104757D01*
X82640Y106100D01*
X83675D01*
G01X79633Y166300D02*
Y169400D01*
X80592D01*
X80898Y169245D01*
X81090Y169038D01*
X81167Y168625D01*
X81090Y168212D01*
X80860Y167953D01*
X80592Y167798D01*
X79633D01*
G01X80592D02*
X81167Y166300D01*
G01X83960D02*
Y169400D01*
X82542Y167178D01*
X84458D01*
G01X85757Y166920D02*
X85987Y166558D01*
X86293Y166352D01*
X86638Y166300D01*
X86945Y166352D01*
X87252Y166610D01*
X87443Y166920D01*
X87482Y167230D01*
X87405Y167592D01*
X87137Y167850D01*
X86868Y167953D01*
X86523D01*
G01X86868D02*
X87098Y168108D01*
X87290Y168367D01*
X87367Y168677D01*
X87290Y168987D01*
X87098Y169245D01*
X86753Y169400D01*
X86408Y169348D01*
X86063Y169142D01*
G01X84543Y112742D02*
X84313Y112897D01*
X84045Y113000D01*
X83738D01*
X83393Y112845D01*
X83125Y112587D01*
X82933Y112277D01*
X82780Y111760D01*
X82742Y111295D01*
X82818Y110830D01*
X82933Y110520D01*
X83163Y110210D01*
X83432Y110003D01*
X83700Y109900D01*
X83968D01*
X84237Y110003D01*
X84467Y110158D01*
X84658Y110365D01*
G01X85957Y110520D02*
X86187Y110158D01*
X86493Y109952D01*
X86838Y109900D01*
X87145Y109952D01*
X87452Y110210D01*
X87643Y110520D01*
X87682Y110830D01*
X87605Y111192D01*
X87337Y111450D01*
X87068Y111553D01*
X86723D01*
G01X87068D02*
X87298Y111708D01*
X87490Y111967D01*
X87567Y112277D01*
X87490Y112587D01*
X87298Y112845D01*
X86953Y113000D01*
X86608Y112948D01*
X86263Y112742D01*
G01X89900Y109900D02*
Y113000D01*
X89440Y112380D01*
G01Y109900D02*
X90360D01*
G01X82633Y116300D02*
Y119400D01*
X83592D01*
X83898Y119245D01*
X84090Y119038D01*
X84167Y118625D01*
X84090Y118212D01*
X83860Y117953D01*
X83592Y117798D01*
X82633D01*
G01X83592D02*
X84167Y116300D01*
G01X86960D02*
Y119400D01*
X85542Y117178D01*
X87458D01*
G01X89523Y116300D02*
X89600Y116972D01*
X89715Y117540D01*
X89868Y118057D01*
X90060Y118625D01*
X90367Y119400D01*
X88833D01*
G01X87957Y155500D02*
Y153278D01*
X88110Y152813D01*
X88417Y152503D01*
X88800Y152400D01*
X89183Y152503D01*
X89490Y152813D01*
X89643Y153278D01*
Y155500D01*
G01X91900Y152400D02*
Y155500D01*
X91440Y154880D01*
G01Y152400D02*
X92360D01*
G01X95460D02*
Y155500D01*
X94042Y153278D01*
X95958D01*
G01X94743Y135542D02*
X94513Y135697D01*
X94245Y135800D01*
X93938D01*
X93593Y135645D01*
X93325Y135387D01*
X93133Y135077D01*
X92980Y134560D01*
X92942Y134095D01*
X93018Y133630D01*
X93133Y133320D01*
X93363Y133010D01*
X93632Y132803D01*
X93900Y132700D01*
X94168D01*
X94437Y132803D01*
X94667Y132958D01*
X94858Y133165D01*
G01X96157Y133320D02*
X96387Y132958D01*
X96693Y132752D01*
X97038Y132700D01*
X97345Y132752D01*
X97652Y133010D01*
X97843Y133320D01*
X97882Y133630D01*
X97805Y133992D01*
X97537Y134250D01*
X97268Y134353D01*
X96923D01*
G01X97268D02*
X97498Y134508D01*
X97690Y134767D01*
X97767Y135077D01*
X97690Y135387D01*
X97498Y135645D01*
X97153Y135800D01*
X96808Y135748D01*
X96463Y135542D01*
G01X100560Y132700D02*
Y135800D01*
X99142Y133578D01*
X101058D01*
G54D12*
G01X-193079Y102939D02*
X-156679D01*
G01X-193079Y152339D02*
Y102939D01*
G01Y152339D02*
Y102939D01*
G01D02*
X-156679D01*
G01Y152339D02*
X-193079D01*
G01X-156679D02*
X-193079D01*
G01X-188800Y28100D02*
X-177800D01*
G01X-188800Y89100D02*
Y28100D01*
G01Y89100D02*
Y28100D01*
G01D02*
X-177800D01*
G01Y89100D02*
X-188800D01*
G01X-177800D02*
X-188800D01*
G01X-176158Y-108161D02*
X-174642D01*
G01X-176158D02*
X-174642D01*
G01Y-102239D02*
X-176158D01*
G01X-174642D02*
X-176158D01*
G01X-177000Y-15750D02*
Y-21450D01*
G01Y-15750D02*
Y-21450D01*
G01X-177800Y28100D02*
Y89100D01*
G01Y28100D02*
Y89100D01*
G01X-172950Y-87761D02*
Y-90039D01*
G01Y-87761D02*
Y-90039D01*
G01X-172800Y-21450D02*
Y-15750D01*
G01Y-21450D02*
Y-15750D01*
G01X-167700Y-35950D02*
Y-41650D01*
G01Y-35950D02*
Y-41650D01*
G01X-166450Y-90039D02*
Y-87761D01*
G01Y-90039D02*
Y-87761D01*
G01X-162950Y-87861D02*
Y-90139D01*
G01Y-87861D02*
Y-90139D01*
G01X-163500Y-41650D02*
Y-35950D01*
G01Y-41650D02*
Y-35950D01*
G01X-163361Y68258D02*
Y66742D01*
G01Y68258D02*
Y66742D01*
G01X-159300Y-46050D02*
Y-51750D01*
G01Y-46050D02*
Y-51750D01*
G01X-156450Y-90139D02*
Y-87861D01*
G01Y-90139D02*
Y-87861D01*
G01X-157439Y66742D02*
Y68258D01*
G01Y66742D02*
Y68258D01*
G01X-156679Y102939D02*
Y152339D01*
G01Y102939D02*
Y152339D01*
G01X-155100Y-51750D02*
Y-46050D01*
G01Y-51750D02*
Y-46050D01*
G01X-155000Y69100D02*
X-139400D01*
G01X-155000Y96500D02*
Y69100D01*
G01Y96500D02*
Y69100D01*
G01D02*
X-139400D01*
G01Y96500D02*
X-155000D01*
G01X-139400D02*
X-155000D01*
G01X-153461Y-88442D02*
Y-89958D01*
G01Y-88442D02*
Y-89958D01*
G01X-153550Y62039D02*
Y59761D01*
G01Y62039D02*
Y59761D01*
G01X-149950Y179700D02*
X-144250D01*
G01X-149950D02*
X-144250D01*
G01Y183900D02*
X-149950D01*
G01X-144250D02*
X-149950D01*
G01X-147539Y-89958D02*
Y-88442D01*
G01Y-89958D02*
Y-88442D01*
G01X-148500Y-65650D02*
Y-71350D01*
G01Y-65650D02*
Y-71350D01*
G01X-147758Y100239D02*
X-146242D01*
G01X-147758D02*
X-146242D01*
G01Y106161D02*
X-147758D01*
G01X-146242D02*
X-147758D01*
G01X-148339Y168350D02*
X-146061D01*
G01X-148339D02*
X-146061D01*
G01Y174850D02*
X-148339D01*
G01X-146061D02*
X-148339D01*
G01X-144950Y62039D02*
Y59761D01*
G01Y62039D02*
Y59761D01*
G01X-147050D02*
Y62039D01*
G01Y59761D02*
Y62039D01*
G01X-144300Y-71350D02*
Y-65650D01*
G01Y-71350D02*
Y-65650D01*
G01X-144900Y108600D02*
X-117500D01*
G01X-144900Y124200D02*
Y108600D01*
G01Y124200D02*
Y108600D01*
G01D02*
X-117500D01*
G01Y124200D02*
X-144900D01*
G01X-117500D02*
X-144900D01*
G01X-138900Y-55850D02*
Y-61550D01*
G01Y-55850D02*
Y-61550D01*
G01X-138450Y59761D02*
Y62039D01*
G01Y59761D02*
Y62039D01*
G01X-139400Y69100D02*
Y96500D01*
G01Y69100D02*
Y96500D01*
G01X-137358Y153539D02*
X-135842D01*
G01X-137358D02*
X-135842D01*
G01Y159461D02*
X-137358D01*
G01X-135842D02*
X-137358D01*
G01X-134700Y-61550D02*
Y-55850D01*
G01Y-61550D02*
Y-55850D01*
G01X-129739Y135450D02*
X-127461D01*
G01X-129739D02*
X-127461D01*
G01Y141950D02*
X-129739D01*
G01X-127461D02*
X-129739D01*
G01X-128161Y88858D02*
Y87342D01*
G01Y88858D02*
Y87342D01*
G01X-122239D02*
Y88858D01*
G01Y87342D02*
Y88858D01*
G01X-121150Y159800D02*
X-115450D01*
G01X-121150D02*
X-115450D01*
G01Y164000D02*
X-121150D01*
G01X-115450D02*
X-121150D01*
G01X-120250Y143739D02*
Y141461D01*
G01Y143739D02*
Y141461D01*
G01X-119839Y151450D02*
X-117561D01*
G01X-119839D02*
X-117561D01*
G01Y157950D02*
X-119839D01*
G01X-117561D02*
X-119839D01*
G01X-117500Y108600D02*
Y124200D01*
G01Y108600D02*
Y124200D01*
G01X-115300Y83600D02*
X-106410D01*
G01X-115300Y113400D02*
Y83600D01*
G01Y113400D02*
Y83600D01*
G01D02*
X-106410D01*
G01Y113400D02*
X-115300D01*
G01X-106410D02*
X-115300D01*
G01X-113750Y141461D02*
Y143739D01*
G01Y141461D02*
Y143739D01*
G01X-110050Y119750D02*
X-97060D01*
G01X-110050Y154250D02*
Y119750D01*
G01Y154250D02*
Y119750D01*
G01D02*
X-97060D01*
G01Y154250D02*
X-110050D01*
G01X-97060D02*
X-110050D01*
G01X-109661Y64458D02*
Y62942D01*
G01Y64458D02*
Y62942D01*
G01X-103739D02*
Y64458D01*
G01Y62942D02*
Y64458D01*
G01X-105150Y159600D02*
X-99450D01*
G01X-105150D02*
X-99450D01*
G01Y163800D02*
X-105150D01*
G01X-99450D02*
X-105150D01*
G01X-101961Y64458D02*
Y62942D01*
G01Y64458D02*
Y62942D01*
G01X-97358Y14139D02*
X-95842D01*
G01X-97358D02*
X-95842D01*
G01Y20061D02*
X-97358D01*
G01X-95842D02*
X-97358D01*
G01X-96039Y62942D02*
Y64458D01*
G01Y62942D02*
Y64458D01*
G01X-94390Y83600D02*
X-85500D01*
G01X-94390D02*
X-85500D01*
G01Y113400D02*
X-94390D01*
G01X-85500D02*
X-94390D01*
G01X-94261Y64458D02*
Y62942D01*
G01Y64458D02*
Y62942D01*
G01X-92800Y113800D02*
Y110800D01*
G01Y113800D02*
Y110800D01*
G01X-94300Y112300D02*
X-91300D01*
G01X-94300D02*
X-91300D01*
G01X-89250Y24763D02*
Y22850D01*
G01D02*
X-87337D01*
G01X-89250D02*
X-87337D01*
G01X-89250Y24763D02*
Y22850D01*
G01Y52150D02*
Y50237D01*
G01Y52150D02*
Y50237D01*
G01X-87337Y52150D02*
X-89250D01*
G01X-87337D02*
X-89250D01*
G01X-88339Y62942D02*
Y64458D01*
G01Y62942D02*
Y64458D01*
G01X-88540Y119750D02*
X-75550D01*
G01X-88540D02*
X-75550D01*
G01Y154250D02*
X-88540D01*
G01X-75550D02*
X-88540D01*
G01X-85839Y160750D02*
X-83561D01*
G01X-85839D02*
X-83561D01*
G01Y167250D02*
X-85839D01*
G01X-83561D02*
X-85839D01*
G01X-85500Y83600D02*
Y113400D01*
G01Y83600D02*
Y113400D01*
G01X-80650Y89200D02*
X-83650D01*
G01X-80650D02*
X-83650D01*
G01X-83239Y-26950D02*
X-80961D01*
G01X-83239D02*
X-80961D01*
G01Y-20450D02*
X-83239D01*
G01X-80961D02*
X-83239D01*
G01Y-18350D02*
X-80961D01*
G01X-83239D02*
X-80961D01*
G01Y-11850D02*
X-83239D01*
G01X-80961D02*
X-83239D01*
G01X-82150Y90700D02*
Y87700D01*
G01Y90700D02*
Y87700D01*
G01X-74850Y84940D02*
Y68050D01*
G01D02*
X-32550D01*
G01X-74850D02*
X-32550D01*
G01X-74850Y84940D02*
Y68050D01*
G01Y110350D02*
Y93460D01*
G01Y110350D02*
Y93460D01*
G01X-32550Y110350D02*
X-74850D01*
G01X-32550D02*
X-74850D01*
G01X-75550Y119750D02*
Y154250D01*
G01Y119750D02*
Y142605D01*
G01Y145395D02*
Y154250D01*
G01X-72950Y9739D02*
Y7461D01*
G01Y9739D02*
Y7461D01*
G01X-70400Y135050D02*
X-68660D01*
G01X-70400Y154150D02*
Y135050D01*
G01Y154150D02*
Y135050D01*
G01D02*
X-68660D01*
G01Y154150D02*
X-70400D01*
G01X-68660D02*
X-70400D01*
G01X-69961Y-48842D02*
Y-50358D01*
G01Y-48842D02*
Y-50358D01*
G01X-68539Y112650D02*
X-66261D01*
G01X-68539D02*
X-66261D01*
G01Y119150D02*
X-68539D01*
G01X-66261D02*
X-68539D01*
G01X-66450Y7461D02*
Y9739D01*
G01Y7461D02*
Y9739D01*
G01X-64039Y-50358D02*
Y-48842D01*
G01Y-50358D02*
Y-48842D01*
G01X-61863Y22850D02*
X-59950D01*
G01X-61863D02*
X-59950D01*
G01Y52150D02*
X-61863D01*
G01X-59950D02*
X-61863D01*
G01X-60061Y-84042D02*
Y-85558D01*
G01Y-84042D02*
Y-85558D01*
G01X-59861Y11758D02*
Y10242D01*
G01Y11758D02*
Y10242D01*
G01X-59950Y22850D02*
Y24763D01*
G01Y22850D02*
Y24763D01*
G01Y50237D02*
Y52150D01*
G01Y50237D02*
Y52150D01*
G01X-59461Y123658D02*
Y122142D01*
G01Y123658D02*
Y122142D01*
G01X-59540Y135050D02*
X-57800D01*
G01X-59540D02*
X-57800D01*
G01Y154150D02*
X-59540D01*
G01X-57800D02*
X-59540D01*
G01X-57800Y135050D02*
Y154150D01*
G01Y135050D02*
Y154150D01*
G01X-54139Y-85558D02*
Y-84042D01*
G01Y-85558D02*
Y-84042D01*
G01X-53650Y-73494D02*
Y-75650D01*
G01D02*
X-30950D01*
G01X-53650D02*
X-36799D01*
G01X-53650Y-73494D02*
Y-75650D01*
G01Y-33750D02*
Y-35906D01*
G01Y-33750D02*
Y-35906D01*
G01X-30950Y-33750D02*
X-53650D01*
G01X-30950D02*
X-53650D01*
G01X-53939Y10242D02*
Y11758D01*
G01Y10242D02*
Y11758D01*
G01X-53233Y26673D02*
G02I-300J0D01*
G01D02*
G03I-300J0D01*
G01X-53539Y122142D02*
Y123658D01*
G01Y122142D02*
Y123658D01*
G01X-52261Y-84042D02*
Y-85558D01*
G01Y-84042D02*
Y-85558D01*
G01X-51961Y11758D02*
Y10242D01*
G01Y11758D02*
Y10242D01*
G01X-48550Y168600D02*
X-42850D01*
G01X-48550D02*
X-42850D01*
G01Y172800D02*
X-48550D01*
G01X-42850D02*
X-48550D01*
G01X-46339Y-85558D02*
Y-84042D01*
G01Y-85558D02*
Y-84042D01*
G01X-46039Y10242D02*
Y11758D01*
G01Y10242D02*
Y11758D01*
G01X-46339Y160450D02*
X-44061D01*
G01X-46339D02*
X-44061D01*
G01Y166950D02*
X-46339D01*
G01X-44061D02*
X-46339D01*
G01X-44461Y-84042D02*
Y-85558D01*
G01Y-84042D02*
Y-85558D01*
G01X-44061Y11758D02*
Y10242D01*
G01Y11758D02*
Y10242D01*
G01X-43161Y28658D02*
Y27142D01*
G01Y28658D02*
Y27142D01*
G01X-43261Y41858D02*
Y40342D01*
G01Y41858D02*
Y40342D01*
G01X-41658Y49639D02*
X-40142D01*
G01X-41658D02*
X-40142D01*
G01Y55561D02*
X-41658D01*
G01X-40142D02*
X-41658D01*
G01X-40264Y181425D02*
X-39536D01*
G01X-40264D02*
X-39536D01*
G01Y185575D02*
X-40264D01*
G01X-39536D02*
X-40264D01*
G01Y187625D02*
X-39536D01*
G01X-40264D02*
X-39536D01*
G01Y191775D02*
X-40264D01*
G01X-39536D02*
X-40264D01*
G01X-38539Y-85558D02*
Y-84042D01*
G01Y-85558D02*
Y-84042D01*
G01X-38139Y10242D02*
Y11758D01*
G01Y10242D02*
Y11758D01*
G01X-37239Y27142D02*
Y28658D01*
G01Y27142D02*
Y28658D01*
G01X-37339Y40342D02*
Y41858D01*
G01Y40342D02*
Y41858D01*
G01X-35110Y118000D02*
X-38300D01*
G01X-35110D02*
X-38300D01*
G01X-35110Y121800D02*
X-38300D01*
G01X-35110D02*
X-38300D01*
G01X-35110Y124700D02*
X-38300D01*
G01X-35110D02*
X-38300D01*
G01X-35110Y128500D02*
X-38300D01*
G01X-35110D02*
X-38300D01*
G01X-35110Y131400D02*
X-38300D01*
G01X-35110D02*
X-38300D01*
G01X-35110Y135200D02*
X-38300D01*
G01X-35110D02*
X-38300D01*
G01X-35110Y138100D02*
X-38300D01*
G01X-35110D02*
X-38300D01*
G01X-35110Y141900D02*
X-38300D01*
G01X-35110D02*
X-38300D01*
G01X-35110Y144800D02*
X-38300D01*
G01X-35110D02*
X-38300D01*
G01X-35110Y148600D02*
X-38300D01*
G01X-35110D02*
X-38300D01*
G01X-36761Y-84042D02*
Y-85558D01*
G01Y-84042D02*
Y-85558D01*
G01X-33801Y-75650D02*
X-30950D01*
G01X-34800Y23450D02*
Y44950D01*
G01X-33060Y23450D02*
X-34800D01*
G01X-33060D02*
X-34800D01*
G01D02*
Y44950D01*
G01X-33060D02*
X-34800D01*
G01X-33060D02*
X-34800D01*
G01X-30839Y-85558D02*
Y-84042D01*
G01Y-85558D02*
Y-84042D01*
G01X-30950Y-75650D02*
Y-73494D01*
G01Y-75650D02*
Y-73494D01*
G01Y-35906D02*
Y-33750D01*
G01Y-35906D02*
Y-33750D01*
G01X-32550Y68050D02*
Y84940D01*
G01Y68050D02*
Y84940D01*
G01Y93460D02*
Y110350D01*
G01Y93460D02*
Y110350D01*
G01X-29061Y-84042D02*
Y-85558D01*
G01Y-84042D02*
Y-85558D01*
G01X-23139D02*
Y-84042D01*
G01Y-85558D02*
Y-84042D01*
G01X-22140Y23450D02*
X-20400D01*
G01X-22140D02*
X-20400D01*
G01X-22140Y44950D02*
X-20400D01*
G01X-22140D02*
X-20400D01*
G01Y23450D02*
Y44950D01*
G01Y23450D02*
Y44950D01*
G01X-8513Y-49100D02*
X-7487D01*
G01X-8513D02*
X-7487D01*
G01Y-44900D02*
X-8513D01*
G01X-7487D02*
X-8513D01*
G01X-5550Y56050D02*
X11150D01*
G01X-5550D02*
X11150D01*
G01Y76750D02*
X-5550D01*
G01X877D02*
X-5550D01*
G01X-2158Y79539D02*
X-642D01*
G01X-2158D02*
X-642D01*
G01Y85461D02*
X-2158D01*
G01X-642D02*
X-2158D01*
G01X11150Y76750D02*
X3629D01*
G01X6297Y-72950D02*
X8303D01*
G01X6297D02*
X8303D01*
G01X8203Y-65350D02*
X6197D01*
G01X8203D02*
X6197D01*
G01X5061Y-56650D02*
X7339D01*
G01X5061D02*
X7339D01*
G01X5061Y-48550D02*
X7339D01*
G01X5061D02*
X7339D01*
G01Y-50150D02*
X5061D01*
G01X7339D02*
X5061D01*
G01X7339Y-42050D02*
X5061D01*
G01X7339D02*
X5061D01*
G01X11961Y79450D02*
X14239D01*
G01X11961D02*
X14239D01*
G01Y85950D02*
X11961D01*
G01X14239D02*
X11961D01*
G01X21150Y61239D02*
Y58961D01*
G01Y61239D02*
Y58961D01*
G01X23961Y70950D02*
X26239D01*
G01X23961D02*
X26239D01*
G01Y77450D02*
X23961D01*
G01X26239D02*
X23961D01*
G01X23236Y163925D02*
X23964D01*
G01X23236D02*
X23964D01*
G01Y168075D02*
X23236D01*
G01X23964D02*
X23236D01*
G01X27650Y58961D02*
Y61239D01*
G01Y58961D02*
Y61239D01*
G01X31050Y-8361D02*
Y-10639D01*
G01Y-8361D02*
Y-10639D01*
G01X30750Y22939D02*
Y20661D01*
G01Y22939D02*
Y20661D01*
G01X29850Y109139D02*
Y106861D01*
G01Y109139D02*
Y106861D01*
G01Y124839D02*
Y122561D01*
G01Y124839D02*
Y122561D01*
G01X31550Y-40461D02*
Y-42739D01*
G01Y-40461D02*
Y-42739D01*
G01X32350Y56339D02*
Y54061D01*
G01Y56339D02*
Y54061D01*
G01X34750Y146739D02*
Y144461D01*
G01Y146739D02*
Y144461D01*
G01X37550Y-10639D02*
Y-8361D01*
G01Y-10639D02*
Y-8361D01*
G01X37250Y20661D02*
Y22939D01*
G01Y20661D02*
Y22939D01*
G01X36350Y106861D02*
Y109139D01*
G01Y106861D02*
Y109139D01*
G01Y122561D02*
Y124839D01*
G01Y122561D02*
Y124839D01*
G01X38050Y-42739D02*
Y-40461D01*
G01Y-42739D02*
Y-40461D01*
G01X39850D02*
Y-42739D01*
G01Y-40461D02*
Y-42739D01*
G01X39450Y-8361D02*
Y-10639D01*
G01Y-8361D02*
Y-10639D01*
G01X39350Y22939D02*
Y20661D01*
G01Y22939D02*
Y20661D01*
G01X38850Y54061D02*
Y56339D01*
G01Y54061D02*
Y56339D01*
G01X38439Y124258D02*
Y122742D01*
G01Y124258D02*
Y122742D01*
G01X41150Y-24050D02*
Y-30350D01*
G01Y-24050D02*
Y-30350D01*
G01X43790Y-24050D02*
X41150D01*
G01X43790D02*
X41150D01*
G01X40850Y56239D02*
Y53961D01*
G01Y56239D02*
Y53961D01*
G01X40442Y131539D02*
X41958D01*
G01X40442D02*
X41958D01*
G01Y137461D02*
X40442D01*
G01X41958D02*
X40442D01*
G01X41250Y144461D02*
Y146739D01*
G01Y144461D02*
Y146739D01*
G01X42850Y9150D02*
Y2850D01*
G01Y9150D02*
Y2850D01*
G01X45490Y9150D02*
X42850D01*
G01X45490D02*
X42850D01*
G01X42150Y39750D02*
Y33450D01*
G01Y39750D02*
Y33450D01*
G01X44790Y39750D02*
X42150D01*
G01X44790D02*
X42150D01*
G01X43350Y72850D02*
Y66550D01*
G01Y71764D02*
Y66550D01*
G01X45990Y72850D02*
X43350D01*
G01X43861Y100550D02*
X46139D01*
G01X43861D02*
X46139D01*
G01Y107050D02*
X43861D01*
G01X46139D02*
X43861D01*
G01X44042Y108839D02*
X45558D01*
G01X44042D02*
X45558D01*
G01Y114761D02*
X44042D01*
G01X45558D02*
X44042D01*
G01X46350Y-42739D02*
Y-40461D01*
G01Y-42739D02*
Y-40461D01*
G01X45950Y-10639D02*
Y-8361D01*
G01Y-10639D02*
Y-8361D01*
G01X45850Y20661D02*
Y22939D01*
G01Y20661D02*
Y22939D01*
G01X45990Y72850D02*
X44995D01*
G01X46439Y124258D02*
Y122742D01*
G01Y124258D02*
Y122742D01*
G01X44361D02*
Y124258D01*
G01Y122742D02*
Y124258D01*
G01X48450Y-40461D02*
Y-42739D01*
G01Y-40461D02*
Y-42739D01*
G01X50850Y-24050D02*
X48210D01*
G01X50850D02*
X48210D01*
G01X47750Y-8361D02*
Y-10639D01*
G01Y-8361D02*
Y-10639D01*
G01Y22939D02*
Y20661D01*
G01Y22939D02*
Y20661D01*
G01X47350Y53961D02*
Y56239D01*
G01Y53961D02*
Y56239D01*
G01X47642Y77939D02*
X49158D01*
G01X47642D02*
X49158D01*
G01Y83861D02*
X47642D01*
G01X49158D02*
X47642D01*
G01X50850Y-30350D02*
Y-24050D01*
G01Y-30350D02*
Y-24050D01*
G01X52550Y9150D02*
X49910D01*
G01X50105D02*
X49910D01*
G01X51850Y39750D02*
X49210D01*
G01X49705D02*
X49210D01*
G01X49250Y56239D02*
Y53961D01*
G01Y56239D02*
Y53961D01*
G01X53050Y72850D02*
X50410D01*
G01X51808D02*
X50410D01*
G01X52550Y2850D02*
Y9150D01*
G01Y2850D02*
Y8433D01*
G01X51850Y33450D02*
Y39750D01*
G01Y33450D02*
Y38824D01*
G01X53050Y66550D02*
Y72850D01*
G01Y66550D02*
Y71521D01*
G01X52361Y122742D02*
Y124258D01*
G01Y122742D02*
Y124258D01*
G01X54950Y-42739D02*
Y-40461D01*
G01Y-42739D02*
Y-40461D01*
G01X54250Y-10639D02*
Y-8361D01*
G01Y-10639D02*
Y-8361D01*
G01Y20661D02*
Y22939D01*
G01Y20661D02*
Y22939D01*
G01X54750Y132339D02*
Y130061D01*
G01Y132339D02*
Y130061D01*
G01X55750Y53961D02*
Y56239D01*
G01Y53961D02*
Y56239D01*
G01X59350Y146739D02*
Y144461D01*
G01Y146739D02*
Y144461D01*
G01X61450Y116239D02*
Y113961D01*
G01Y116239D02*
Y113961D01*
G01X61250Y130061D02*
Y132339D01*
G01Y130061D02*
Y132339D01*
G01X63639Y131758D02*
Y130242D01*
G01Y131758D02*
Y130242D01*
G01X65842Y86239D02*
X67358D01*
G01X65842D02*
X67358D01*
G01Y92161D02*
X65842D01*
G01X67358D02*
X65842D01*
G01X65850Y144461D02*
Y146739D01*
G01Y144461D02*
Y146739D01*
G01X67950Y113961D02*
Y116239D01*
G01Y113961D02*
Y116239D01*
G01X69561Y130242D02*
Y131758D01*
G01Y130242D02*
Y131758D01*
G01X69050Y146739D02*
Y144461D01*
G01Y146739D02*
Y144461D01*
G01X71739Y131758D02*
Y130242D01*
G01Y131758D02*
Y130242D01*
G01X74961Y115350D02*
X77239D01*
G01X74961D02*
X77239D01*
G01Y121850D02*
X74961D01*
G01X77239D02*
X74961D01*
G01X75342Y108039D02*
X76858D01*
G01X75342D02*
X76858D01*
G01Y113961D02*
X75342D01*
G01X76858D02*
X75342D01*
G01X75550Y144461D02*
Y146739D01*
G01Y144461D02*
Y146739D01*
G01X77661Y130242D02*
Y131758D01*
G01Y130242D02*
Y131758D01*
G01X80350Y161139D02*
Y158861D01*
G01Y161139D02*
Y158861D01*
G01X85442Y131339D02*
X86958D01*
G01X85442D02*
X86958D01*
G01Y137261D02*
X85442D01*
G01X86958D02*
X85442D01*
G01X86850Y158861D02*
Y161139D01*
G01Y158861D02*
Y161139D01*
G54D13*
G01X-140575Y182005D02*
G03I-394J0D01*
G01D02*
G03I-394J0D01*
G01X-24675Y182605D02*
G03I-394J0D01*
G01D02*
G03I-394J0D01*
G01X56198Y85698D02*
X48422D01*
G01X56198D02*
X48422D01*
G01X51375Y97902D02*
X48324D01*
G01X51375D02*
X48324D01*
G01X56798Y139298D02*
X49022D01*
G01X56798D02*
X49022D01*
G01X51975Y151502D02*
X48924D01*
G01X51975D02*
X51781D01*
G01X69375Y106102D02*
X66324D01*
G01X69375D02*
X66324D01*
G01X74198Y93898D02*
X66422D01*
G01X74198D02*
X66422D01*
G01X91198Y139198D02*
X83422D01*
G01X91198D02*
X83422D01*
G01X86375Y151402D02*
X83324D01*
G01X86375D02*
X83324D01*
G01X86789Y-33369D02*
G03I-394J0D01*
G01D02*
G03I-394J0D01*
M02*
